<svg width="200" height="200" viewBox="0 0 200 200" fill="none" xmlns="http://www.w3.org/2000/svg">
<path d="M100 0C44.776 0 0 44.768 0 100C0 155.224 44.776 200 100 200C155.232 200 200 155.232 200 100C200 44.768 155.232 0 100 0ZM100 195C47.536 195 5.008 152.464 5.008 100C5.008 47.536 47.536 5 100 5C152.464 5 195 47.536 195 100C195 152.464 152.472 195 100 195Z" fill="url(#paint0_linear)"/>
<path d="M195.712 100.001C195.712 152.857 152.856 195.713 100 195.713C47.1441 195.713 4.28809 152.857 4.28809 100.001C4.28809 47.1371 47.1441 4.28906 100 4.28906C152.856 4.28906 195.712 47.1371 195.712 100.001Z" fill="#333333"/>
<path d="M195 100C195 152.464 152.472 195 99.9998 195C47.5358 195 5.00781 152.464 5.00781 100C5.00781 47.536 47.5358 5 99.9998 5C152.472 5 195 47.536 195 100Z" fill="url(#paint1_radial)"/>
<path d="M163.688 100.001C163.688 135.177 135.176 163.689 99.9995 163.689C64.8235 163.689 36.3115 135.177 36.3115 100.001C36.3115 64.8245 64.8235 36.3125 99.9995 36.3125C135.176 36.3125 163.688 64.8245 163.688 100.001Z" fill="url(#paint2_linear)"/>
<path d="M38.4316 100.002C38.4316 65.9936 65.9996 38.4336 99.9997 38.4336C134.008 38.4336 161.568 66.0016 161.568 100.002C161.568 134.002 134.008 161.57 99.9997 161.57C65.9996 161.57 38.4316 134.01 38.4316 100.002Z" fill="url(#paint3_radial)"/>
<path d="M40.2002 99.9992C40.2002 66.9752 66.9762 40.1992 100 40.1992C133.024 40.1992 159.8 66.9752 159.8 99.9992C159.8 133.023 133.024 159.799 100 159.799C66.9762 159.799 40.2002 133.023 40.2002 99.9992Z" fill="url(#paint4_radial)"/>
<path d="M40.1035 99.9976H99.9995V40.1016C66.9195 40.1016 40.1035 66.9176 40.1035 99.9976Z" fill="url(#paint5_radial)"/>
<path d="M100 100V159.896C133.08 159.896 159.896 133.08 159.896 100H100Z" fill="url(#paint6_radial)"/>
<path d="M160.392 98.9335H101.064V39.6055H98.9364V98.9335H39.6084V101.061H98.9364V160.389H101.064V101.061H160.392V98.9335Z" fill="url(#paint7_radial)"/>
<path d="M101.064 41.2867C132.656 41.8467 158.152 67.3427 158.72 98.9347H159.776C159.208 66.7587 133.24 40.7827 101.064 40.2227V41.2867Z" fill="url(#paint8_linear)"/>
<path d="M41.1841 98.9287C41.7441 67.2967 67.2801 41.7607 98.9121 41.2007V40.1367C66.6881 40.6967 40.6881 66.7047 40.1201 98.9287H41.1841Z" fill="#C2D7E8"/>
<path d="M98.9366 158.71C67.3446 158.15 41.8486 132.654 41.2886 101.062H40.2246C40.7926 133.246 66.7606 159.214 98.9366 159.774V158.71Z" fill="url(#paint9_linear)"/>
<path d="M158.72 101.062C158.152 132.654 132.656 158.15 101.064 158.71V159.774C133.248 159.214 159.216 133.238 159.776 101.062H158.72Z" fill="#12404F"/>
<path d="M97.8 40.1367V97.7687H40.168V98.9047H98.936V40.1367H97.8Z" fill="url(#paint10_linear)"/>
<path d="M97.7045 159.216V102.28H40.6484V101.16H98.8325V159.224H97.7045V159.216Z" fill="url(#paint11_linear)"/>
<path d="M102.28 159.216V102.28H159.216V101.16H101.16V159.224H102.28V159.216Z" fill="url(#paint12_linear)"/>
<path d="M102.28 40.6484V97.5844H159.216V98.7044H101.16V40.6484H102.28Z" fill="url(#paint13_linear)"/>
<defs>
<linearGradient id="paint0_linear" x1="-14.6398" y1="-10.7817" x2="197.542" y2="194.256" gradientUnits="userSpaceOnUse">
<stop stop-color="#DFF4FF"/>
<stop offset="0.098" stop-color="#D6EAF5"/>
<stop offset="0.268" stop-color="#BFD0D9"/>
<stop offset="0.488" stop-color="#98A5AC"/>
<stop offset="0.747" stop-color="#646B6E"/>
<stop offset="1" stop-color="#2B2B2B"/>
</linearGradient>
<radialGradient id="paint1_radial" cx="0" cy="0" r="1" gradientUnits="userSpaceOnUse" gradientTransform="translate(-1.2477 6.61424) scale(142.074)">
<stop stop-color="white"/>
<stop offset="0.306" stop-color="#A8A8A8"/>
<stop offset="0.646" stop-color="#4F4F4F"/>
<stop offset="0.885" stop-color="#161616"/>
<stop offset="1"/>
</radialGradient>
<linearGradient id="paint2_linear" x1="173.012" y1="170.553" x2="37.8743" y2="39.9658" gradientUnits="userSpaceOnUse">
<stop stop-color="#DFF4FF"/>
<stop offset="0.086" stop-color="#D6EAF5"/>
<stop offset="0.233" stop-color="#BED0D9"/>
<stop offset="0.424" stop-color="#96A4AC"/>
<stop offset="0.652" stop-color="#5F686D"/>
<stop offset="0.907" stop-color="#1A1D1E"/>
<stop offset="1"/>
</linearGradient>
<radialGradient id="paint3_radial" cx="0" cy="0" r="1" gradientUnits="userSpaceOnUse" gradientTransform="translate(34.3779 39.4757) scale(92.0816)">
<stop stop-color="#E6E6E6"/>
<stop offset="0.104" stop-color="#D6D6D6"/>
<stop offset="0.307" stop-color="#ADADAD"/>
<stop offset="0.588" stop-color="#6C6C6C"/>
<stop offset="0.933" stop-color="#121212"/>
<stop offset="1"/>
</radialGradient>
<radialGradient id="paint4_radial" cx="0" cy="0" r="1" gradientUnits="userSpaceOnUse" gradientTransform="translate(59.5638 51.8584) scale(133.913)">
<stop stop-color="white"/>
<stop offset="0.344" stop-color="#FDFDFD"/>
<stop offset="0.481" stop-color="#F6F6F6"/>
<stop offset="0.582" stop-color="#EAEAEA"/>
<stop offset="0.665" stop-color="#D8D8D8"/>
<stop offset="0.737" stop-color="#C2C2C2"/>
<stop offset="0.802" stop-color="#A6A6A6"/>
<stop offset="0.86" stop-color="#848484"/>
<stop offset="0.913" stop-color="#5F5F5F"/>
<stop offset="0.949" stop-color="#404040"/>
<stop offset="0.957" stop-color="#404040"/>
<stop offset="1"/>
</radialGradient>
<radialGradient id="paint5_radial" cx="0" cy="0" r="1" gradientUnits="userSpaceOnUse" gradientTransform="translate(20.2445 1.09503) scale(237.162 237.162)">
<stop offset="0.169" stop-color="white"/>
<stop offset="0.196" stop-color="#E0EFF7"/>
<stop offset="0.241" stop-color="#B2D9EC"/>
<stop offset="0.287" stop-color="#8BC5E2"/>
<stop offset="0.335" stop-color="#6BB5DA"/>
<stop offset="0.384" stop-color="#52A9D4"/>
<stop offset="0.436" stop-color="#41A0CF"/>
<stop offset="0.491" stop-color="#369BCD"/>
<stop offset="0.556" stop-color="#3399CC"/>
<stop offset="0.606" stop-color="#3396C8"/>
<stop offset="0.655" stop-color="#328EBC"/>
<stop offset="0.705" stop-color="#3180A8"/>
<stop offset="0.754" stop-color="#2F6D8C"/>
<stop offset="0.803" stop-color="#2D5468"/>
<stop offset="0.851" stop-color="#2A373D"/>
<stop offset="0.871" stop-color="#292929"/>
</radialGradient>
<radialGradient id="paint6_radial" cx="0" cy="0" r="1" gradientUnits="userSpaceOnUse" gradientTransform="translate(20.2449 1.09567) scale(237.157)">
<stop offset="0.169" stop-color="white"/>
<stop offset="0.196" stop-color="#E0EFF7"/>
<stop offset="0.241" stop-color="#B2D9EC"/>
<stop offset="0.287" stop-color="#8BC5E2"/>
<stop offset="0.335" stop-color="#6BB5DA"/>
<stop offset="0.384" stop-color="#52A9D4"/>
<stop offset="0.436" stop-color="#41A0CF"/>
<stop offset="0.491" stop-color="#369BCD"/>
<stop offset="0.556" stop-color="#3399CC"/>
<stop offset="0.606" stop-color="#3396C8"/>
<stop offset="0.655" stop-color="#328EBC"/>
<stop offset="0.705" stop-color="#3180A8"/>
<stop offset="0.754" stop-color="#2F6D8C"/>
<stop offset="0.803" stop-color="#2D5468"/>
<stop offset="0.851" stop-color="#2A373D"/>
<stop offset="0.871" stop-color="#292929"/>
</radialGradient>
<radialGradient id="paint7_radial" cx="0" cy="0" r="1" gradientUnits="userSpaceOnUse" gradientTransform="translate(35.6362 40.6315) scale(90.3168)">
<stop stop-color="#E6E6E6"/>
<stop offset="0.104" stop-color="#D6D6D6"/>
<stop offset="0.307" stop-color="#ADADAD"/>
<stop offset="0.588" stop-color="#6C6C6C"/>
<stop offset="0.933" stop-color="#121212"/>
<stop offset="1"/>
</radialGradient>
<linearGradient id="paint8_linear" x1="88.1579" y1="18.0819" x2="176.235" y2="103.193" gradientUnits="userSpaceOnUse">
<stop stop-color="#F0F4FF"/>
<stop offset="0.109" stop-color="#EBEFF9"/>
<stop offset="0.247" stop-color="#DCE0EA"/>
<stop offset="0.403" stop-color="#C4C7CF"/>
<stop offset="0.57" stop-color="#A2A4AB"/>
<stop offset="0.747" stop-color="#76777C"/>
<stop offset="0.929" stop-color="#414243"/>
<stop offset="1" stop-color="#2B2B2B"/>
</linearGradient>
<linearGradient id="paint9_linear" x1="16.6689" y1="89.94" x2="104.747" y2="175.053" gradientUnits="userSpaceOnUse">
<stop stop-color="#F0F4FF"/>
<stop offset="0.109" stop-color="#EBEFF9"/>
<stop offset="0.247" stop-color="#DCE0EA"/>
<stop offset="0.403" stop-color="#C4C7CF"/>
<stop offset="0.57" stop-color="#A2A4AB"/>
<stop offset="0.747" stop-color="#76777C"/>
<stop offset="0.929" stop-color="#414243"/>
<stop offset="1" stop-color="#2B2B2B"/>
</linearGradient>
<linearGradient id="paint10_linear" x1="59.2781" y1="59.5923" x2="104.95" y2="103.726" gradientUnits="userSpaceOnUse">
<stop stop-color="#C2D7E8"/>
<stop offset="0.134" stop-color="#BACFE1"/>
<stop offset="0.343" stop-color="#A4BACD"/>
<stop offset="0.6" stop-color="#8098AC"/>
<stop offset="0.894" stop-color="#4E697F"/>
<stop offset="1" stop-color="#3A566D"/>
</linearGradient>
<linearGradient id="paint11_linear" x1="36.4056" y1="70.4065" x2="123.597" y2="154.662" gradientUnits="userSpaceOnUse">
<stop stop-color="#F0F4FF"/>
<stop offset="0.097" stop-color="#E8EBF6"/>
<stop offset="0.257" stop-color="#D1D4DD"/>
<stop offset="0.459" stop-color="#ABAEB5"/>
<stop offset="0.695" stop-color="#78797D"/>
<stop offset="0.958" stop-color="#363637"/>
<stop offset="1" stop-color="#2B2B2B"/>
</linearGradient>
<linearGradient id="paint12_linear" x1="100.67" y1="101.661" x2="131.255" y2="131.215" gradientUnits="userSpaceOnUse">
<stop stop-color="#D9DEF0"/>
<stop offset="0.123" stop-color="#D4DAEC"/>
<stop offset="0.263" stop-color="#C7CFE2"/>
<stop offset="0.411" stop-color="#B0BCD1"/>
<stop offset="0.566" stop-color="#90A1B8"/>
<stop offset="0.725" stop-color="#677F99"/>
<stop offset="0.885" stop-color="#355674"/>
<stop offset="0.972" stop-color="#173D5D"/>
</linearGradient>
<linearGradient id="paint13_linear" x1="69.3839" y1="38.4295" x2="156.481" y2="122.594" gradientUnits="userSpaceOnUse">
<stop stop-color="#F0F4FF"/>
<stop offset="0.109" stop-color="#EBEFF9"/>
<stop offset="0.247" stop-color="#DCE0EA"/>
<stop offset="0.403" stop-color="#C4C7CF"/>
<stop offset="0.57" stop-color="#A2A4AB"/>
<stop offset="0.747" stop-color="#76777C"/>
<stop offset="0.929" stop-color="#414243"/>
<stop offset="1" stop-color="#2B2B2B"/>
</linearGradient>
</defs>
</svg>
