<?xml version="1.0" encoding="utf-8"?>
<!-- Generator: Adobe Illustrator 24.0.2, SVG Export Plug-In . SVG Version: 6.00 Build 0)  -->
<svg version="1.1" id="Слой_1" xmlns="http://www.w3.org/2000/svg" xmlns:xlink="http://www.w3.org/1999/xlink" x="0px" y="0px"
	 viewBox="0 0 737.3 1368.5" style="enable-background:new 0 0 737.3 1368.5;" xml:space="preserve">
<style type="text/css">
	.st0{fill-rule:evenodd;clip-rule:evenodd;fill:#D0D1D3;}
	.st1{fill-rule:evenodd;clip-rule:evenodd;fill:#E6E6E7;}
	.st2{fill-rule:evenodd;clip-rule:evenodd;fill:#BBBCBF;}
	.st3{fill-rule:evenodd;clip-rule:evenodd;fill:#4C1816;}
	.st4{fill-rule:evenodd;clip-rule:evenodd;fill:#4E1918;}
	.st5{fill-rule:evenodd;clip-rule:evenodd;fill:#4E1917;}
	.st6{fill-rule:evenodd;clip-rule:evenodd;fill:#501918;}
	.st7{fill-rule:evenodd;clip-rule:evenodd;fill:#511A19;}
	.st8{fill-rule:evenodd;clip-rule:evenodd;fill:#521B1A;}
	.st9{fill-rule:evenodd;clip-rule:evenodd;fill:#531B1A;}
	.st10{fill-rule:evenodd;clip-rule:evenodd;fill:#541A1B;}
	.st11{fill-rule:evenodd;clip-rule:evenodd;fill:#551B1C;}
	.st12{fill-rule:evenodd;clip-rule:evenodd;fill:#571C1C;}
	.st13{fill-rule:evenodd;clip-rule:evenodd;fill:#581C1C;}
	.st14{fill-rule:evenodd;clip-rule:evenodd;fill:#591D1C;}
	.st15{fill-rule:evenodd;clip-rule:evenodd;fill:#5A1E1D;}
	.st16{fill-rule:evenodd;clip-rule:evenodd;fill:#5B1E1D;}
	.st17{fill-rule:evenodd;clip-rule:evenodd;fill:#5C1E1E;}
	.st18{fill-rule:evenodd;clip-rule:evenodd;fill:#5D1F1F;}
	.st19{fill-rule:evenodd;clip-rule:evenodd;fill:#5F201F;}
	.st20{fill-rule:evenodd;clip-rule:evenodd;fill:#60201F;}
	.st21{fill-rule:evenodd;clip-rule:evenodd;fill:#612020;}
	.st22{fill-rule:evenodd;clip-rule:evenodd;fill:#622121;}
	.st23{fill-rule:evenodd;clip-rule:evenodd;fill:#632121;}
	.st24{fill-rule:evenodd;clip-rule:evenodd;fill:#642221;}
	.st25{fill-rule:evenodd;clip-rule:evenodd;fill:#662322;}
	.st26{fill-rule:evenodd;clip-rule:evenodd;fill:#672323;}
	.st27{fill-rule:evenodd;clip-rule:evenodd;fill:#682323;}
	.st28{fill-rule:evenodd;clip-rule:evenodd;fill:#692423;}
	.st29{fill-rule:evenodd;clip-rule:evenodd;fill:#6B2523;}
	.st30{fill-rule:evenodd;clip-rule:evenodd;fill:#6C2523;}
	.st31{fill-rule:evenodd;clip-rule:evenodd;fill:#6D2524;}
	.st32{fill-rule:evenodd;clip-rule:evenodd;fill:#6E2424;}
	.st33{fill-rule:evenodd;clip-rule:evenodd;fill:#702525;}
	.st34{fill-rule:evenodd;clip-rule:evenodd;fill:#722626;}
	.st35{fill-rule:evenodd;clip-rule:evenodd;fill:#742626;}
	.st36{fill-rule:evenodd;clip-rule:evenodd;fill:#762727;}
	.st37{fill-rule:evenodd;clip-rule:evenodd;fill:#772728;}
	.st38{fill-rule:evenodd;clip-rule:evenodd;fill:#792828;}
	.st39{fill-rule:evenodd;clip-rule:evenodd;fill:#7A2828;}
	.st40{fill-rule:evenodd;clip-rule:evenodd;fill:#7B2929;}
	.st41{fill-rule:evenodd;clip-rule:evenodd;fill:#7C292A;}
	.st42{fill-rule:evenodd;clip-rule:evenodd;fill:#7F2A2A;}
	.st43{fill-rule:evenodd;clip-rule:evenodd;fill:#802B2B;}
	.st44{fill-rule:evenodd;clip-rule:evenodd;fill:#80292A;}
	.st45{fill-rule:evenodd;clip-rule:evenodd;fill:#81282A;}
	.st46{fill-rule:evenodd;clip-rule:evenodd;fill:#83292B;}
	.st47{fill-rule:evenodd;clip-rule:evenodd;fill:#842A2C;}
	.st48{fill-rule:evenodd;clip-rule:evenodd;fill:#862A2B;}
	.st49{fill-rule:evenodd;clip-rule:evenodd;fill:#882B2C;}
	.st50{fill-rule:evenodd;clip-rule:evenodd;fill:#8A2B2D;}
	.st51{fill-rule:evenodd;clip-rule:evenodd;fill:#8D2C2D;}
	.st52{fill-rule:evenodd;clip-rule:evenodd;fill:#8E2D2E;}
	.st53{fill-rule:evenodd;clip-rule:evenodd;fill:#902D2E;}
	.st54{fill-rule:evenodd;clip-rule:evenodd;fill:#922E2F;}
	.st55{fill-rule:evenodd;clip-rule:evenodd;fill:#942E2F;}
	.st56{fill-rule:evenodd;clip-rule:evenodd;fill:#972F30;}
	.st57{fill-rule:evenodd;clip-rule:evenodd;fill:#982F30;}
	.st58{fill-rule:evenodd;clip-rule:evenodd;fill:#9A3031;}
	.st59{fill-rule:evenodd;clip-rule:evenodd;fill:#9A3030;}
	.st60{fill-rule:evenodd;clip-rule:evenodd;fill:#9D3030;}
	.st61{fill-rule:evenodd;clip-rule:evenodd;fill:#9E3131;}
	.st62{fill-rule:evenodd;clip-rule:evenodd;fill:#A12F31;}
	.st63{fill-rule:evenodd;clip-rule:evenodd;fill:#A22F32;}
	.st64{fill-rule:evenodd;clip-rule:evenodd;fill:#A43032;}
	.st65{fill-rule:evenodd;clip-rule:evenodd;fill:#A63033;}
	.st66{fill-rule:evenodd;clip-rule:evenodd;fill:#A73033;}
	.st67{fill-rule:evenodd;clip-rule:evenodd;fill:#A83133;}
	.st68{fill-rule:evenodd;clip-rule:evenodd;fill:#AB3134;}
	.st69{fill-rule:evenodd;clip-rule:evenodd;fill:#AD3234;}
	.st70{fill-rule:evenodd;clip-rule:evenodd;fill:#AE3235;}
	.st71{fill-rule:evenodd;clip-rule:evenodd;fill:#B13235;}
	.st72{fill-rule:evenodd;clip-rule:evenodd;fill:#B33335;}
	.st73{fill-rule:evenodd;clip-rule:evenodd;fill:#B53336;}
	.st74{fill-rule:evenodd;clip-rule:evenodd;fill:#B83136;}
	.st75{fill-rule:evenodd;clip-rule:evenodd;fill:#B93136;}
	.st76{fill-rule:evenodd;clip-rule:evenodd;fill:#BC3137;}
	.st77{fill-rule:evenodd;clip-rule:evenodd;fill:#BC3236;}
	.st78{fill-rule:evenodd;clip-rule:evenodd;fill:#BE3236;}
	.st79{fill-rule:evenodd;clip-rule:evenodd;fill:#C03236;}
	.st80{fill-rule:evenodd;clip-rule:evenodd;fill:#C33337;}
	.st81{fill-rule:evenodd;clip-rule:evenodd;fill:#C53337;}
	.st82{fill-rule:evenodd;clip-rule:evenodd;fill:#CA3337;}
	.st83{fill-rule:evenodd;clip-rule:evenodd;fill:#CD3438;}
	.st84{fill-rule:evenodd;clip-rule:evenodd;}
	.st85{fill-rule:evenodd;clip-rule:evenodd;fill:#FFFFFF;}
	.st86{clip-path:url(#SVGID_2_);}
	.st87{clip-path:url(#SVGID_4_);}
	.st88{clip-path:url(#SVGID_6_);}
	.st89{clip-path:url(#SVGID_8_);}
	.st90{fill-rule:evenodd;clip-rule:evenodd;fill:#A6A8AA;}
	.st91{clip-path:url(#SVGID_10_);}
	.st92{clip-path:url(#SVGID_12_);}
	.st93{fill-rule:evenodd;clip-rule:evenodd;fill:#808183;}
	.st94{clip-path:url(#SVGID_14_);}
	.st95{clip-path:url(#SVGID_16_);}
	.st96{clip-path:url(#SVGID_18_);}
	.st97{clip-path:url(#SVGID_20_);}
	.st98{clip-path:url(#SVGID_22_);}
	.st99{clip-path:url(#SVGID_24_);}
	.st100{fill-rule:evenodd;clip-rule:evenodd;fill:#F1F1F2;}
</style>
<g>
	<path class="st0" d="M179.7,202.3l190.1,79.5V160.9l-2.6-1.6L35.9,23.2L179.7,202.3L179.7,202.3z"/>
	<path class="st1" d="M370.1,1345.3l-0.3-384.6L179.7,202.4L35.9,23.2L370.1,1345.3L370.1,1345.3z M369.8,160.4v121.3l187.8-79.3
		L701.4,23.3L369.8,160.4L369.8,160.4z"/>
	<path class="st2" d="M369.8,960.7v384.7h0.6L701.5,23.2L557.8,202.3L369.8,960.7L369.8,960.7z"/>
	<path class="st3" d="M553.3,208.8l-183.5,77.4l-183.5-77.4l183.5,736.3L553.3,208.8L553.3,208.8z"/>
	<path class="st3" d="M531.2,253.1l-115,48.6c-15.4,6.6-30.9,13.3-33.2,13.3c-2.2,2.2-15.5-4.4-33.2-11.1l-97.3-42
		c-17.7-6.6-28.8,2.2-24.3,19.9l152.6,603.6c0,2.2,0,4.4,2.2,6.6l159.2-641.2C540.1,250.9,535.7,250.9,531.2,253.1z"/>
	<path class="st4" d="M252.7,261.9c-17.7-6.6-26.5,2.2-22.1,19.9l150.3,603.6c0,2.2,0,4.4,2.2,6.6l159.2-641.2
		c-2.2,0-6.6,0-11.1,2.2l-112.7,48.6c-17.7,6.6-33.2,13.3-35.4,13.3c-2.2,2.2-15.5-4.4-33.2-11.1l-8.8-2.2L252.7,261.9L252.7,261.9z
		"/>
	<path class="st4" d="M252.7,261.9c-17.7-6.6-26.5,2.2-22.1,19.9v2.2l150.3,599.2c0,2.2,0,4.4,2.2,6.6l159.2-639
		c-2.2,0-6.6,0-11.1,2.2l-112.7,48.6c-17.7,6.6-33.2,13.3-35.4,13.3c-2.2,2.2-15.5-4.4-33.2-11.1l-8.8-2.2L252.7,261.9L252.7,261.9z
		"/>
	<path class="st5" d="M252.7,264.1c-17.7-8.8-26.5,0-22.1,17.7v2.2l150.3,599.2c0,2.2,2.2,4.4,2.2,6.6l159.2-639
		c-4.4,0-6.6,2.2-11.1,2.2l-112.7,48.6c-17.7,6.6-33.2,13.3-35.4,15.5c0,0-15.5-4.4-33.2-13.3l-6.6-2.2L252.7,264.1L252.7,264.1z"/>
	<path class="st6" d="M252.7,264.1c-15.5-6.6-26.5,0-22.1,17.7v2.2l150.3,599.2c0,2.2,2.2,4.4,2.2,6.6l159.2-639
		c-4.4,0-6.6,2.2-11.1,2.2l-112.7,48.6c-17.7,6.6-33.2,13.3-35.4,15.5c0,0-15.5-4.4-33.2-13.3l-6.6-2.2L252.7,264.1L252.7,264.1z"/>
	<path class="st6" d="M252.7,264.1c-15.5-6.6-26.5,2.2-22.1,17.7v2.2l150.3,599.2c0,2.2,2.2,4.4,2.2,6.6l159.2-639
		c-4.4,0-6.6,2.2-11.1,4.4l-112.7,46.4c-17.7,8.8-33.2,13.3-33.2,15.5c-2.2,0-17.7-4.4-35.4-11.1l-6.6-4.4L252.7,264.1L252.7,264.1z
		"/>
	<path class="st6" d="M254.9,264.1c-17.7-6.6-28.8,2.2-24.3,19.9l150.3,596.9c0,2.2,2.2,4.4,2.2,6.6L542.3,253
		c-4.4,0-6.6,0-11.1,2.2l-112.7,46.4c-17.7,8.8-33.2,13.3-33.2,15.5c-2.2,0-17.7-4.4-35.4-11.1l-6.6-4.4L254.9,264.1L254.9,264.1z"
		/>
	<path class="st7" d="M254.9,264.1c-17.7-6.6-26.5,2.2-22.1,19.9l148.1,596.9c0,2.2,2.2,4.4,2.2,6.6L542.3,253
		c-4.4,0-6.6,0-11.1,2.2l-112.7,48.6c-17.7,6.6-31,13.3-33.2,13.3s-17.7-4.4-33.2-11.1c-2.2,0-8.8-4.4-8.8-4.4L254.9,264.1
		L254.9,264.1z"/>
	<path class="st7" d="M254.9,264.1c-17.7-6.6-26.5,2.2-22.1,19.9l148.1,596.9c2.2,2.2,2.2,4.4,2.2,6.6L542.3,253
		c-4.4,0-6.6,0-11.1,2.2l-112.7,48.6c-17.7,6.6-31,13.3-33.2,13.3s-17.7-4.4-33.2-11.1c-2.2,0-8.8-4.4-8.8-4.4L254.9,264.1
		L254.9,264.1z"/>
	<path class="st8" d="M254.9,266.3c-15.5-8.8-26.5,0-22.1,17.7v2.2l148.1,594.7c2.2,2.2,2.2,4.4,2.2,4.4L542.3,253
		c-4.4,0-6.6,0-11.1,2.2l-112.7,48.6c-17.7,6.6-31,13.3-33.2,13.3s-17.7-4.4-33.2-11.1l-8.8-2.2L254.9,266.3L254.9,266.3z"/>
	<path class="st9" d="M254.9,266.3c-15.5-6.6-26.5,0-22.1,17.7v2.2l148.1,592.5c2.2,2.2,2.2,4.4,2.2,6.6L542.3,253
		c-4.4,0-6.6,2.2-11.1,2.2l-112.7,48.6c-17.7,6.6-31,13.3-33.2,13.3c-2.2,2.2-17.7-4.4-33.2-11.1l-8.8-2.2L254.9,266.3L254.9,266.3z
		"/>
	<path class="st9" d="M254.9,266.3c-15.5-6.6-26.5,0-22.1,17.7v2.2l150.3,592.5v6.6L542.3,253c-4.4,0-6.6,2.2-11.1,2.2l-112.7,48.6
		c-15.5,6.6-31,13.3-33.2,13.3c-2.2,2.2-17.7-4.4-33.2-11.1l-8.8-2.2L254.9,266.3L254.9,266.3z"/>
	<path class="st10" d="M257.1,266.3c-17.7-6.6-26.5,2.2-24.3,17.7v2.2l150.3,592.5c0,2.2,0,4.4,2.2,6.6l157-632.3
		c-4.4,0-6.6,2.2-11.1,4.4l-112.7,46.4c-15.5,6.6-31,13.3-33.2,13.3c-2.2,2.2-17.7-2.2-33.2-11.1l-8.8-2.2L257.1,266.3L257.1,266.3z
		"/>
	<path class="st10" d="M257.1,266.3c-17.7-6.6-26.5,2.2-22.1,17.7c-2.2,2.2,0,2.2,0,2.2l148.1,592.5c0,2.2,0,4.4,2.2,4.4l157-627.9
		c-4.4,0-6.6,0-11.1,2.2l-112.7,46.4c-15.5,6.6-31,13.3-33.2,13.3c-2.2,2.2-17.7-2.2-33.2-8.8l-8.8-4.4L257.1,266.3L257.1,266.3z"/>
	<path class="st11" d="M257.1,266.3c-17.7-6.6-26.5,2.2-22.1,19.9l148.1,590.3c0,2.2,0,4.4,2.2,6.6l157-627.9c-4.4,0-6.6,0-11.1,2.2
		l-112.7,46.4c-15.5,6.6-31,13.3-33.2,15.5c-2.2,0-17.7-4.4-33.2-11.1l-8.8-4.4L257.1,266.3L257.1,266.3z"/>
	<path class="st11" d="M257.1,266.3c-15.5-6.6-26.5,2.2-22.1,19.9v2.2l148.1,588.1c0,2.2,0,4.4,2.2,6.6l154.8-627.9
		c-2.2,0-4.4,0-8.8,2.2L418.6,306c-15.5,6.6-31,11.1-33.2,13.3c-2.2,0-17.7-4.4-33.2-11.1l-8.8-4.4L257.1,266.3L257.1,266.3z"/>
	<path class="st11" d="M257.1,268.5c-15.5-8.8-26.5,0-22.1,17.7v2.2l148.1,588.1c0,2.2,0,4.4,2.2,6.6l154.8-627.9
		c-2.2,0-4.4,0-8.8,2.2L418.6,306c-15.5,6.6-31,11.1-33.2,13.3c-2.2,0-17.7-4.4-33.2-11.1c0,0-6.6-4.4-8.8-4.4L257.1,268.5
		L257.1,268.5z"/>
	<path class="st12" d="M257.1,268.5c-15.5-6.6-26.5,0-22.1,17.7v2.2l148.1,585.9c0,4.4,2.2,4.4,2.2,6.6l154.8-625.7
		c-2.2,0-6.6,0-8.8,2.2L418.6,306c-15.5,6.6-31,13.3-33.2,13.3s-17.7-4.4-33.2-11.1c0,0-6.6-2.2-8.8-4.4L257.1,268.5L257.1,268.5z"
		/>
	<path class="st13" d="M259.3,268.5c-17.7-6.6-26.5,0-24.3,17.7v2.2l148.1,585.9c0,2.2,2.2,4.4,2.2,6.6l154.8-625.7
		c-2.2,0-6.6,2.2-8.8,2.2L418.6,306c-15.5,6.6-31,13.3-33.2,13.3s-15.5-4.4-33.2-11.1l-6.6-2.2L259.3,268.5L259.3,268.5z"/>
	<path class="st14" d="M259.3,268.5c-17.7-6.6-26.5,2.2-24.3,17.7l2.2,2.2l145.9,585.9c0,2.2,2.2,4.4,2.2,6.6l154.8-625.7
		c-2.2,0-6.6,2.2-8.8,2.2L418.6,306c-15.5,6.6-31,13.3-33.2,13.3s-15.5-4.4-33.2-11.1l-6.6-2.2L259.3,268.5L259.3,268.5z"/>
	<path class="st14" d="M259.3,268.5c-17.7-6.6-26.5,2.2-22.1,17.7v2.2l145.9,585.9c0,2.2,2.2,4.4,2.2,4.4l154.8-621.2
		c-2.2,0-6.6,0-8.8,2.2l-112.7,46.4c-15.5,6.6-28.8,13.3-33.2,13.3c-2.2,0-15.5-4.4-31-11.1c-2.2,0-8.8-2.2-8.8-2.2L259.3,268.5
		L259.3,268.5z"/>
	<path class="st14" d="M259.3,268.5c-15.5-6.6-26.5,2.2-22.1,17.7v4.4l145.9,581.5c2.2,4.4,2.2,4.4,2.2,6.6l154.8-621.2
		c-2.2,0-6.6,0-8.8,2.2l-112.7,46.4c-15.5,6.6-28.8,13.3-33.2,13.3c-2.2,2.2-15.5-4.4-31-8.8c-2.2-2.2-8.8-4.4-8.8-4.4L259.3,268.5z
		"/>
	<path class="st15" d="M259.3,270.8c-15.5-8.8-26.5,0-22.1,17.7v2.2l145.9,581.5c2.2,2.2,2.2,4.4,2.2,6.6l154.8-621.3
		c-2.2,0-6.6,0-8.8,2.2l-112.7,46.4c-15.5,6.6-28.8,13.3-33.2,13.3c-2.2,2.2-15.5-2.2-31-8.8c-2.2,0-8.8-4.4-8.8-4.4L259.3,270.8
		L259.3,270.8z"/>
	<path class="st16" d="M259.3,270.8c-15.5-6.6-24.3,0-22.1,17.7v2.2l145.9,581.5c2.2,2.2,2.2,4.4,2.2,6.6l154.8-621.3
		c-2.2,0-6.6,0-8.8,2.2l-112.7,46.4c-15.5,6.6-28.8,13.3-31,13.3c-4.4,2.2-17.7-2.2-33.2-8.8l-8.8-4.4L259.3,270.8L259.3,270.8z"/>
	<path class="st17" d="M261.5,270.8c-17.7-6.6-26.5,0-24.3,17.7v2.2l145.9,581.5c2.2,2.2,2.2,4.4,2.2,4.4l154.8-619.1
		c-2.2,0-6.6,0-8.8,2.2l-112.7,48.6c-15.5,6.6-28.8,11.1-31,11.1c-4.4,2.2-17.7-2.2-33.2-8.8l-8.8-4.4L261.5,270.8L261.5,270.8z"/>
	<path class="st17" d="M261.5,270.8c-17.7-6.6-26.5,2.2-24.3,17.7l2.2,2.2L385.3,870v6.6l154.8-619.1c-2.2,0-6.6,2.2-8.8,2.2
		l-112.7,48.6c-15.5,6.6-28.8,11.1-31,13.3c-4.4,0-17.7-4.4-33.2-11.1c0,0-8.8-2.2-8.8-4.4L261.5,270.8L261.5,270.8z"/>
	<path class="st17" d="M261.5,270.8c-15.5-6.6-26.5,2.2-22.1,17.7v2.2L385.3,870v6.6l154.8-619.1c-2.2,0-6.6,2.2-8.8,2.2
		l-112.7,48.6c-15.5,6.6-28.8,11.1-31,13.3c-4.4,0-17.7-4.4-33.2-11.1l-8.8-2.2L261.5,270.8z"/>
	<path class="st17" d="M261.5,270.8c-15.5-6.6-26.5,2.2-22.1,17.7v2.2L385.3,870c0,2.2,0,4.4,2.2,6.6l152.6-616.9
		c-2.2,0-6.6,0-8.8,2.2l-112.7,46.4c-15.5,6.6-28.8,11.1-31,13.3c-4.4,0-17.7-4.4-33.2-11.1l-8.8-2.2L261.5,270.8L261.5,270.8z"/>
	<path class="st18" d="M261.5,273c-15.5-8.8-26.5,0-22.1,15.5v4.4L385.3,870c0,2.2,0,4.4,2.2,4.4l152.6-614.7c-2.2,0-6.6,0-8.8,2.2
		l-112.7,46.4c-15.5,6.6-28.8,13.3-31,13.3c-4.4,0-17.7-4.4-33.2-11.1c0,0-6.6-2.2-8.8-2.2L261.5,273L261.5,273z"/>
	<path class="st18" d="M261.5,273c-15.5-6.6-24.3,0-22.1,17.7v2.2l145.9,574.8c0,2.2,0,4.4,2.2,6.6l152.6-614.7
		c-2.2,0-6.6,0-8.8,2.2l-112.7,46.4c-13.3,6.6-28.8,13.3-31,13.3s-17.7-4.4-33.2-11.1c0,0-6.6-2.2-8.8-2.2L261.5,273L261.5,273z"/>
	<path class="st19" d="M261.5,273c-15.5-6.6-24.3,0-22.1,17.7v2.2l145.9,574.8c0,2.2,0,4.4,2.2,6.6l152.6-614.7
		c-2.2,0-6.6,0-8.8,2.2l-112.7,46.4c-13.3,6.6-28.8,13.3-31,13.3s-17.7-4.4-33.2-8.8c0,0-6.6-4.4-8.8-4.4L261.5,273L261.5,273z"/>
	<path class="st20" d="M263.7,273c-17.7-6.6-26.5,0-24.3,17.7l2.2,2.2l143.7,574.8c0,2.2,0,4.4,2.2,4.4l152.6-612.4
		c-2.2,0-6.6,0-8.8,2.2l-112.7,46.4c-13.3,6.6-28.8,13.3-31,13.3s-17.7-4.4-33.2-8.8c0,0-6.6-4.4-8.8-4.4L263.7,273L263.7,273z"/>
	<path class="st21" d="M263.7,273c-15.5-6.6-26.5,2.2-22.1,17.7v2.2l143.7,574.8c0,2.2,2.2,4.4,2.2,4.4l152.6-612.4
		c-2.2,0-6.6,2.2-8.8,2.2l-112.7,48.6c-13.3,4.4-28.8,11.1-31,11.1c-2.2,2.2-17.7-2.2-33.2-8.8l-6.6-4.4L263.7,273L263.7,273z"/>
	<path class="st21" d="M263.7,273c-15.5-6.6-26.5,2.2-22.1,17.7v2.2l143.7,572.6c0,2.2,2.2,4.4,2.2,6.6l152.6-612.4
		c-2.2,0-6.6,2.2-8.8,2.2l-112.7,48.6c-13.3,6.6-28.8,11.1-31,11.1c-2.2,2.2-17.7-2.2-31-8.8c-2.2,0-8.8-2.2-8.8-4.4L263.7,273z"/>
	<path class="st21" d="M263.7,275.2c-15.5-8.8-26.5,0-22.1,15.5v4.4l143.7,570.4c0,2.2,2.2,4.4,2.2,6.6l152.6-610.2
		c-2.2,0-6.6,0-8.8,2.2l-110.6,46.4c-15.5,6.6-28.8,11.1-33.2,11.1c-2.2,2.2-17.7-2.2-31-8.8c-2.2,0-8.8-2.2-8.8-2.2L263.7,275.2z"
		/>
	<path class="st22" d="M263.7,275.2c-15.5-6.6-24.3,0-22.1,15.5v4.4l143.7,570.4c2.2,2.2,2.2,4.4,2.2,4.4l152.6-608
		c-2.2,0-6.6,0-8.8,2.2l-110.6,46.4c-15.5,6.6-28.8,11.1-33.2,13.3c-2.2,0-17.7-4.4-31-11.1c-2.2,0-8.8-2.2-8.8-2.2L263.7,275.2
		L263.7,275.2z"/>
	<path class="st23" d="M263.7,275.2c-15.5-6.6-24.3,0-22.1,15.5v4.4l143.7,570.4c2.2,2.2,2.2,2.2,2.2,4.4l152.6-608
		c-2.2,0-6.6,0-8.8,2.2l-110.6,46.4c-15.5,6.6-28.8,11.1-33.2,13.3c-2.2,0-15.5-4.4-31-11.1c-2.2,0-8.8-2.2-8.8-2.2L263.7,275.2
		L263.7,275.2z"/>
	<path class="st23" d="M265.9,275.2c-17.7-6.6-26.5,0-24.3,17.7l2.2,2.2l141.5,568.2c2.2,2.2,2.2,4.4,2.2,6.6l152.6-608
		c-2.2,0-6.6,0-8.8,2.2l-110.6,46.5c-15.5,6.6-28.8,11.1-33.2,13.3c-2.2,0-15.5-4.4-31-11.1c-2.2,0-8.8-2.2-8.8-2.2L265.9,275.2
		L265.9,275.2z"/>
	<path class="st24" d="M265.9,275.2c-15.5-6.6-26.5,2.2-22.1,17.7v2.2l141.5,568.2c2.2,2.2,2.2,4.4,2.2,6.6l152.6-608
		c-2.2,0-6.6,0-8.8,2.2l-110.6,46.5c-15.5,6.6-28.8,11.1-33.2,13.3c-2.2,0-15.5-4.4-31-8.8c0-2.2-8.8-4.4-8.8-4.4L265.9,275.2
		L265.9,275.2z"/>
	<path class="st24" d="M265.9,275.2c-15.5-6.6-26.5,2.2-22.1,17.7v2.2l143.7,568.2v4.4l152.6-605.8c-2.2,0-6.6,2.2-8.8,2.2
		l-110.6,46.5c-15.5,6.6-28.8,13.3-33.2,13.3c-2.2,0-15.5-4.4-31-8.8l-8.8-4.4L265.9,275.2z"/>
	<path class="st24" d="M265.9,277.4c-15.5-8.8-24.3,0-22.1,15.5v4.4l143.7,566v4.4l152.6-605.8c-2.2,0-6.6,2.2-8.8,2.2l-110.6,46.5
		c-15.5,6.6-28.8,13.3-33.2,13.3c-2.2,0-15.5-4.4-31-8.8l-8.8-4.4L265.9,277.4L265.9,277.4z"/>
	<path class="st25" d="M265.9,277.4c-15.5-6.6-24.3,0-22.1,15.5v4.4l143.7,563.8v6.6l152.6-603.6c-4.4-2.2-6.6,0-8.8,0l-110.6,48.7
		c-15.5,4.4-28.8,11.1-31,11.1c-4.4,0-17.7-2.2-33.2-8.8c0,0-6.6-2.2-8.8-4.4L265.9,277.4L265.9,277.4z"/>
	<path class="st26" d="M265.9,277.4c-15.5-6.6-24.3,0-22.1,15.5v4.4l143.7,563.8c0,2.2,0,4.4,2.2,4.4L540,264.1
		c-4.4,0-6.6,0-8.8,2.2l-110.5,46.4c-15.5,4.4-28.8,11.1-31,11.1c-4.4,0-17.7-2.2-33.2-8.8c0,0-6.6-2.2-8.8-4.4L265.9,277.4z"/>
	<path class="st27" d="M268.1,277.4c-15.5-6.6-26.5,0-24.3,15.5c0,2.2,0,2.2,2.2,4.4l141.5,563.8c0,2.2,0,4.4,2.2,4.4L540,264.1
		c-4.4,0-6.6,0-8.8,2.2l-110.5,46.4c-15.5,6.6-28.8,11.1-31,11.1c-4.4,2.2-17.7-2.2-33.2-8.8c0,0-6.6-2.2-8.8-2.2L268.1,277.4
		L268.1,277.4z"/>
	<path class="st27" d="M268.1,277.4c-15.5-6.6-26.5,0-22.1,15.5v4.4l141.5,563.8c0,2.2,0,2.2,2.2,4.4l148.1-601.4
		c-2.2,0-4.4,0-6.6,2.2l-110.5,46.4c-15.5,6.6-28.8,11.1-31,11.1c-4.4,2.2-17.7-2.2-33.2-8.8c0,0-6.6-2.2-8.8-2.2L268.1,277.4
		L268.1,277.4z"/>
	<path class="st28" d="M268.1,277.4c-15.5-6.6-26.5,2.2-22.1,17.7v2.2l141.5,561.6c0,2.2,0,4.4,2.2,6.6l148.1-601.4
		c-2.2,0-4.4,0-6.6,2.2l-110.5,46.5c-15.5,6.6-28.8,11.1-31,11.1c-4.4,2.2-17.7-2.2-31-8.8c-2.2,0-8.8-2.2-11.1-2.2L268.1,277.4
		L268.1,277.4z"/>
	<path class="st28" d="M268.1,277.4c-15.5-6.6-24.3,2.2-22.1,17.7v2.2l141.5,561.6c0,2.2,2.2,4.4,2.2,4.4l148.1-599.2
		c-2.2,0-4.4,2.2-8.8,2.2l-108.3,46.5c-13.3,6.6-28.8,11.1-31,13.3c-4.4,0-17.7-4.4-31-8.8c-2.2-2.2-8.8-4.4-11.1-4.4L268.1,277.4
		L268.1,277.4z"/>
	<path class="st29" d="M268.1,279.6c-15.5-6.6-24.3,0-22.1,15.5v4.4l141.5,559.4c0,2.2,2.2,4.4,2.2,4.4l148.1-599.2
		c-2.2,0-4.4,2.2-8.8,2.2l-108.3,46.5c-13.3,6.6-26.5,11.1-31,13.3c-4.4,0-17.7-4.4-31-8.8c-2.2,0-8.8-4.4-8.8-4.4L268.1,279.6
		L268.1,279.6z"/>
	<path class="st30" d="M268.1,279.6c-15.5-6.6-24.3,0-22.1,15.5v4.4l141.5,559.4c0,2.2,2.2,2.2,2.2,4.4l148.1-599.2
		c-2.2,0-4.4,2.2-8.8,2.2l-108.3,46.5c-13.3,6.6-26.5,11.1-31,13.3c-4.4,0-17.7-4.4-31-8.8c-2.2,0-8.8-4.4-8.8-4.4L268.1,279.6
		L268.1,279.6z"/>
	<path class="st30" d="M270.3,279.6c-15.5-6.6-26.5,0-24.3,15.5c0,2.2,0,2.2,2.2,4.4l139.3,557.2c2.2,2.2,2.2,4.4,2.2,6.6
		l148.1-596.9c-2.2,0-4.4,0-8.8,2.2L420.7,315c-13.3,4.4-26.5,8.8-31,11.1c-4.4,0-17.7-4.4-31-8.8c-2.2,0-8.8-4.4-8.8-4.4
		L270.3,279.6L270.3,279.6z"/>
	<path class="st30" d="M270.3,279.6c-15.5-6.6-26.5,0-22.1,15.5v4.4l139.3,557.2c2.2,2.2,2.2,4.4,2.2,4.4l148.1-594.7
		c-2.2,0-4.4,0-8.8,2.2L420.7,315c-13.3,4.4-26.5,11.1-31,11.1c-4.4,0-17.7-4.4-31-8.8c-2.2,0-8.8-2.2-8.8-4.4L270.3,279.6
		L270.3,279.6z"/>
	<path class="st31" d="M270.3,279.6c-15.5-6.6-24.3,0-22.1,15.5v4.4l139.3,557.2c2.2,2.2,2.2,2.2,2.2,4.4l148.1-594.7
		c-2.2,0-4.4,0-8.8,2.2L420.7,315c-13.3,4.4-26.5,11.1-31,11.1c-4.4,0-17.7-2.2-31-8.8c-2.2,0-8.8-2.2-8.8-2.2L270.3,279.6
		L270.3,279.6z"/>
	<path class="st31" d="M270.3,279.6c-15.5-6.6-24.3,2.2-22.1,17.7v2.2l141.5,557.2v4.4l148.1-594.7c-2.2,0-4.4,0-8.8,2.2L420.7,315
		c-13.3,6.6-26.5,11.1-31,11.1c-4.4,0-17.7-2.2-31-8.8c-2.2,0-8.8-2.2-8.8-2.2L270.3,279.6L270.3,279.6z"/>
	<path class="st32" d="M270.3,281.8c-15.5-6.6-24.3,0-22.1,15.5v4.4l141.5,552.7v6.6l148.1-594.7c-2.2,0-4.4,2.2-8.8,2.2L420.7,315
		c-13.3,6.6-26.5,11.1-31,11.1c-4.4,0-17.7-2.2-31-8.8l-8.8-2.2L270.3,281.8L270.3,281.8z"/>
	<path class="st32" d="M270.3,281.8c-15.5-6.6-24.3,0-22.1,15.5v4.4l141.5,552.7v4.4l148.1-592.5c-2.2,0-4.4,2.2-8.8,2.2L420.7,315
		c-13.3,6.6-26.5,11.1-31,11.1c-4.4,2.2-15.5-2.2-31-8.8c0,0-6.6-2.2-8.8-2.2L270.3,281.8L270.3,281.8z"/>
	<path class="st33" d="M272.5,281.8c-15.5-6.6-26.5,0-24.3,15.5c0,0,0,2.2,2.2,4.4l139.3,552.7v4.4l148.1-592.5
		c-2.2,0-4.4,2.2-8.8,2.2L420.7,315c-13.3,6.6-26.5,11.1-31,11.1c-2.2,2.2-15.5-2.2-31-6.6c0-2.2-6.6-4.4-8.8-4.4L272.5,281.8
		L272.5,281.8z"/>
	<path class="st33" d="M272.5,281.8c-15.5-6.6-26.5,0-22.1,15.5c-2.2,2.2,0,2.2,0,4.4l139.3,552.7v4.4l148.2-590.3h-8.8L420.7,315
		c-13.3,6.6-26.5,11.1-31,11.1c-2.2,2.2-15.5-2.2-31-6.6c0,0-6.6-4.4-8.8-4.4L272.5,281.8L272.5,281.8z"/>
	<path class="st33" d="M272.5,281.8c-15.5-6.6-24.3,0-22.1,15.5v4.4l139.3,550.5c0,2.2,0,4.4,2.2,4.4l146-588.1
		c-2.2,0-4.4,0-8.8,2.2L420.7,315c-13.3,6.6-26.5,11.1-31,13.3c-2.2,0-15.5-4.4-31-8.8c0,0-6.6-4.4-8.8-4.4L272.5,281.8L272.5,281.8
		z"/>
	<path class="st34" d="M272.5,281.8c-15.5-6.6-24.3,2.2-22.1,15.5v4.4l139.3,550.5c0,2.2,0,4.4,2.2,4.4l146-588.1
		c-2.2,0-4.4,0-8.8,2.2l-108.4,46.5c-13.3,4.4-26.5,8.8-31,11.1c-2.2,0-15.5-4.4-28.8-8.8c-2.2,0-8.8-2.2-11.1-4.4L272.5,281.8
		L272.5,281.8z"/>
	<path class="st34" d="M272.5,284c-15.5-6.6-24.3,0-22.1,13.3v4.4l139.3,550.5c0,2.2,0,2.2,2.2,4.4l146-588.1c-2.2,0-4.4,0-8.8,2.2
		l-108.4,46.5c-13.3,4.4-26.5,8.8-28.8,11.1c-4.4,0-17.7-4.4-31-8.8c-2.2,0-8.8-2.2-11.1-4.4L272.5,284L272.5,284z"/>
	<path class="st34" d="M272.5,284c-13.2-6.6-24.3,0-22.1,15.5v4.4l139.3,548.3c0,0,2.2,2.2,2.2,4.4l146-588.1
		c-2.2,0-4.4,2.2-8.8,2.2l-108.4,46.5c-13.3,4.4-24.3,11.1-28.8,11.1c-4.4,0-17.7-2.2-31-8.8c-2.2,0-8.8-2.2-11.1-2.2L272.5,284
		L272.5,284z"/>
	<path class="st35" d="M274.8,284c-15.5-6.6-26.5,0-24.3,15.5c0,0,0,2.2,2.2,4.4L389.8,850c0,2.2,2.2,4.4,2.2,4.4l145.9-585.9
		c-2.2,0-4.4,2.2-8.8,2.2l-108.4,46.5c-13.3,4.4-24.3,11.1-28.8,11.1c-4.4,0-17.7-2.2-31-8.8c-2.2,0-8.8-2.2-8.8-2.2L274.8,284
		L274.8,284z"/>
	<path class="st35" d="M274.8,284c-15.5-6.6-24.3,0-22.1,15.5c-2.2,0,0,2.2,0,4.4L389.8,850c0,2.2,2.2,4.4,2.2,4.4l145.9-585.9
		c-2.2,0-4.4,2.2-8.8,2.2l-108.4,46.5c-13.3,6.6-24.3,11.1-28.8,11.1c-4.4,0-17.7-2.2-31-8.8c-2.2,0-8.8-2.2-8.8-2.2L274.8,284
		L274.8,284z"/>
	<path class="st35" d="M274.8,284c-15.5-6.6-24.3,0-22.1,15.5v4.4L389.8,850c2.2,2.2,2.2,2.2,2.2,4.4l145.9-583.7h-8.8l-108.4,46.5
		c-13.3,6.6-24.3,11.1-28.8,11.1c-4.4,0-17.7-2.2-31-6.6c-2.2-2.2-8.8-4.4-8.8-4.4L274.8,284L274.8,284z"/>
	<path class="st36" d="M274.8,284c-15.5-6.6-24.3,0-22.1,15.5v4.4L389.8,850c2.2,0,2.2,2.2,2.2,4.4l145.9-583.7
		c-2.2,0-6.6,0-8.8,2.2l-108.4,44.3c-11.1,6.6-24.3,11.1-28.8,11.1c-4.4,0-17.7-2.2-31-6.6c-2.2,0-8.8-4.4-8.8-4.4L274.8,284
		L274.8,284z"/>
	<path class="st36" d="M274.8,286.2c-15.5-6.6-24.3,0-22.1,13.3v4.4l137.1,543.9c2.2,2.2,2.2,4.4,2.2,4.4l145.9-581.5
		c-2.2,0-6.6,0-8.8,2.2l-108.4,44.3c-11.1,6.6-24.3,11.1-28.8,11.1c-4.4,2.2-17.7-2.2-31-6.6c-2.2,0-8.8-4.4-8.8-4.4L274.8,286.2
		L274.8,286.2z"/>
	<path class="st37" d="M274.8,286.2c-13.3-6.6-24.3,0-22.1,13.3v6.6L392,847.8v4.4l145.9-581.5c-2.2,0-6.6,0-8.8,2.2l-108.4,46.5
		c-11.1,4.4-24.3,8.8-28.8,8.8c-4.4,2.2-17.7-2.2-31-6.6c-2.2,0-8.8-2.2-8.8-4.4L274.8,286.2L274.8,286.2z"/>
	<path class="st37" d="M277,286.2c-15.5-6.6-26.5,0-24.3,13.3c0,2.2,0,4.4,2.2,6.6L392,847.8v4.4l145.9-581.5c-2.2,0-6.6,0-8.8,2.2
		l-108.4,46.5c-11.1,4.4-24.3,8.8-28.8,8.8c-4.4,2.2-17.7-2.2-31-6.6c-2.2,0-6.6-2.2-8.8-4.4L277,286.2L277,286.2z"/>
	<path class="st38" d="M277,286.2c-15.5-6.6-24.3,0-22.1,15.5c-2.2,0,0,2.2,0,4.4L392,847.8v2.2l145.9-579.3c-2.2,0-6.6,2.2-8.8,2.2
		L423,319.3c-13.2,4.4-26.5,8.8-31,11.1c-4.4,0-17.7-4.4-31-8.8c0,0-6.6-2.2-8.8-2.2L277,286.2L277,286.2z"/>
	<path class="st39" d="M277,286.2c-15.5-6.6-24.3,0-22.1,15.5v4.4L392,845.6v4.4l145.9-579.3c-2.2,0-6.6,2.2-8.8,2.2L423,319.3
		c-13.2,4.4-26.5,8.8-31,11.1c-4.4,0-17.7-4.4-31-8.8c0,0-6.6-2.2-8.8-2.2L277,286.2L277,286.2z"/>
	<path class="st39" d="M277,286.2c-15.5-6.6-24.3,0-22.1,15.5v4.4L392,845.6v4.4l145.9-577.1h-8.8L423,319.3
		c-13.2,4.4-26.5,8.8-31,11.1c-4.4,0-17.7-2.2-31-8.8c0,0-6.6-2.2-8.8-2.2L277,286.2L277,286.2z"/>
	<path class="st40" d="M277,286.2c-15.5-4.4-24.3,2.2-22.1,15.5v4.4L392,845.6v4.4l145.9-577.1c-2.2,0-6.6,0-8.8,2.2L423,319.3
		c-13.2,6.6-26.5,11.1-31,11.1c-4.4,0-17.7-2.2-28.7-8.8c-2.2,0-8.8-2.2-11.1-2.2L277,286.2L277,286.2z"/>
	<path class="st40" d="M277,288.4c-13.3-6.6-24.3,0-22.1,13.3v6.6L392,845.6c0,0,0,2.2,2.2,2.2L537.9,273c-2.2,0-6.6,0-8.8,2.2
		L423,319.4c-13.2,6.6-26.5,11.1-31,11.1c-4.4,0-15.5-2.2-28.7-6.6c-2.2-2.2-8.8-4.4-11.1-4.4L277,288.4L277,288.4z"/>
	<path class="st40" d="M279.2,288.4c-15.5-6.6-24.3,0-24.3,13.3c0,2.2,0,4.4,2.2,6.6l134.9,535c0,2.2,0,4.4,2.2,4.4L535.7,273
		c0,0-4.4,0-6.6,2.2L423,319.4c-13.2,6.6-26.5,11.1-31,11.1c-4.4,0-15.5-2.2-28.7-6.6c-2.2,0-8.8-4.4-11.1-4.4L279.2,288.4
		L279.2,288.4z"/>
	<path class="st41" d="M279.2,288.4c-15.5-6.6-24.3,0-22.1,13.3c-2.2,2.2,0,4.4,0,6.6l134.9,535c0,2.2,0,2.2,2.2,4.4L535.7,273
		c0,0-4.4,0-6.6,2.2L423,319.4c-13.2,6.6-24.3,11.1-31,11.1c-4.4,0-15.5-2.2-28.7-6.6c-2.2,0-8.8-2.2-11.1-4.4L279.2,288.4
		L279.2,288.4z"/>
	<path class="st41" d="M279.2,288.4c-15.5-6.6-24.3,0-22.1,15.5v4.4l134.9,535c0,0,2.2,2.2,2.2,4.4L535.7,273c0,0-4.4,2.2-6.6,2.2
		L423,321.6c-13.2,4.4-24.3,8.8-31,8.8c-4.4,2.2-15.5-2.2-28.7-6.6c-2.2,0-8.8-2.2-11.1-4.4L279.2,288.4L279.2,288.4z"/>
	<path class="st42" d="M279.2,288.4c-15.5-6.6-24.3,0-22.1,15.5v4.4l134.9,535l2.2,2.2L535.7,273c0,0-4.4,2.2-6.6,2.2L423,321.6
		c-13.2,4.4-24.3,8.8-31,8.8c-4.4,2.2-15.5-2.2-28.7-6.6c-2.2,0-8.8-2.2-8.8-2.2L279.2,288.4L279.2,288.4z"/>
	<path class="st42" d="M279.2,288.4c-13.2-4.4-24.3,0-22.1,15.5v4.4L392,841.1c2.2,2.2,2.2,4.4,2.2,4.4l141.5-570.3h-6.6L423,321.6
		c-13.2,4.4-24.3,8.8-28.7,8.8c-6.6,2.2-17.7-2.2-31-6.6c-2.2,0-8.8-2.2-8.8-2.2L279.2,288.4L279.2,288.4z"/>
	<path class="st42" d="M279.2,290.7c-13.2-6.6-24.3,0-22.1,13.3v4.4L392,841.2c2.2,2.2,2.2,2.2,2.2,4.4l141.5-570.4h-6.6L423,321.6
		c-13.2,4.4-24.3,8.8-28.7,8.8c-6.6,2.2-17.7-2.2-31-6.6c-2.2,0-8.8-2.2-8.8-2.2L279.2,290.7L279.2,290.7z"/>
	<path class="st43" d="M281.4,290.7c-15.4-6.6-24.3,0-24.3,13.3c0,2.2,0,4.4,2.2,6.6l132.6,530.6c2.2,0,2.2,2.2,2.2,2.2l141.6-568.2
		c-2.2,0-4.4,0-6.6,2.2L423,321.6c-13.2,4.4-24.3,8.8-28.7,11.1c-6.6,0-17.7-2.2-31-8.8c-2.2,0-8.8-2.2-8.8-2.2L281.4,290.7
		L281.4,290.7z"/>
	<path class="st44" d="M281.4,290.7c-15.4-6.6-24.3,0-24.3,13.3c0,2.2,2.2,4.4,2.2,6.6l134.9,530.6v2.2l141.5-568.2
		c-2.2,0-4.4,0-6.6,2.2L423,321.6c-13.2,4.4-24.3,8.8-28.7,11.1c-6.6,0-17.7-2.2-31-6.6c-2.2-2.2-6.6-4.4-8.8-4.4L281.4,290.7
		L281.4,290.7z"/>
	<path class="st45" d="M281.4,290.7c-15.4-6.6-24.3,0-22.1,13.3v6.6L394.2,839v4.4l141.5-568.2c-2.2,0-4.4,0-6.6,2.2L423,321.6
		c-13.2,6.6-24.3,8.8-28.7,11.1c-6.6,0-17.7-2.2-31-6.6c-2.2,0-6.6-4.4-8.8-4.4L281.4,290.7L281.4,290.7z"/>
	<path class="st46" d="M281.4,290.7c-15.4-6.6-24.3,0-22.1,13.3v6.6L394.2,839v4.4l141.5-568.2c-2.2,0-4.4,2.2-6.6,2.2L423,321.6
		c-11.1,6.6-24.3,11.1-28.7,11.1c-4.4,0-17.7-2.2-31-6.6c-2.2,0-6.6-2.2-8.8-4.4L281.4,290.7L281.4,290.7z"/>
	<path class="st46" d="M281.4,290.7c-13.2-4.4-24.3,0-22.1,15.5v4.4L394.2,839v2.2l141.5-566c-2.2,0-4.4,2.2-6.6,2.2L423,323.8
		c-11.1,4.4-24.3,8.8-28.7,8.8c-4.4,0-17.7-2.2-28.8-6.6c-2.2,0-8.8-2.2-11.1-4.4L281.4,290.7L281.4,290.7z"/>
	<path class="st47" d="M281.4,292.9c-13.2-6.6-24.3-2.2-22.1,13.3v4.4L394.2,839v2.2l141.5-563.8h-6.6L423,323.8
		c-11.1,4.4-24.3,8.8-28.7,8.8c-4.4,0-17.7-2.2-28.8-6.6c-2.2,0-8.8-2.2-11.1-4.4L281.4,292.9L281.4,292.9z"/>
	<path class="st47" d="M283.6,292.9c-15.5-6.6-24.3,0-24.3,13.3c0,2.2,0,4.4,2.2,6.6l132.7,524v4.4l141.5-563.8h-6.6L423,323.8
		c-11.1,4.4-24.3,8.8-28.7,8.8c-4.4,0-17.7-2.2-28.8-6.6c-2.2,0-8.8-2.2-11.1-2.2L283.6,292.9L283.6,292.9z"/>
	<path class="st47" d="M283.6,292.9c-15.5-6.6-24.3,0-24.3,13.3c0,2.2,0,4.4,2.2,6.6l132.7,524v4.4l141.5-563.8
		c-2.2,0-4.4,0-6.6,2.2L423,323.8c-11.1,4.4-24.3,8.8-28.7,8.8c-4.4,2.2-17.7-2.2-28.8-6.6c-2.2,0-8.8-2.2-11.1-2.2L283.6,292.9
		L283.6,292.9z"/>
	<path class="st48" d="M283.6,292.9c-15.5-6.6-24.3,0-22.1,13.3v6.6l132.7,524c0,0,0,2.2,2.2,2.2l139.3-561.6c-2.2,0-4.4,0-6.6,2.2
		L423,323.8c-11.1,4.4-22.1,8.8-28.7,8.8c-4.4,2.2-17.7-2.2-28.8-6.6c-2.2,0-8.8-2.2-11.1-2.2L283.6,292.9L283.6,292.9z"/>
	<path class="st48" d="M283.6,292.9c-15.5-6.6-24.3,0-22.1,13.3v6.6l132.7,524c0,0,0,2.2,2.2,2.2l139.3-561.6c-2.2,0-4.4,0-6.6,2.2
		L423,323.8c-11.1,4.4-22.1,8.8-28.7,8.8c-4.4,2.2-17.7-2.2-28.8-4.4c-2.2-2.2-8.8-4.4-11.1-4.4L283.6,292.9L283.6,292.9z"/>
	<path class="st49" d="M283.6,292.9c-13.3-4.4-24.3,0-22.1,13.3v6.6l132.7,521.8c0,2.2,2.2,2.2,2.2,4.4l139.3-561.6
		c-2.2,0-4.4,2.2-6.6,2.2L423,323.8c-11.1,4.4-22.1,8.8-28.7,11.1c-4.4,0-17.7-2.2-28.8-6.6c-2.2-2.2-8.8-4.4-11.1-4.4L283.6,292.9
		L283.6,292.9z"/>
	<path class="st49" d="M283.6,295.1c-13.3-6.6-22.1-2.2-22.1,11.1v6.6l132.7,521.8c0,2.2,2.2,2.2,2.2,2.2l139.3-559.4
		c-2.2,0-4.4,2.2-6.6,2.2L423,323.8c-11.1,6.6-22.1,8.8-28.7,11.1c-4.4,0-15.5-2.2-28.8-6.6c-2.2,0-8.8-2.2-11.1-4.4L283.6,295.1
		L283.6,295.1z"/>
	<path class="st49" d="M285.8,295.1c-15.5-6.6-24.3,0-24.3,13.3c0,0,0,2.2,2.2,6.6l130.5,519.6c2.2,0,2.2,2.2,2.2,2.2l139.3-559.4
		c-2.2,0-4.4,2.2-6.6,2.2L423,323.8c-11.1,6.6-22.1,8.8-28.7,11.1c-4.4,0-15.5-2.2-28.8-6.6c-2.2,0-8.8-2.2-8.8-4.4L285.8,295.1z"/>
	<path class="st50" d="M285.8,295.1c-15.5-6.6-24.3,0-24.3,13.3c0,2.2,0,4.4,2.2,6.6l130.5,519.6c2.2,0,2.2,2.2,2.2,2.2l139.3-557.2
		h-6.6L423,326c-11.1,4.4-22.1,8.8-28.7,8.8c-4.4,0-15.5-2.2-28.8-6.6c-2.2,0-6.6-2.2-8.8-4.4L285.8,295.1z"/>
	<path class="st50" d="M285.8,295.1c-15.5-6.6-24.3,0-22.1,13.3v6.6l132.7,517.4v4.4l139.3-557.2h-6.6L423,326
		c-11.1,4.4-22.1,8.8-28.7,8.8c-4.4,0-15.5-2.2-28.8-6.6c-2.2,0-6.6-2.2-8.8-2.2L285.8,295.1L285.8,295.1z"/>
	<path class="st51" d="M285.8,295.1c-13.3-6.6-24.3,0-22.1,13.3v6.6l132.7,517.4v2.2l139.3-555c-2.2,0-4.4,0-6.6,2.2L423,326
		c-11.1,4.4-22.1,8.8-28.7,8.8c-4.4,0-15.5-2.2-28.8-6.6c-2.2,0-6.6-2.2-8.8-2.2L285.8,295.1L285.8,295.1z"/>
	<path class="st51" d="M285.8,295.1c-13.3-4.4-24.3,0-22.1,13.3v6.6l132.7,517.4v2.2l139.3-555c-2.2,0-4.4,0-6.6,2.2L423,326
		c-11.1,4.4-22.1,8.8-26.5,8.8c-6.6,0-17.7-2.2-31-6.6c-2.2,0-6.6-2.2-8.8-2.2L285.8,295.1L285.8,295.1z"/>
	<path class="st51" d="M285.8,295.1c-13.3-4.4-22.1,0-22.1,13.3v6.6l132.7,515.2v4.4l139.3-555c-2.2,0-4.4,2.2-6.6,2.2L423,326
		c-11.1,4.4-22.1,8.8-26.5,8.8c-6.6,0-17.7-2.2-28.8-6.6c-4.4,0-8.8-2.2-11.1-2.2L285.8,295.1z"/>
	<path class="st52" d="M288,297.3c-15.5-6.6-24.3-2.2-24.3,11.1c0,2.2,0,4.4,2.2,6.6l130.4,515.2v4.4l139.3-555
		c-2.2,0-4.4,2.2-6.6,2.2L422.9,326c-11.1,4.4-22.1,8.8-26.5,8.8c-6.6,2.2-17.7-2.2-28.8-4.4c-2.2-2.2-8.8-4.4-11.1-4.4L288,297.3
		L288,297.3z"/>
	<path class="st52" d="M288,297.3c-15.5-6.6-24.3,0-24.3,13.3c0,0,0,4.4,2.2,6.6l130.4,512.9v2.2l139.4-552.7
		c-2.2,0-4.4,2.2-6.6,2.2L423,326c-11.1,4.4-22.1,8.8-26.5,8.8c-6.6,2.2-17.7,0-28.8-4.4c-2.2-2.2-8.8-2.2-11.1-4.4L288,297.3
		L288,297.3z"/>
	<path class="st53" d="M288,297.3c-15.5-6.6-24.3,0-22.1,13.3c-2.2,0,0,4.4,0,6.6l130.4,512.9v2.2l139.4-550.5h-6.6L423,326
		c-8.8,6.6-22.1,8.8-26.5,8.8c-6.6,2.2-17.7,0-28.8-4.4c-2.2,0-8.8-2.2-11.1-4.4L288,297.3L288,297.3z"/>
	<path class="st53" d="M288,297.3c-13.2-6.6-24.3,0-22.1,13.3v6.6l130.4,510.7v4.4l139.4-550.5h-6.6L423,328.2
		c-8.8,4.4-22.1,6.6-26.5,8.8c-6.6,0-17.7-2.2-28.8-6.6c-2.2,0-8.8-2.2-11.1-4.4L288,297.3L288,297.3z"/>
	<path class="st53" d="M288,297.3c-13.2-4.4-22.1,0-22.1,13.3v6.6l130.4,510.7c0,2.2,0,2.2,2.2,4.4l137.2-550.5
		c-2.2,0-4.4,0-6.6,2.2L423,328.2c-8.8,4.4-19.9,6.6-26.5,8.8c-6.6,0-17.7-2.2-28.8-6.6c-2.2,0-8.8-2.2-11.1-4.4L288,297.3
		L288,297.3z"/>
	<path class="st54" d="M288,297.3c-13.2-4.4-22.1,0-22.1,13.3v6.6l130.4,510.7c0,0,0,2.2,2.2,2.2l134.9-548.3c0,0-2.2,0-4.4,2.2
		l-103.9,44.2c-11.1,4.4-22.1,6.6-28.8,8.8c-6.6,0-17.7-2.2-28.8-6.6c-2.2,0-8.8-2.2-11.1-2.2L288,297.3L288,297.3z"/>
	<path class="st54" d="M290.2,299.5c-15.4-6.6-24.3-2.2-24.3,11.1c0,2.2,0,4.4,2.2,6.6l128.2,510.7l2.2,2.2l134.9-548.3
		c0,0-2.2,2.2-4.4,2.2l-103.9,44.2c-11.1,4.4-22.1,8.8-28.8,8.8c-6.6,0-17.7-2.2-28.8-6.6c-2.2,0-8.8-2.2-11.1-2.2L290.2,299.5
		L290.2,299.5z"/>
	<path class="st55" d="M290.2,299.5c-15.4-6.6-24.3,0-24.3,11.1c0,2.2,0,4.4,2.2,8.8l128.2,506.3c0,2.2,2.2,2.2,2.2,4.4l134.9-548.3
		c0,0-2.2,2.2-4.4,2.2l-103.9,44.2c-11.1,4.4-22.1,8.8-28.8,8.8c-6.6,0-17.7-2.2-28.8-6.6c-2.2,0-8.8-2.2-11.1-2.2L290.2,299.5
		L290.2,299.5z"/>
	<path class="st55" d="M290.2,299.5c-15.4-6.6-24.3,0-22.1,11.1c-2.2,2.2,0,6.6,0,8.8l128.2,506.3l2.2,2.2l134.9-546.1
		c0,0-2.2,2.2-4.4,2.2l-103.9,44.2c-11.1,4.4-22.1,8.8-28.8,8.8c-6.6,0-17.7-2.2-28.8-4.4c-2.2-2.2-6.6-4.4-8.8-4.4L290.2,299.5
		L290.2,299.5z"/>
	<path class="st55" d="M290.2,299.5c-13.2-6.6-24.3,0-22.1,13.3v6.6l128.2,506.3c2.2,0,2.2,2.2,2.2,2.2L533.4,284H529l-103.9,44.2
		c-11.1,4.4-22.1,8.8-28.8,8.8c-6.6,0-17.7-2.2-28.8-4.4c-2.2-2.2-6.6-2.2-8.8-4.4L290.2,299.5L290.2,299.5z"/>
	<path class="st56" d="M290.2,299.5c-13.2-4.4-22.1,0-22.1,13.3v6.6l130.4,506.3v2.2L533.4,284H529l-103.9,44.2
		c-11.1,4.4-22.1,8.8-28.8,8.8c-6.6,0-17.7-2.2-28.8-4.4c-2.2,0-6.6-2.2-8.8-4.4L290.2,299.5L290.2,299.5z"/>
	<path class="st56" d="M290.2,299.5c-13.2-4.4-22.1,0-22.1,13.3v6.6l130.4,504.1v4.4L533.4,284c0,0-2.2,0-4.4,2.2l-103.9,42
		c-11.1,4.4-22.1,8.8-28.8,8.8c-4.4,2.2-15.5,0-28.8-4.4c-2.2,0-6.6-2.2-8.8-4.4L290.2,299.5L290.2,299.5z"/>
	<path class="st56" d="M292.5,301.7c-15.5-6.6-24.3-2.2-24.3,11.1c0,2.2,0,4.4,2.2,6.6l128.2,504.1v2.2L533.5,284c0,0-2.2,0-4.4,2.2
		l-103.9,44.2c-11.1,4.4-22.1,6.6-28.8,6.6c-4.4,2.2-15.5,0-26.5-4.4c-4.4,0-8.9-2.2-11.1-4.4L292.5,301.7L292.5,301.7z"/>
	<path class="st57" d="M292.5,301.7c-15.5-6.6-24.3-2.2-24.3,11.1c0,2.2,0,4.4,2.2,8.8l128.2,501.9v2.2L533.5,284l-4.4,2.2
		l-103.9,44.2c-11.1,4.4-22.1,6.6-28.8,6.6c-4.4,2.2-15.5,0-26.5-4.4c-4.4,0-8.9-2.2-11.1-2.2L292.5,301.7L292.5,301.7z"/>
	<path class="st57" d="M292.5,301.7c-13.3-6.6-24.3,0-22.1,11.1c-2.2,2.2,0,4.4,0,8.8l128.2,501.9v2.2L533.5,284l-4.4,2.2
		l-103.9,44.2c-11.1,4.4-22.1,6.6-28.8,8.8c-4.4,0-15.5-2.2-26.5-6.6c-4.4,0-8.9-2.2-11.1-2.2L292.5,301.7L292.5,301.7z"/>
	<path class="st58" d="M292.5,301.7c-13.3-6.6-22.1,0-22.1,11.1v8.8l128.2,499.7v4.4L533.5,284l-4.4,2.2l-104,44.3
		c-11.1,4.4-22.1,6.6-28.8,8.8c-4.4,0-15.5-2.2-26.5-6.6c-2.2,0-8.9-2.2-11.1-2.2L292.5,301.7L292.5,301.7z"/>
	<path class="st58" d="M292.5,301.7c-13.3-4.4-22.1,0-22.1,11.1v8.8l128.2,499.7v2.2l134.9-537.3h-4.4l-104,44.3
		c-11.1,4.4-22.1,6.6-26.5,8.8c-6.6,0-17.7-2.2-28.7-4.4c-2.2-2.2-8.9-4.4-11.1-4.4L292.5,301.7L292.5,301.7z"/>
	<path class="st59" d="M292.5,301.7c-13.3-4.4-22.1,0-22.1,13.3v6.6l128.2,499.7v2.2l134.9-537.3h-4.4l-103.9,44.2
		c-11.1,4.4-19.9,8.8-26.5,8.8S381,337,370,334.8c-2.2-2.2-8.9-2.2-11.1-4.4L292.5,301.7L292.5,301.7z"/>
	<path class="st60" d="M294.7,303.9c-15.5-6.6-24.3-2.2-24.3,11.1c0,2.2,0,4.4,2.2,6.6l126,499.7v2.2l134.9-537.3h-4.4l-103.9,44.2
		c-11.1,4.4-19.9,8.8-26.5,8.8S381,337,370,334.8c-2.2-2.2-8.9-2.2-11.1-4.4L294.7,303.9L294.7,303.9z"/>
	<path class="st60" d="M294.7,303.9c-15.5-6.6-24.3-2.2-24.3,11.1c0,2.2,0,4.4,2.2,6.6l126,497.5c0,2.2,0,2.2,2.2,2.2l132.6-535
		c0,0-4.4,0-4.4,2.2l-103.9,42c-11.1,4.4-19.9,8.8-26.5,8.8s-17.7-2.2-28.7-4.4c-2.2,0-8.9-2.2-11.1-4.4L294.7,303.9L294.7,303.9z"
		/>
	<path class="st61" d="M294.7,303.9c-13.3-6.6-24.3-2.2-22.1,11.1c-2.2,2.2,0,4.4,0,8.8l126,495.3c0,2.2,0,2.2,2.2,2.2l132.6-535
		c-2.2,0-4.4,2.2-4.4,2.2l-103.9,44.2c-8.9,2.2-19.9,6.6-26.5,6.6s-17.7-2.2-28.7-4.4c-2.2,0-8.9-2.2-11.1-4.4L294.7,303.9
		L294.7,303.9z"/>
	<path class="st61" d="M294.7,303.9c-13.3-6.6-22.1,0-22.1,11.1v8.8l126,495.3l2.2,2.2l132.6-535c-2.2,0-4.4,2.2-4.4,2.2
		l-103.9,44.2c-8.9,4.4-19.9,6.6-26.5,6.6s-17.7,0-28.7-4.4c-2.2,0-6.6-2.2-11.1-2.2L294.7,303.9L294.7,303.9z"/>
	<path class="st61" d="M294.7,303.9c-13.3-6.6-22.1,0-22.1,11.1v8.8l126,495.3c2.2,0,2.2,0,2.2,2.2l132.6-535
		c-2.2,0-4.4,2.2-4.4,2.2l-103.9,44.2c-8.9,4.4-19.9,6.6-26.5,6.6c-6.6,2.2-17.7,0-28.7-4.4c-2.2,0-6.6-2.2-11.1-2.2L294.7,303.9
		L294.7,303.9z"/>
	<path class="st62" d="M294.7,303.9c-13.3-4.4-22.1,0-22.1,11.1v8.8l126,493l2.2,2.2l132.6-530.6H529l-103.9,44.2
		c-8.9,4.4-19.9,6.6-26.5,6.6c-6.6,2.2-17.7,0-28.7-4.4c-2.2,0-6.6-2.2-8.9-2.2L294.7,303.9L294.7,303.9z"/>
	<path class="st62" d="M296.9,303.9c-15.5-4.4-24.3,0-24.3,13.3c0,2.2,0,4.4,2.2,6.6l126,493v2.2l132.6-530.6H529l-103.9,44.2
		c-8.9,4.4-19.9,6.6-26.5,6.6c-6.6,2.2-17.7,0-26.5-4.4c-4.4,0-8.8-2.2-11.1-2.2L296.9,303.9L296.9,303.9z"/>
	<path class="st63" d="M296.9,306.1c-15.5-6.6-24.3-2.2-24.3,11.1c0,2.2,0,4.4,2.2,6.6l126,493v2.2l132.6-530.6H529l-103.9,44.2
		c-8.9,4.4-19.9,6.6-26.5,8.8c-6.6,0-17.7-2.2-26.5-4.4c-4.4-2.2-8.8-4.4-11.1-4.4L296.9,306.1L296.9,306.1z"/>
	<path class="st63" d="M296.9,306.1c-13.2-6.6-24.3-2.2-22.1,11.1c-2.2,2.2-2.2,4.4,0,8.8l126,490.8v2.2l132.6-530.6
		c-2.2,0-4.4,0-4.4,2.2l-103.9,42c-8.9,4.4-19.9,6.6-26.5,8.8c-6.6,0-17.7-2.2-26.5-4.4c-4.4-2.2-8.8-2.2-11.1-4.4L296.9,306.1
		L296.9,306.1z"/>
	<path class="st63" d="M296.9,306.1c-13.2-6.6-22.1,0-22.1,11.1v8.8l126,488.6v2.2l132.6-528.4c-2.2,0-4.4,0-4.4,2.2l-103.9,42
		c-8.9,4.4-19.9,6.6-26.5,8.8c-6.6,0-17.7-2.2-26.5-4.4c-4.1-0.1-8-1.7-11.1-4.4L296.9,306.1L296.9,306.1z"/>
	<path class="st64" d="M296.9,306.1c-13.2-6.6-22.1,0-22.1,11.1v8.8l126,488.6v2.2l132.6-528.4c-2.2,0-4.4,2.2-4.4,2.2l-103.9,42
		c-8.9,4.4-19.9,8.8-26.5,8.8s-17.7-2.2-26.5-4.4c-4.1-0.1-8-1.7-11.1-4.4L296.9,306.1L296.9,306.1z"/>
	<path class="st64" d="M296.9,306.1c-13.2-4.4-22.1,0-22.1,11.1v8.8l126,488.6v2.2l132.6-528.4c-2.2,0-4.4,2.2-4.4,2.2l-103.9,44.2
		c-8.9,2.2-19.9,6.6-26.5,6.6s-17.7-2.2-26.5-4.4c-4.1-0.1-8-1.7-11.1-4.4L296.9,306.1L296.9,306.1z"/>
	<path class="st65" d="M299.1,306.1c-15.5-4.4-24.3,0-24.3,11.1c0,2.2,0,6.6,2.2,8.8l123.8,488.6l132.6-524H529l-103.9,44.2
		c-8.9,2.2-17.7,6.6-26.5,6.6c-6.6,0-15.5,0-26.5-4.4c-2.2,0-8.8-2.2-11.1-2.2L299.1,306.1L299.1,306.1z"/>
	<path class="st66" d="M299.1,308.4c-13.3-6.6-24.3-2.2-24.3,8.8c0,2.2,0,6.6,2.2,8.8l123.8,486.4v2.2l132.6-524H529l-103.9,44.2
		c-8.9,4.4-17.7,6.6-26.5,6.6c-6.6,0-15.5,0-26.5-4.4c-2.2,0-8.8-2.2-11.1-2.2L299.1,308.4L299.1,308.4z"/>
	<path class="st66" d="M299.1,308.4c-13.3-6.6-22.1-2.2-22.1,11.1c-2.2,2.2-2.2,4.4,0,8.8l123.8,484.2v2.2l132.6-524H529
		l-103.9,44.2c-8.9,4.4-17.7,6.6-26.5,6.6c-6.6,0-15.5,0-26.5-4.4c-2.2,0-8.8-2.2-11.1-2.2L299.1,308.4L299.1,308.4z"/>
	<path class="st67" d="M299.1,308.4c-13.3-6.6-22.1-2.2-22.1,11.1v8.8l123.8,484.2v2.2l130.4-524c0,0-2.2,0-2.2,2.2l-103.9,42
		c-8.9,4.4-17.7,6.6-26.5,6.6c-6.6,2.2-15.5,0-26.5-2.2c-2.2-2.2-8.8-4.4-11.1-4.4L299.1,308.4L299.1,308.4z"/>
	<path class="st67" d="M299.1,308.4c-13.3-6.6-22.1,0-22.1,11.1v8.8l123.8,484.2h2.2l128.2-521.8c0,0-2.2,0-2.2,2.2l-103.9,42
		c-8.9,4.4-17.7,6.6-24.3,6.6c-8.9,2.2-17.7,0-28.8-2.2c-2.2-2.2-6.6-2.2-11.1-4.4L299.1,308.4L299.1,308.4z"/>
	<path class="st67" d="M299.1,308.4c-13.3-4.4-22.1,0-22.1,11.1v8.8l123.8,482c0,2.2,2.2,2.2,2.2,2.2l128.2-521.8l-2.2,2.2
		l-103.9,42c-8.9,4.4-17.7,6.6-24.3,8.8c-8.9,0-17.7-2.2-28.8-4.4c-2.2-2.2-6.6-2.2-11.1-4.4L299.1,308.4L299.1,308.4z"/>
	<path class="st68" d="M301.3,308.4c-15.5-4.4-24.3,0-24.3,11.1c0,2.2,0,6.6,2.2,8.8l121.6,482c2.2,0,2.2,2.2,2.2,2.2l128.2-521.8
		l-2.2,2.2l-103.9,42c-8.9,4.4-17.7,6.6-24.3,8.8c-8.9,0-17.7-2.2-28.8-4.4c-2.2,0-6.6-2.2-11.1-4.4L301.3,308.4L301.3,308.4z"/>
	<path class="st68" d="M301.3,310.6c-13.3-6.6-24.3-2.2-24.3,8.8c0,2.2,0,6.6,2.2,8.8l123.8,482v2.2l128.2-519.6c0-2.2-2.2,0-2.2,0
		L425.1,337c-8.9,2.2-17.7,4.4-24.3,6.6c-6.6,0-17.7-2.2-26.5-4.4c-4.1-0.1-8-1.7-11.1-4.4L301.3,310.6L301.3,310.6z"/>
	<path class="st69" d="M301.3,310.6c-13.3-6.6-22.1-2.2-22.1,8.8c-2.2,2.2-2.2,6.6,0,8.8l123.8,482l128.2-517.4H529L427.3,337
		c-8.8,2.2-19.9,6.6-26.5,6.6s-17.7-2.2-26.5-4.4c-4.4,0-8.8-2.2-11.1-2.2L301.3,310.6L301.3,310.6z"/>
	<path class="st69" d="M301.3,310.6c-13.3-6.6-22.1-2.2-22.1,8.8c-2.2,4.4,0,6.6,0,11.1L403,808.1v2.2l128.2-517.4H529l-101.7,44.2
		c-8.8,2.2-19.9,6.6-26.5,6.6s-17.7-2.2-26.5-4.4c-4.4,0-8.8-2.2-11.1-2.2L301.3,310.6L301.3,310.6z"/>
	<path class="st69" d="M301.3,310.6c-13.3-6.6-22.1,0-22.1,11.1v8.8L403,808.1v2.2l128.2-517.4H529l-101.7,44.2
		c-8.8,4.4-19.9,6.6-26.5,6.6s-17.7,0-26.5-4.4c-4.4,0-8.8-2.2-11.1-2.2L301.3,310.6L301.3,310.6z"/>
	<path class="st70" d="M301.3,310.6c-13.3-4.4-22.1,0-22.1,11.1v8.8L403,808.1L531.2,293c0,0-2.2,0-2.2,2.2l-101.7,42
		c-8.8,4.4-19.9,6.6-26.5,6.6s-17.7,0-26.5-2.2c-4.4-2.2-8.8-4.4-11.1-4.4L301.3,310.6L301.3,310.6z"/>
	<path class="st70" d="M303.5,310.6c-15.5-4.4-24.3,0-24.3,11.1c0,2.2,0,4.4,2.2,8.8L403,808.1L531.2,293l-2.2,2.2l-101.7,42
		c-8.8,4.4-19.9,6.6-26.5,6.6s-17.7,0-26.5-2.2c-4.4-2.2-8.8-2.2-11.1-4.4L303.5,310.6L303.5,310.6z"/>
	<path class="st71" d="M303.5,312.8c-13.3-6.6-22.1-2.2-24.3,8.8c0,2.2,0,6.6,2.2,8.8L403,805.8v2.2l128.2-515.1l-2.2,2.2l-101.7,42
		c-8.8,4.4-19.9,6.6-26.5,6.6c-6.6,2.2-17.7,0-26.5-2.2c-4.4-2.2-8.8-2.2-11.1-4.4L303.5,312.8L303.5,312.8z"/>
	<path class="st71" d="M303.5,312.8c-13.3-6.6-22.1-2.2-24.3,8.8c0,2.2,0,6.6,2.2,8.8L403,805.8v2.2l128.2-515.1l-2.2,2.2l-101.7,42
		c-8.8,4.4-17.7,6.6-26.5,6.6c-6.6,2.2-17.7,0-26.5-2.2c-4.1-0.1-8-1.7-11.1-4.4L303.5,312.8L303.5,312.8z"/>
	<path class="st71" d="M303.5,312.8c-13.3-6.6-22.1-2.2-22.1,8.8c-2.2,2.2,0,6.6,0,11.1L403,805.8l128.2-510.7h-4.4l-99.5,42
		c-8.8,4.4-17.7,6.6-26.5,6.6c-6.6,2.2-17.7,0-26.5-2.2c-2.2,0-8.8-2.2-11.1-4.4L303.5,312.8L303.5,312.8z"/>
	<path class="st72" d="M303.5,312.8c-13.3-6.6-22.1-2.2-22.1,8.8v11.1L403,805.8l128.2-510.7h-4.4l-99.5,44.2l-26.5,6.6
		c-6.6,0-17.7-2.2-26.5-4.4c-2.2,0-8.8-2.2-11.1-4.4L303.5,312.8L303.5,312.8z"/>
	<path class="st72" d="M303.5,312.8c-13.3-4.4-22.1,0-22.1,11.1v8.8L403,803.6v2.2l128.2-510.7h-4.4l-99.5,44.2l-26.5,6.6
		c-6.6,0-17.7-2.2-26.5-4.4c-2.2,0-6.6-2.2-11.1-2.2L303.5,312.8L303.5,312.8z"/>
	<path class="st73" d="M305.7,312.8c-13.2-4.4-24.3,0-24.3,11.1c0,2.2,0,4.4,2.2,8.8L403,803.6v2.2l128.2-510.7c0,0-2.2,0-4.4,2.2
		l-99.5,42l-26.5,6.6c-6.6,0-15.5-2.2-26.5-4.4c-2.2,0-6.6-2.2-11.1-2.2L305.7,312.8L305.7,312.8z"/>
	<path class="st73" d="M305.7,315c-13.2-6.6-22.1-2.2-24.3,8.8c0,2.2,0,6.6,2.2,8.8L403,803.5h2.2l126-508.5c0,0-2.2,2.2-4.4,2.2
		l-99.5,42c-8.8,2.2-17.7,6.6-26.5,6.6c-6.6,0-15.5,0-24.3-4.4c-4.4,0-8.8-2.2-13.2-2.2L305.7,315L305.7,315z"/>
	<path class="st73" d="M305.7,315c-13.2-6.6-22.1-2.2-24.3,8.8c0,2.2,0,6.6,2.2,8.8L403,803.5h2.2l126-508.5c0,0-2.2,2.2-4.4,2.2
		l-99.5,42c-8.8,4.4-17.7,6.6-26.5,6.6c-6.6,0-15.5,0-24.3-2.2c-4.4-2.2-8.8-2.2-13.2-4.4L305.7,315L305.7,315z"/>
	<path class="st74" d="M305.7,315c-13.2-6.6-22.1-2.2-22.1,8.8c-2.2,2.2,0,6.6,0,11.1l121.6,466.5v2.2l126-508.5
		c0,0-2.2,2.2-4.4,2.2l-99.5,42c-8.8,4.4-17.7,6.6-26.5,6.6c-6.6,0-15.5,0-24.3-2.2c-4.4-2.2-8.8-2.2-13.2-4.4L305.7,315L305.7,315z
		"/>
	<path class="st74" d="M305.7,315c-13.2-6.6-22.1-2.2-22.1,8.8v11.1l121.6,466.5v2.2l126-506.3h-4.4l-99.5,42
		c-8.8,4.4-17.7,6.6-24.3,6.6c-8.8,0-17.7,0-26.5-2.2c-4.4-2.2-8.8-2.2-11.1-4.4L305.7,315L305.7,315z"/>
	<path class="st75" d="M305.7,315c-13.2-4.4-22.1-2.2-22.1,8.8v11.1l121.6,466.5l126-504.1h-4.4l-99.5,42
		c-8.8,4.4-17.7,6.6-24.3,6.6c-8.8,0-17.7,0-26.5-2.2c-4.1-0.1-8-1.7-11.1-4.4L305.7,315L305.7,315z"/>
	<path class="st75" d="M307.9,315c-13.3-4.4-22.1,0-24.3,8.8c0,4.4,0,6.6,2.2,11.1l119.4,466.5l126-504.1h-4.4l-99.5,44.2
		c-8.8,2.2-17.7,4.4-24.3,4.4c-8.8,2.2-17.7,0-26.5-2.2c-4.1-0.1-8-1.7-11.1-4.4L307.9,315L307.9,315z"/>
	<path class="st75" d="M307.9,315c-13.3-4.4-22.1,0-24.3,11.1c0,2.2,0,4.4,2.2,8.8l119.4,464.3v2.2l126-504.1h-4.4l-99.5,44.2
		c-6.6,2.2-17.7,4.4-24.3,4.4c-8.8,2.2-17.7,0-26.5-2.2c-4.4,0-8.8-2.2-11.1-2.2L307.9,315L307.9,315z"/>
	<path class="st76" d="M307.9,317.2c-13.3-6.6-22.1-2.2-24.3,8.8c0,2.2,0,6.6,2.2,8.8l119.4,464.3l126-501.9c0,0-2.2,2.2-4.4,2.2
		l-99.5,42c-6.6,2.2-17.7,4.4-24.3,4.4c-8.8,2.2-17.7,0-26.5-2.2c-4.4,0-8.8-2.2-11.1-2.2L307.9,317.2L307.9,317.2z"/>
	<path class="st77" d="M307.9,317.2c-13.3-6.6-22.1-2.2-22.1,8.8c-2.2,2.2,0,6.6,0,8.8l119.4,464.3l126-501.9c0,0-2.2,2.2-4.4,2.2
		l-99.5,42c-6.6,2.2-15.5,4.4-24.3,6.6c-8.8,0-17.7-2.2-26.5-4.4c-4.4,0-8.8-2.2-11.1-2.2L307.9,317.2L307.9,317.2z"/>
	<path class="st78" d="M307.9,317.2c-13.3-6.6-22.1-2.2-22.1,8.8v11.1l119.4,462.1l126-501.9c-2.2,0-2.2,2.2-4.4,2.2l-99.5,42
		c-6.6,2.2-15.5,4.4-24.3,6.6c-8.8,0-17.7-2.2-26.5-2.2c-4.4-2.2-8.8-2.2-11.1-4.4L307.9,317.2L307.9,317.2z"/>
	<path class="st78" d="M307.9,317.2c-13.3-4.4-22.1-2.2-22.1,8.8v11.1L405.2,797v2.2l126-499.7h-4.4l-99.5,42
		c-6.6,4.4-15.5,4.4-24.3,6.6c-8.8,0-17.7,0-26.5-2.2c-4.4-2.2-6.6-2.2-11.1-4.4L307.9,317.2L307.9,317.2z"/>
	<path class="st78" d="M307.9,317.2c-11.1-4.4-19.9,0-22.1,8.8c0,4.4,0,6.6,2.2,11.1L405.2,797l126-497.5h-4.4l-99.5,42
		c-6.6,4.4-15.5,6.6-24.3,6.6s-17.7,0-26.5-2.2c-2.2-2.2-6.6-2.2-11.1-4.4L307.9,317.2L307.9,317.2z"/>
	<path class="st79" d="M310.1,317.2c-13.3-4.4-22.1,0-24.3,8.8c0,4.4,0,6.6,2.2,11.1L405.2,797l126-497.5h-4.4l-99.5,42
		c-6.6,4.4-15.5,6.6-24.3,6.6s-17.7,0-26.5-2.2c-2.2,0-6.6-2.2-11.1-4.4L310.1,317.2L310.1,317.2z"/>
	<path class="st79" d="M310.1,319.4c-13.3-6.6-22.1-2.2-24.3,6.6c0,4.4,0,6.6,2.2,11.1L405.2,797L529,299.5h-2.2l-99.5,42
		c-6.6,4.4-15.5,6.6-24.3,6.6s-17.7,0-24.3-2.2c-4.4,0-8.8-2.2-13.3-4.4L310.1,319.4L310.1,319.4z"/>
	<path class="st79" d="M310.1,319.4c-13.3-6.6-22.1-2.2-22.1,8.8c-2.2,2.2,0,6.6,0,8.8l117.2,457.7v2.2L529,299.5l-2.2,2.2l-99.5,42
		c-6.6,2.2-15.5,4.4-24.3,4.4s-17.7,0-24.3-2.2c-4.4,0-8.8-2.2-13.3-2.2L310.1,319.4L310.1,319.4z"/>
	<path class="st80" d="M310.1,319.4c-13.3-6.6-22.1-2.2-22.1,8.8v11.1l117.2,455.5h2.2L529,299.5l-2.2,2.2l-99.5,42
		c-6.6,2.2-15.5,4.4-24.3,4.4c-6.6,0-17.7,0-24.3-2.2c-4.4,0-8.8-2.2-13.3-2.2L310.1,319.4L310.1,319.4z"/>
	<path class="st80" d="M310.1,319.4c-11.1-4.4-19.9-2.2-22.1,8.8v11.1l119.4,455.5L529,299.5l-2.2,2.2l-99.5,42
		c-6.6,2.2-15.5,4.4-24.3,4.4c-6.6,2.2-17.7,0-24.3-2.2c-4.4,0-8.8-2.2-13.3-2.2L310.1,319.4L310.1,319.4z"/>
	<path class="st81" d="M310.1,319.4c-11.1-4.4-19.9-2.2-22.1,8.8v11.1l119.4,455.5l121.6-493h-2.2l-99.5,42
		c-6.6,2.2-15.5,4.4-24.3,4.4c-6.6,2.2-15.5,0-24.3-2.2c-4.4,0-8.8,0-13.3-2.2L310.1,319.4L310.1,319.4z"/>
	<path class="st81" d="M312.3,319.4c-13.2-4.4-22.1,0-24.3,8.8c0,2.2,0,6.6,2.2,11.1l117.2,453.2L529,301.7h-2.2l-99.5,42
		c-6.6,2.2-15.5,4.4-24.3,4.4c-6.6,2.2-15.5,0-24.3,0c-4.4-2.2-8.8-2.2-11.1-4.4L312.3,319.4z"/>
	<path class="st81" d="M312.3,321.6c-13.2-6.6-22.1-2.2-24.3,6.6c0,4.4,0,6.6,2.2,11.1l117.2,453.2L529,301.7h-2.2l-99.5,42
		c-6.6,4.4-15.5,4.4-24.3,6.6c-6.6,0-15.5,0-24.3-2.2c-4.4-2.2-8.8-2.2-11.1-4.4L312.3,321.6L312.3,321.6z"/>
	<path class="st82" d="M312.3,321.6c-13.2-6.6-22.1-2.2-22.1,6.6c-2.2,4.4-2.2,6.6,0,11.1l117.2,453.2L529,301.7h-2.2l-99.5,42
		c-6.6,4.4-15.5,4.4-24.3,6.6c-6.6,0-15.5,0-24.3-2.2c-4.4-2.2-8.8-2.2-11.1-4.4L312.3,321.6L312.3,321.6z"/>
	<path class="st82" d="M312.3,321.6c-13.2-6.6-22.1-2.2-22.1,6.6v13.3l117.2,451L529,301.7l-2.2,2.2l-99.5,39.8
		c-6.6,4.2-14.3,6.5-22.1,6.6c-8.8,0-17.7,0-26.5-2.2c-4.4,0-8.8-2.2-11.1-4.4L312.3,321.6z"/>
	<path class="st83" d="M312.3,321.6c-11.1-4.4-19.9-2.2-22.1,8.8v11.1l117.2,448.8L529,301.7l-2.2,2.2l-99.5,42
		c-6.6,2.2-13.3,4.4-22.1,4.4s-17.7,0-26.5-2.2c-4.4,0-8.8-2.2-11.1-4.4L312.3,321.6L312.3,321.6z"/>
	<path class="st83" d="M429.5,345.9c-17.7,6.6-46.4,6.6-61.9,0l-55.3-24.3c-15.5-6.6-26.5,2.2-22.1,19.9l117.2,448.8L529,301.7
		L429.5,345.9z"/>
	<path class="st84" d="M476,394.6l-90.6,13.3l-11.1,57.5L361,407.9l-90.6-13.3l90.6-11.1l13.3-57.5l11.1,57.5L476,394.6z"/>
	<path class="st85" d="M471.5,392.4l-90.6,13.3l-11,55.3l-13.3-55.3L266,392.4l90.6-13.3l13.3-55.3l11,55.3L471.5,392.4z"/>
	<g>
		<g>
			<defs>
				<polygon id="SVGID_1_" points="179.7,202.3 369.8,281.8 369.8,160.9 367.2,159.3 35.9,23.2 				"/>
			</defs>
			<clipPath id="SVGID_2_">
				<use xlink:href="#SVGID_1_"  style="overflow:visible;"/>
			</clipPath>
			<g class="st86">
				<g>
					<g>
						<defs>
							<rect id="SVGID_3_" x="35.9" y="23.2" width="333.9" height="258.6"/>
						</defs>
						<clipPath id="SVGID_4_">
							<use xlink:href="#SVGID_3_"  style="overflow:visible;"/>
						</clipPath>
						<g class="st87">
						</g>
					</g>
				</g>
			</g>
		</g>
	</g>
	<g>
		<g>
			<defs>
				<polygon id="SVGID_5_" points="179.7,202.3 369.8,281.8 369.8,160.9 367.2,159.3 35.9,23.2 				"/>
			</defs>
			<clipPath id="SVGID_6_">
				<use xlink:href="#SVGID_5_"  style="overflow:visible;"/>
			</clipPath>
			<g class="st88">
				<g>
					<g>
						<defs>
							<rect id="SVGID_7_" x="35.9" y="23.2" width="333.9" height="258.6"/>
						</defs>
						<clipPath id="SVGID_8_">
							<use xlink:href="#SVGID_7_"  style="overflow:visible;"/>
						</clipPath>
						<g class="st89">
						</g>
					</g>
				</g>
			</g>
		</g>
	</g>
	<path class="st90" d="M179.7,202.3l190.1,79.5v4.5l-183.3-77.2L179.7,202.3L179.7,202.3z"/>
	<g>
		<g>
			<defs>
				<polygon id="SVGID_9_" points="370.1,1345.3 369.8,960.7 179.7,202.4 35.9,23.2 				"/>
			</defs>
			<clipPath id="SVGID_10_">
				<use xlink:href="#SVGID_9_"  style="overflow:visible;"/>
			</clipPath>
			<g class="st91">
				<g>
					<g>
						<defs>
							<rect id="SVGID_11_" x="35.9" y="23.2" width="334.2" height="1322.2"/>
						</defs>
						<clipPath id="SVGID_12_">
							<use xlink:href="#SVGID_11_"  style="overflow:visible;"/>
						</clipPath>
						<g class="st92">
						</g>
					</g>
				</g>
			</g>
		</g>
	</g>
	<path class="st93" d="M370.1,943.7l-0.3,17.1L179.7,202.4l6.7,6.7L370.1,943.7L370.1,943.7z"/>
	<g>
		<g>
			<g>
				<defs>
					<polygon id="SVGID_13_" points="369.8,160.4 369.8,281.7 557.7,202.4 701.4,23.3 					"/>
				</defs>
				<clipPath id="SVGID_14_">
					<use xlink:href="#SVGID_13_"  style="overflow:visible;"/>
				</clipPath>
				<g class="st94">
					<g>
						<g>
							<defs>
								<rect id="SVGID_15_" x="369.8" y="23.3" width="331.6" height="258.4"/>
							</defs>
							<clipPath id="SVGID_16_">
								<use xlink:href="#SVGID_15_"  style="overflow:visible;"/>
							</clipPath>
							<g class="st95">
							</g>
						</g>
					</g>
				</g>
			</g>
		</g>
		<g>
			<g>
				<defs>
					<polygon id="SVGID_17_" points="369.8,160.4 369.8,281.7 557.7,202.4 701.4,23.3 					"/>
				</defs>
				<clipPath id="SVGID_18_">
					<use xlink:href="#SVGID_17_"  style="overflow:visible;"/>
				</clipPath>
				<g class="st96">
					<g>
						<g>
							<defs>
								<rect id="SVGID_19_" x="369.8" y="23.3" width="331.6" height="258.4"/>
							</defs>
							<clipPath id="SVGID_20_">
								<use xlink:href="#SVGID_19_"  style="overflow:visible;"/>
							</clipPath>
							<g class="st97">
							</g>
						</g>
					</g>
				</g>
			</g>
		</g>
	</g>
	<path class="st93" d="M369.8,286.4v-4.7l187.8-79.3l-4.3,6.3L369.8,286.4L369.8,286.4z"/>
	<g>
		<g>
			<g>
				<defs>
					<polygon id="SVGID_21_" points="369.8,960.7 369.8,1345.4 370.4,1345.4 701.5,23.3 557.8,202.4 					"/>
				</defs>
				<clipPath id="SVGID_22_">
					<use xlink:href="#SVGID_21_"  style="overflow:visible;"/>
				</clipPath>
				<g class="st98">
					<g>
						<g>
							<defs>
								<rect id="SVGID_23_" x="369.8" y="23.3" width="331.7" height="1322.2"/>
							</defs>
							<clipPath id="SVGID_24_">
								<use xlink:href="#SVGID_23_"  style="overflow:visible;"/>
							</clipPath>
							<g class="st99">
							</g>
						</g>
					</g>
				</g>
			</g>
		</g>
	</g>
	<path class="st100" d="M557.8,202.2L369.9,960.6v-15.5l183.5-736.3L557.8,202.2L557.8,202.2z"/>
</g>
</svg>
