<?xml version="1.0" encoding="utf-8"?>
<!-- Generator: Adobe Illustrator 24.0.2, SVG Export Plug-In . SVG Version: 6.00 Build 0)  -->
<svg version="1.1" id="Livello_1" xmlns="http://www.w3.org/2000/svg" xmlns:xlink="http://www.w3.org/1999/xlink" x="0px" y="0px"
	 viewBox="0 0 199.4 212.5" style="enable-background:new 0 0 199.4 212.5;" xml:space="preserve">
<style type="text/css">
	.st0{fill:#E6E7E8;}
	.st1{fill:#ACAFB2;}
	.st2{fill:#01336B;}
	.st3{fill:#8D9093;}
	.st4{fill:#5F6269;}
	.st5{fill:#101A4B;}
	.st6{fill:none;}
</style>
<g>
	<g>
		<path class="st0" d="M99.3,202.3c-1.9-0.7-15.9-7.5-19.6-9.6c-26.1-14.2-43.4-31.2-57.5-56.5c-9.5-17.1-14.6-35.3-16.3-58.4
			c-0.4-5.2-0.2-22.3,0.3-28.4l0.2-2.6l3.8-2.9C24,33.4,40.4,24.3,54.9,19.4c8.3-2.8,18.2-5.1,28.3-6.5c7.4-1,25.3-1.1,32.5-0.2
			C133,15,146.3,18.9,160.9,26c11.1,5.4,22.8,12.8,31.6,20.1l1.2,1l0.4,6.8c0.5,8.4,0.2,24.6-0.5,30.8c-1.2,10.3-2.6,17.2-5.5,27
			c-2.5,8.4-4,12.3-7.7,19.6c-7.4,14.6-15.3,25.6-26.2,36.5c-12.7,12.7-24.9,20.9-45.8,30.8C100.6,202.3,100.1,202.6,99.3,202.3
			L99.3,202.3z M32.4,135.4c-0.4-0.6-1.7-3.2-3-5.8c-7.1-14.1-11.3-28.7-13.1-45c-0.6-5.7-1-23.3-0.6-28.7l0.3-3.8l-0.9-1.3
			c-1.1-1.6-1.1-1.7,0-2c0.5-0.1,1.7-0.8,2.6-1.5c4.3-3.4,13-9.1,17.6-11.6c8.1-4.4,8.7-4.6,26.4-9.5c7.1-2,13.1-3.4,17.7-4.3
			c3-0.6,4.4-1.1,2.7-1.1c-0.5,0-1-0.2-1.1-0.4c-0.3-0.6,0.8-1.2,3.8-2.1c1.5-0.5,2.9-1,3.1-1.2c0.6-0.6-1.6-0.7-5.4-0.4
			c-19.4,1.8-40.7,9.8-59.3,22.3c-2.7,1.8-6.7,4.5-8.9,5.9l-3.9,2.6l1.3,1.2c1.2,1.1,1.3,1.3,1.1,2.4c-0.4,1.7-0.2,21.4,0.2,26.7
			c1,11.5,2.7,20.3,6.2,31.7c3.1,10.2,8.2,20.7,12.5,25.8C33,137,33.3,136.9,32.4,135.4L32.4,135.4z M175.5,127.9
			c4.4-8.8,6.5-14.2,8.4-21.6c0.9-3.8,1.6-9.2,1.2-8.7c-0.1,0.1-0.9,2.7-1.7,5.8c-3.2,12.2-5.5,18.7-10,27.7
			c-1.4,2.7-2.2,4.6-1.8,4.1C172,134.7,173.7,131.4,175.5,127.9L175.5,127.9z M45.5,64.2c0-0.2,0.3-0.5,0.6-0.7
			c0.3-0.2,1-0.9,1.4-1.6c0.4-0.7,1.9-2.5,3.3-4C57.9,50,64.5,45,73.1,41c3.9-1.8,6.4-2.7,11.7-4.1c2.5-0.7,4.6-1.3,4.8-1.5
			c0.2-0.2,0.7-0.3,1.2-0.3c0.8,0,0.8,0-0.3-0.6c-1-0.5-1.3-0.5-4.6,0.2C73.4,37.3,61.2,44,52.5,53.1c-3.3,3.4-7,8.2-8.1,10.4
			c-0.4,0.8-1,1.7-1.2,2.1c-0.3,0.4-0.3,0.6-0.1,0.6c0.2,0,0.4,0.2,0.4,0.5c0,0.3,0.4,0,1-0.8C45.1,65.1,45.5,64.3,45.5,64.2
			L45.5,64.2z"/>
		<path class="st1" d="M94.4,199.4c-12.5-5.9-20.3-10.2-27.9-15.2c-19.4-13-34-29.5-45.5-51.3C14.8,121.2,10.3,107.1,8,92.7
			c-1.6-10.1-1.9-16.2-1.7-30c0.1-6.9,0.3-13.2,0.4-14c0.2-1.3,0.4-1.6,3.4-4C25.3,32.7,45,22.5,62.8,17.6c12.7-3.5,24.1-5,37.2-5
			c12.2,0,22.5,1.3,34.8,4.4c19.3,4.8,40.3,15.8,58.2,30.3c1,0.8,1.3,26.1,0.3,35.7c-1.1,10.9-2.6,18.3-5.8,29.2
			c-3.8,12.5-8.3,22-16.7,34.5c-5.7,8.5-9.9,13.8-16.8,20.7c-11.4,11.4-22.9,19.4-39.8,27.9c-7.3,3.7-13.7,6.6-14.3,6.6
			C99.7,201.8,97.2,200.8,94.4,199.4L94.4,199.4z M108.3,194.5c8.9-4.5,12.4-6.6,14.4-8.4l10.9-6l18.3-13.3l24.4-33.1l12.9-35.9
			l2.3-29.3l-1.3-19.4L171,34.6l-23.6-11.2c-6.6-3-20.9-6.7-32.5-8.3c-5.9-0.8-21-1-27.6-0.4c-13.7,1.4-26.5,4.4-36.8,8.8
			C37.9,28.9,31.1,32.7,18.6,41c-8.6,5.7-8.9,6-9.1,7.2C9.3,48.9,9.1,53.3,9,58c-0.7,27.9,4,51.7,14.2,72.1
			c16.2,31,43.3,56.3,76.5,68C100.7,198.2,102.8,197.3,108.3,194.5L108.3,194.5z"/>
		<path class="st2" d="M94,186.3c-17.6-9.1-28-16.4-38.3-26.7c-9.5-9.5-15.8-17.9-22.4-29.9C22,109.1,17.7,86.2,19.6,57.6l0.2-3.1
			l3.2-2.4c14.7-11.1,30.2-18.9,45.1-22.8c11.4-3,19.2-4,31.5-4c11.3,0,17.5,0.7,28.2,3.1c13.5,3,28.1,9.5,41.3,18.3
			c5.4,3.6,10.6,7.5,10.9,8.3c0.2,0.4,0.3,6.8,0.3,14.3c0,12.4,0,14-0.7,19c-2.8,20.3-8.4,35.3-19.4,51.8
			c-11,16.6-25.3,29.9-43.2,40.1c-3.5,2-15.8,8.6-16.7,8.9C100,189.2,97.2,188,94,186.3L94,186.3z"/>
		<path class="st0" d="M107.2,166.2c12-1.3,23.6-5.8,33.2-12.9c3.3-2.4,9.2-8.1,11.9-11.5c6.9-8.5,11.7-18.6,14-29.6
			c0.9-4,0.9-4.8,0.9-12.7c0-7.3-0.1-8.9-0.7-12.2c-3.8-19.9-15.8-36.7-33.5-46.8c-6.2-3.6-14.2-6.4-21.9-7.7
			c-5.1-0.9-15.2-1.1-20.1-0.4c-16.7,2.5-31.4,10.4-42,22.7C33.8,72.6,28.7,95.7,35.1,118c5.2,18.1,18.5,33.8,35.7,42
			c6.2,3,14.8,5.4,21.6,6.2C96,166.6,103.5,166.6,107.2,166.2L107.2,166.2z M90.1,157.8c-20.5-3.5-38.2-17.6-45.6-36.4
			c-2.8-7.2-3.9-12.5-4.2-20.2c-0.2-6.3,0.2-10.8,1.6-16.1c5.8-23,23.5-40,46.4-44.4c5.1-1,5.4-0.9,6,0.5c1.4,3.3,2.6,10.2,3.9,21.2
			c0.5,1-0.1,8.7,2.1,7.7c0.4-0.3,0.6-1,0.8-3c1.3-13.8,3.5-25.2,5.1-26.9c0.4-0.4,0.9-0.4,3.9,0.1c12.2,2,23.3,7.7,32.3,16.8
			C147,62,150,66,152.8,71.5c5.1,9.9,7.3,19.1,6.9,29.8c-0.2,5.4-0.7,8.7-2.1,13.7c-5.7,21-23.1,37.4-44.4,42.1
			c-2.1,0.5-4.5,0.9-5.3,1l-1.6,0.2l-0.5-1.3c-1.6-3.8-3.6-14.8-4.4-24.4c-0.2-2.4-0.4-4.6-0.5-4.9c-0.2-0.6-1.3-0.8-1.6-0.3
			c-0.1,0.2-0.5,3.6-1,7.8c-1.4,12.4-3.3,21.9-4.5,22.7C93.1,158.3,93.2,158.3,90.1,157.8L90.1,157.8z"/>
		<path class="st3" d="M94.4,162c-0.3-0.1-2.3-0.3-4.5-0.4c-3.9-0.3-8.2-1.3-12.3-2.9c-1.9-0.7-4.8-2.4-4.6-2.6
			c0.1-0.1,1.3,0.3,2.8,0.9c6.4,2.5,8.7,3,15.3,3.2c4.8,0.2,6.4,0.4,7.4,0.8c1,0.4,1.2,0.7,0.8,0.9C98.9,162.2,95.4,162.3,94.4,162
			L94.4,162z M100.3,161.9c-0.4-0.3-0.5-1.9-0.4-11.5c0.1-6.1,0.4-12.5,0.4-14.1c0-3.5,0.1-8.4-0.4-8.4c0.3-0.1,0.7,0.3,0.7,1
			c0.2,3.7,0.4,20.3,1.6,27c0.7,4.1,1.7,4.4,6.3,4.6c5.7-0.2,8.9-0.9,15-3.2c2-0.7,3.7-1.3,3.7-1.2c0.3,0.3-3,1.9-5.9,3
			c-4.2,1.5-8.5,2.4-13.6,2.8C102.5,162.3,101,162.3,100.3,161.9L100.3,161.9z"/>
		<path class="st3" d="M100,69.8c0.5,0,0.8-5.6,0.4-8.6c-0.5-4.4-0.6-24.6-0.1-25.1c0.7-0.7,8.7,0.1,14.1,1.5
			c5.6,1.4,8.7,2.6,13.7,5.2c3.6,1.9,7.1,4.2,6.9,4.4c-0.1,0.1-2.2-0.9-4.7-2.2c-6-3-8.9-4-14.9-5.3c-2.7-0.6-6-1.3-7.4-1.7
			c-3.3-0.8-4.1-0.8-5.1,0.1c-0.7,0.7-0.9,1.2-1.1,4.4c-0.2,2.7-0.2,4.3,0.1,6.2C101.7,53.8,102.8,56.6,100,69.8L100,69.8z"/>
		<path class="st4" d="M94,198.8c-12.1-5.8-19.2-9.6-26.4-14.3c-17.6-11.5-31.2-26.1-42.6-45.5C14.5,121,8.8,102,7.2,79.2
			C6.8,73.7,7,51.8,7.5,49c0.5-2.9,0.7-0.7,0.4,4.1c-1.8,29.6,3.5,58.2,14.6,79.1c10.5,19.6,23.1,34.4,39.9,46.7
			c6.8,4.9,18.5,11.8,31,18.2c5.3,2.7,6.6,3.2,7.5,3.1c0.6-0.1,3-1,5.3-2.1c9-4.1,16.7-8.4,19.8-11c0.8-0.7,4.6-3.5,8.3-6.1
			c3.7-2.7,8.5-6.3,10.6-8.1c18.6-15.6,33.7-38.2,40.6-60.7c4.3-14.2,6.6-30.8,6.6-48.1c0-7.2-0.4-15-0.8-16.1
			c-0.2-0.4,0-0.6,0.6-0.6c0.7,0,0.9,0.2,1,1.6c0.5,3.9,0.8,18.5,0.5,25c-0.7,14.8-2.2,24.5-6.1,37.4c-2.7,8.8-4.1,12.5-7.7,19.7
			c-7.9,15.6-18.6,29.9-29.7,39.9c-10.8,9.7-19.9,15.7-35.6,23.6c-6,3-14.3,7-14.5,7C99.8,201.5,97.2,200.3,94,198.8L94,198.8z
			 M93.8,193c-8.8-4.6-20.3-12-24.1-15.4c-1.5-1.3-1.5-1.3,3.7,1.9c4.9,3.1,11.5,6.7,19.1,10.4l7.2,3.6l4.5-2.3
			c15.1-7.5,24.6-13.4,33.7-20.8c14-11.5,24.6-24.4,33.3-40.4c9.5-17.6,14.1-37.2,14.1-60.5c0-6.3-0.6-17.3-1-18.4
			c-0.5-1.2-13.7-10.4-20.8-14.5c-7.6-4.3-17-8.5-26.8-12c-2.8-1-5.2-1.9-5.3-2c-0.5-0.5,8,1.5,12.9,3c8.2,2.6,17.2,6.8,24.7,11.5
			c3.4,2.1,13.2,9.3,16.1,11.7c0.7,0.6,0.8,1.1,1.1,5.2c0.4,5.9,0.1,23.7-0.5,29.5c-1.3,11.4-4.4,24.6-8.2,35
			c-2,5.3-7.3,16.3-10.3,21.3c-2.5,4.1-8.9,13.3-11.7,16.8c-5,6.3-17.5,18-22.9,21.4c-4,2.5-20.8,11.1-27.7,14.3
			c-2.1,1-4.3,2.1-4.8,2.4c-0.5,0.4-1,0.7-1.1,0.7C98.9,195.6,96.6,194.4,93.8,193L93.8,193z M100.6,161.6c-0.4-0.3-0.5-1.5-0.4-8.3
			c0.1-8.8,0.7-12.1,0.7-4.2c0,6.3,0.4,10.2,1,10.7c0.7,0.5,1,1.8,0.4,1.8c-0.2,0-0.6,0.1-0.9,0.2
			C101.3,161.8,100.9,161.8,100.6,161.6L100.6,161.6z M94.5,161.2c-0.3-0.4,2.5-0.4,3.1,0c0.4,0.2,0,0.3-1.2,0.3
			C95.5,161.6,94.7,161.4,94.5,161.2L94.5,161.2z M53.1,57.6c0-0.5,3.7-4.4,6.3-6.6c5.6-4.8,13.5-9.2,20-11.3
			c6.4-2,18.3-4.2,18.3-3.4c0,0.2-0.1,0.4-0.1,0.4c-1.1,0-6.9,1.3-11.4,2.6c-8.4,2.4-16.9,6.7-24.4,12.3
			C56.7,55.3,53.1,57.9,53.1,57.6L53.1,57.6z M100.6,52.6c-0.4-2.5-0.6-14.3-0.3-15.4l0.3-1l3.6,0.1c4,0.1,8.7,0.9,13.2,2.2
			c2.8,0.8,7.1,2.6,7.1,2.9c0,0.1-0.7-0.1-1.6-0.3c-3.6-1.1-16.3-4.1-18.2-4.3c-1.7-0.2-2-0.1-2.2,0.4c-0.1,0.3-0.5,1-0.7,1.5
			c-0.4,0.7-0.6,2.6-0.8,8.1C100.9,51.5,100.7,53.5,100.6,52.6L100.6,52.6z M17.5,86.2c-0.7-5.4-1-9.5-1.2-15.8
			c-0.2-6.6,0.2-17.7,0.8-18.2c0.2-0.2,0.6,0,1,0.8c0.6,0.9,0.7,1.4,0.5,2.9c-1.1,11.3-1.4,19.7-0.8,27.9
			C18,86.1,18.3,92.5,17.5,86.2L17.5,86.2z M186.1,44.1c-3.4-2.3-6.2-4.4-6.2-4.8c0-0.5,0.8-0.2,3,1.3c2.1,1.4,6.6,5.3,6.2,5.4
			C189.1,46,187.7,45.1,186.1,44.1L186.1,44.1z"/>
		<path class="st3" d="M92.4,198.3c-18.4-8.8-29.2-15.6-40.4-25.5c-16.6-14.6-30.8-35.8-37.9-56.7C8,98.6,5.6,79.8,6.5,57.7
			c0.3-6.1,0.5-9.8,0.8-10.1c0.6-0.9,5.6-4.8,9.9-7.8C27.6,32.5,40,25.9,51.5,21.6C80,11,111.2,10.1,140.6,18.9
			c15.6,4.7,35.4,15.2,48.4,25.6c1.6,1.3,3.2,2.5,3.5,2.6c0.8,0.3,1.1,5,1.1,19.7c0,13.9-0.3,17.5-2,27.7c-1,6.1-2,10-4.3,17.7
			c-3.7,12.4-8.6,22.4-16.7,34.6c-13.6,20.4-29.4,34.2-53.2,46.6c-7.2,3.7-16.6,8.1-17.4,8.1C99.5,201.5,96.1,200.1,92.4,198.3
			L92.4,198.3z M106.6,197.1c5.3-2.5,8.5-4.2,9.6-5.3c0.5-0.4,3-2.1,5.6-3.7c14.4-8.7,23.9-16,32.4-24.8c8.8-9.1,15.4-18.2,21.9-30
			c10.5-19.1,15.5-41.4,15.6-69.7c0-5.3-0.1-10.8-0.2-12.4c-0.3-2.8-0.3-2.8-1.4-3.5c-24.4-18.1-45.1-29-74.9-33.4
			c-6.5-0.8-24.1-0.9-30.5,0c-13.9,1.8-25.9,4.9-34.2,8.7c-15.4,7.1-19.7,9.5-30.2,16.4c-3.9,2.6-8,5.3-9.1,5.9l-2,1.2l-0.2,2.2
			c-0.5,5.3-0.6,20.6-0.2,26.5c1.8,28.1,8.5,48.7,22.6,70c4.9,7.3,9.7,13.2,16.3,19.8c12.1,12.2,22.9,19.5,44.7,30.4
			c7,3.5,8.1,3.9,9.1,3.7C101.7,199.3,104.1,198.2,106.6,197.1L106.6,197.1z M93.5,193.3c-9.6-5-18.6-10.8-26.1-16.8
			c-4.3-3.4-11.8-10.2-11.8-10.7c0-0.2,0.6,0.2,1.4,0.9c6.4,5.5,15.8,12,23.4,16.3c5.6,3.2,18.3,9.6,19,9.6c0.7,0,13.9-6.6,19-9.5
			c23.2-13.2,39.7-30.1,52.6-53.7c5.5-10.1,9.7-22.5,11.8-34.5c1.4-8.5,2.3-23.9,1.9-32.1c-0.4-7.8,1.5-9.9-4.9-14.7
			c-18.6-13.6-34.4-21-55.7-26.1c-3.2-0.8-6-1.5-6.4-1.7c-1.2-0.5,2-0.4,6.1,0.2c18.1,2.5,32.9,8.1,48,18.1
			c4.3,2.9,12.7,9.2,14,10.6l0.8,0.9l0,14.4c0,15.8-0.2,18.8-2.2,29.3c-3.1,16.9-8.4,31.7-16.2,44.9c-2.1,3.5-7.6,11.7-11.5,17
			c-4.6,6.3-16.7,18.1-22.9,22.6c-2.4,1.7-20.3,10.9-28.2,14.4c-2.6,1.2-4.9,2.4-5,2.7C100,196.4,98.6,196,93.5,193.3L93.5,193.3z
			 M18.4,80.2l0.2,3.9c0.5,13,4.4,28.4,10.3,40.9c3.1,6.7,7.7,14.3,13,21.7c1.4,1.9,3.3,4.6,4.3,5.9c1,1.4,4.6,5.3,8,8.8
			c3.4,3.5,5.8,5.9,5.3,5.4c-12.8-11.3-22.3-23.6-29.5-38.1c-7.5-15.1-11.1-27.3-13.1-44.2C16.1,78.2,16,53.3,16.7,52
			c1.5-2.6,17.4-13.2,25.5-17c3.2-1.5,9.4-3.9,10-3.9c0.2,0-1.4,0.9-3.6,1.9c-7.4,3.6-13.5,7.2-21.8,13.1c-1.6,1.2-4.3,2.9-5.9,3.8
			c-1.6,1-2.9,1.9-2.9,2.1L18.4,80.2L18.4,80.2z M61,167.9c-0.4-0.5-0.4-0.5,0.1-0.1c0.5,0.4,0.7,0.7,0.5,0.7
			C61.5,168.5,61.2,168.2,61,167.9L61,167.9z"/>
		<path class="st5" d="M93.4,185.6c-23-11.9-37.6-23.7-50-40.4C32.1,129.9,25,114,21.6,96c-1.7-9.1-2-12.9-2-26.6
			c0-7,0.1-13.2,0.3-13.9c0.2-1,0.8-1.5,3.9-3.8c11-8,19.2-12.7,29.8-17.3c15-6.4,34.9-9.9,51.7-8.9c26.6,1.5,47.3,9.2,70.5,26.2
			c4,2.9,4.1,3.1,3.9,3.7c-0.1,0.4-0.2,0.4-0.5,0c-0.2-0.2-1-0.9-1.9-1.5c-0.8-0.6-2.8-2-4.3-3.2c-1.6-1.1-3.4-2.4-4.1-2.8
			c-0.7-0.4-2.1-1.3-3.1-1.9c-2.4-1.6-4.5-2.7-11.7-6.3c-9.1-4.5-11.1-5.4-12.2-5.7c-0.5-0.1-2.3-0.7-4-1.3
			c-11.1-3.9-24.6-6.1-37.8-6.1c-16,0-31,2.9-44.9,8.6c-3.8,1.6-12.4,5.9-16,8c-6.5,3.9-16.1,10.5-17.2,12c-0.8,1.1-1.2,5.1-1.2,15
			c-0.1,18.5,2.9,33.9,9.2,49c7,16.6,21.4,35.6,36.6,48c5.3,4.4,5.8,4.8,7.7,5.9c0.9,0.5,2.7,1.8,4.1,2.7c1.4,1,2.8,1.7,3,1.7
			c0.2,0,0.4,0.1,0.4,0.3c0,0.2,0.6,0.7,1.4,1.1c3.5,1.8,5.5,2.9,7.1,4c1,0.7,2.1,1.2,2.4,1.2c0.3,0,0.7,0.1,0.8,0.3
			c0.1,0.2,0.8,0.6,1.6,1c0.8,0.4,1.6,0.8,1.9,1c0.3,0.2,1.2,0.6,2.1,1c0.9,0.4,1.5,0.9,1.4,1c-0.1,0.2-0.3,0.3-0.4,0.3
			C99.9,189,96.9,187.5,93.4,185.6L93.4,185.6z M94.4,168.3c-0.5-0.1-2.5-0.4-4.5-0.7c-2-0.3-4-0.8-4.5-1c-0.5-0.2-1.3-0.4-1.8-0.4
			c-1.3,0-8.1-2.4-11.3-3.9c-0.3-0.1-1.1-0.5-1.9-0.9c-0.7-0.3-2.3-1.2-3.4-1.9c-1.2-0.7-2.2-1.3-2.3-1.3c-0.3,0-4.1-2.8-5.5-4
			c-0.8-0.7-1.5-1.2-1.6-1.2c-0.1,0-0.7-0.4-1.2-0.9c-4.5-4.3-6.7-6.5-6.5-6.6c0.1-0.1,1.3,0.9,2.6,2.2
			c17.8,17.5,44.9,23.6,68.9,15.6c14.5-4.8,26.1-13.8,34.7-26.8c11.7-17.6,14.6-38.5,8-58.4c-5.6-17-18.4-31.7-34.8-39.9
			c-1.2-0.6-2-1.1-1.7-1.1c0.6,0,8.6,3.9,8.8,4.3c0.1,0.2,0.4,0.3,0.7,0.3c0.3,0,1.1,0.4,1.7,0.9c0.7,0.5,1.6,1.1,2.2,1.4
			c2.7,1.4,11.9,10.2,15.2,14.7c10.3,13.7,14.9,29.6,13.5,47.1c-0.3,3.2-0.6,6.4-0.8,7.3c-0.2,0.8-0.5,2.2-0.7,3.1
			c-0.8,3.5-3.5,11.2-5,13.9c-4.2,7.7-6.7,11.4-10.9,16c-7.4,8-16.4,14.2-25.8,17.8c-9.4,3.6-13.8,4.4-24.1,4.6
			C98.5,168.4,94.8,168.4,94.4,168.3L94.4,168.3z M105.7,156.8c-1.8-4.3-4.4-20.4-4.4-27.2c0-2.3,0.5-2.7,1.5-1.2
			c0.6,1,1.5,5,1.5,7.2c0,0.9,0.1,2.2,0.3,3c0.2,0.8,0.6,3.8,1,6.8c0.7,5.5,2,10.7,2.8,11.7c0.4,0.5,0.4,0.6-0.3,0.7
			C106.7,158.1,106.2,158,105.7,156.8L105.7,156.8z M90.6,157.3c-0.1-0.1,0.3-0.2,0.8-0.1c0.5,0.1,1,0.2,1,0.3
			C92.4,157.7,90.8,157.6,90.6,157.3L90.6,157.3z M88.8,157.1c0.1-0.1,0.4-0.1,0.6,0c0.3,0.1,0.2,0.2-0.2,0.2
			C88.9,157.3,88.7,157.2,88.8,157.1L88.8,157.1z M84.8,156.2c-4.3-1.2-7.3-2.3-11.1-4c-29.9-14.3-42.1-50.5-26.9-80.1
			C55.1,56,70,44.6,87.6,41c4.3-0.9,6.3-0.8,6.4,0.3c0.1,0.6,0,0.7-0.4,0.5c-0.6-0.2-6.3,0.7-8.3,1.4c-0.7,0.2-2.4,0.8-3.6,1.2
			c-3.2,1-10.4,4.5-13.6,6.7c-12.9,8.6-21.5,21.6-24.9,37.2c-0.9,4.3-1.2,12.9-0.7,17.8c0.8,6.6,2.6,12.8,5.5,18.7
			c1.7,3.4,2.8,5.3,6.2,10.2c1.4,2,6.8,7.5,9.7,10c2,1.7,7.1,5.2,7.4,5.2c0.2,0,0.6,0.3,1,0.7c0.3,0.4,0.8,0.7,1.1,0.7
			c0.3,0,0.9,0.3,1.4,0.6c0.5,0.4,1.3,0.7,1.9,0.9c0.5,0.1,1.1,0.4,1.3,0.5c0.4,0.3,4.3,1.7,6.9,2.4c1.1,0.3,2.3,0.7,2.6,0.8
			C88.8,157.1,87.4,156.9,84.8,156.2L84.8,156.2z M100.7,71.4c-0.4-0.2-0.4-0.4-0.1-0.8c0.2-0.3,0.6-2.7,0.9-5.8
			c1-11.6,3.5-24,4.9-24.6c0.2-0.1,1.7,0,3.2,0.3c15.1,2.6,27.5,10,37,21.9c0.6,0.8,1.4,1.9,1.6,2.3l0.4,0.8l-0.6-0.8
			c-0.3-0.4-1.3-1.5-2.1-2.5c-0.8-0.9-1.8-2.1-2.1-2.5c-1.6-1.9-7.1-6.5-11.2-9.2c-8.1-5.3-22.9-10.2-24.6-8.2
			c-0.8,0.9-1.9,5.6-2.6,10.9c-0.8,6.1-1,7.5-1.3,11.4c-0.4,5.1-0.5,5.5-1.6,6.3C101.4,71.8,101.3,71.9,100.7,71.4L100.7,71.4z"/>
		<path class="st3" d="M153.5,60.4c1.2,2.1,1.6,2.7,3.3,6.8c0.9,2.1,2,4.6,2.5,5.5c0.4,1,0.8,1.8,0.8,1.9c0,0.1,0.6,1.6,1.4,3.3
			c1.7,4,2.5,7.9,2.9,14.4c0.6,8.7-0.4,17.8-2.7,25c-1,3.2-3.5,8.8-3.7,8.6c-0.1-0.1,0.5-2,1.3-4.2c3-8.2,4.1-14.4,4.1-22.5
			c0-8.5-0.9-14.9-3.2-21.7c-1.6-4.9-4.1-9.8-8.2-15.8C145.1,50.8,145.5,49.3,153.5,60.4L153.5,60.4z"/>
	</g>
	<polygon class="st6" points="3.3,9.9 196.1,9.9 196.1,202.6 3.3,202.6 3.3,9.9 	"/>
</g>
</svg>
