<svg width="199" height="170" viewBox="0 0 199 170" fill="none" xmlns="http://www.w3.org/2000/svg">
<g clip-path="url(#clip0)">
<path d="M191.974 64.4194C190.137 63.9033 188.094 63.6651 183.783 63.1331C165.946 62.4026 121.873 60.6875 99.4068 60.6875C76.9488 60.6875 32.8679 62.3946 15.0383 63.1331C10.728 63.6651 8.67622 63.9033 6.83919 64.4194C1.23264 65.7375 0 67.7463 0 71.7562V99.2372C0 103.247 4.30233 105.955 7.26862 106.495C10.2349 107.042 12.1117 107.265 15.2371 107.559C31.1899 108.543 68.201 110.6 99.4068 110.631C130.613 110.6 167.624 108.543 183.576 107.559C186.702 107.265 188.579 107.042 191.545 106.495C194.511 105.947 198.814 103.247 198.814 99.2372V71.7562C198.814 67.7463 197.581 65.7375 191.974 64.4194Z" fill="url(#paint0_linear)"/>
<path d="M27.8814 65.4987C36.6611 35.0162 65.497 12.6566 99.7247 12.6566C133.857 12.6566 162.629 34.8971 171.488 65.2526C171.52 65.3637 171.536 65.4193 171.568 65.5146C176.658 64.9429 181.214 64.0615 184.435 63.204C184.38 63.0055 184.364 62.9658 184.308 62.7752C174.24 26.6234 140.187 0.0078125 99.7247 0.0078125C59.127 0.0078125 24.9867 26.7902 15.0381 63.1325C19.5074 64.3553 22.7839 64.8714 27.8814 65.4987Z" fill="url(#paint1_radial)"/>
<path d="M171.282 105.445C171.195 105.715 171.099 106.017 171.051 106.16C161.723 135.793 133.317 157.335 99.7251 157.335C65.8632 157.335 37.2897 135.451 28.184 105.469C22.6173 106.454 20.7405 106.827 15.2373 107.557C25.4245 143.542 59.3898 169.983 99.7251 169.983C140.076 169.983 174.05 143.519 184.221 107.502C179.378 106.914 176.523 106.462 171.282 105.445Z" fill="url(#paint2_radial)"/>
<path d="M29.6793 65.4346C31.7946 64.5612 33.8384 63.1716 37.0194 62.2823C46.5148 37.6359 71.0007 20.096 99.7253 20.096C128.354 20.096 152.785 37.5327 162.336 62.0521C162.367 62.1315 162.407 62.2347 162.431 62.2982C164.077 62.8699 168.92 64.8311 170.423 65.4822C170.638 65.4902 171.091 65.5061 171.561 65.514C171.537 65.4267 171.505 65.3393 171.481 65.252C162.614 34.9045 133.842 12.6719 99.7094 12.6719C65.4896 12.6719 36.6536 35.0236 27.874 65.4981C28.3989 65.4981 29.3612 65.4584 29.6793 65.4346Z" fill="url(#paint3_radial)"/>
<path d="M99.1765 14.7283C131.201 14.7283 159.584 33.7927 170.336 65.2201L170.423 65.4901C170.59 65.4901 171.203 65.5139 171.561 65.5218C171.529 65.4107 171.505 65.3392 171.481 65.2598C162.614 34.9123 133.842 12.6797 99.7094 12.6797C65.4896 12.6797 36.6536 35.0314 27.874 65.5059C28.5579 65.498 28.884 65.498 29.6633 65.4424C39.2859 35.6031 67.3902 14.7283 99.1765 14.7283Z" fill="white"/>
<path d="M169.468 105.533C167.17 106.819 164.307 108.05 162.017 108.772C161.985 108.844 161.858 109.169 161.826 109.249C151.925 133.093 127.853 149.918 99.7247 149.918C71.4216 149.918 47.2299 132.887 37.4404 108.804C34.8081 108.074 30.8716 106.279 29.3844 105.533C28.8278 105.509 28.5256 105.493 28.1836 105.469C37.2893 135.451 65.8707 157.335 99.7326 157.335C133.436 157.335 161.914 135.65 171.146 105.882C171.17 105.826 171.266 105.501 171.29 105.445C170.749 105.469 169.938 105.533 169.468 105.533Z" fill="url(#paint4_radial)"/>
<path d="M190.384 66.4134C185.66 65.8417 182.439 65.9052 170.932 65.5082C170.407 65.4923 169.874 65.4764 169.333 65.4526C148.466 64.738 117.125 63.7852 99.4068 63.7852C81.6885 63.7852 50.3475 64.738 29.4801 65.4526C28.9393 65.4685 28.4144 65.4844 27.8896 65.5082C16.3822 65.9052 13.1615 65.8417 8.43765 66.4134C3.71384 66.993 0 69.0575 0 72.567V98.0551C0 101.573 4.46933 104.415 8.43765 104.415C8.43765 104.415 58.8806 107.528 99.4068 107.56C139.933 107.52 190.376 104.415 190.376 104.415C194.336 104.415 198.806 101.573 198.806 98.0551V72.567C198.814 69.0575 195.1 66.993 190.384 66.4134Z" fill="url(#paint5_radial)"/>
<path d="M169.468 105.533C159.568 134.856 131.726 155.278 100.273 155.278C68.503 155.278 40.3112 136.516 29.3765 105.533C28.9788 105.509 28.5812 105.493 28.1836 105.469C37.2893 135.452 65.8786 157.335 99.7326 157.335C133.603 157.335 162.192 135.436 171.29 105.438C170.693 105.477 170.089 105.509 169.468 105.533Z" fill="white"/>
<path d="M169.524 105.531H169.46C167.162 106.818 164.299 108.048 162.009 108.771C161.977 108.842 161.85 109.168 161.818 109.247C158.685 116.79 154.136 123.635 148.474 129.463C157.333 123.008 164.554 114.837 169.524 105.531Z" fill="#8C8C8C"/>
<path d="M52.8766 131.361C46.2203 125.024 40.9159 117.362 37.4407 108.803C34.8084 108.072 30.8719 106.278 29.3848 105.531C30.9753 108.826 32.86 111.979 34.9993 114.956C39.3811 120.657 44.6934 125.739 50.7453 130.035C51.4372 130.495 52.1529 130.94 52.8766 131.361Z" fill="#4D4D4D"/>
<path d="M28.184 105.477H28.1602C22.6093 106.461 20.7325 106.834 15.2373 107.565C15.6826 109.137 16.1678 110.677 16.7006 112.21L28.184 105.477Z" fill="#252525"/>
</g>
<defs>
<linearGradient id="paint0_linear" x1="99.4068" y1="2.51901" x2="99.4068" y2="140.878" gradientUnits="userSpaceOnUse">
<stop offset="0.194" stop-color="white"/>
<stop offset="0.208" stop-color="#F8F8F8"/>
<stop offset="0.366" stop-color="#AEAEAE"/>
<stop offset="0.513" stop-color="#707070"/>
<stop offset="0.647" stop-color="#404040"/>
<stop offset="0.764" stop-color="#1D1D1D"/>
<stop offset="0.86" stop-color="#080808"/>
<stop offset="0.922"/>
</linearGradient>
<radialGradient id="paint1_radial" cx="0" cy="0" r="1" gradientUnits="userSpaceOnUse" gradientTransform="translate(43.5967 -34.1623) scale(138.636 138.421)">
<stop offset="0.202" stop-color="white"/>
<stop offset="0.382" stop-color="#FDFDFD"/>
<stop offset="0.487" stop-color="#F4F4F4"/>
<stop offset="0.573" stop-color="#E6E6E6"/>
<stop offset="0.648" stop-color="#D2D2D2"/>
<stop offset="0.689" stop-color="#C4C4C4"/>
<stop offset="1" stop-color="#333333"/>
</radialGradient>
<radialGradient id="paint2_radial" cx="0" cy="0" r="1" gradientUnits="userSpaceOnUse" gradientTransform="translate(379.104 187.552) scale(288.727 288.279)">
<stop offset="0.202" stop-color="white"/>
<stop offset="0.368" stop-color="#E4E4E4"/>
<stop offset="0.594" stop-color="#C4C4C4"/>
<stop offset="1" stop-color="#333333"/>
</radialGradient>
<radialGradient id="paint3_radial" cx="0" cy="0" r="1" gradientUnits="userSpaceOnUse" gradientTransform="translate(76.8966 123.936) scale(88.6401 88.5026)">
<stop offset="0.202" stop-color="white"/>
<stop offset="0.368" stop-color="#E4E4E4"/>
<stop offset="0.594" stop-color="#C4C4C4"/>
<stop offset="1" stop-color="#333333"/>
</radialGradient>
<radialGradient id="paint4_radial" cx="0" cy="0" r="1" gradientUnits="userSpaceOnUse" gradientTransform="translate(148.426 214.432) scale(168.19 167.93)">
<stop offset="0.202" stop-color="white"/>
<stop offset="0.368" stop-color="#E4E4E4"/>
<stop offset="0.594" stop-color="#C4C4C4"/>
<stop offset="1" stop-color="#333333"/>
</radialGradient>
<radialGradient id="paint5_radial" cx="0" cy="0" r="1" gradientUnits="userSpaceOnUse" gradientTransform="translate(98.0747 17.522) scale(133.654 133.447)">
<stop offset="0.202" stop-color="white"/>
<stop offset="0.397" stop-color="#FDFDFD"/>
<stop offset="0.51" stop-color="#F4F4F4"/>
<stop offset="0.603" stop-color="#E6E6E6"/>
<stop offset="0.684" stop-color="#D2D2D2"/>
<stop offset="0.728" stop-color="#C4C4C4"/>
<stop offset="1" stop-color="#4D4D4D"/>
</radialGradient>
<clipPath id="clip0">
<rect width="198.814" height="170" fill="white"/>
</clipPath>
</defs>
</svg>
