<svg width="145" height="170" viewBox="0 0 145 170" fill="none" xmlns="http://www.w3.org/2000/svg">
<g clip-path="url(#clip0)">
<path fill-rule="evenodd" clip-rule="evenodd" d="M144.886 169.99V0H0V170L144.886 169.99Z" fill="#255398"/>
<path fill-rule="evenodd" clip-rule="evenodd" d="M87.4027 120.889C91.626 123.863 93.5198 125.215 97.6722 127.455C101.116 125.938 105.146 127.383 104.518 130.419C104.103 132.432 103.759 136.716 101.571 136.551C99.1508 136.345 96.467 135.106 93.2261 137.14C91.0386 138.441 88.0408 144.439 86.0963 144.924C86.947 146.132 87.7977 147.35 88.6383 148.569C94.1174 148.569 98.2495 151.573 100.397 152.998C109.36 148.961 112.874 150.664 121.746 152.368C122.839 152.585 123.427 150.768 123.082 149.302C122.495 146.793 121.006 143.241 120.905 141.651L120.895 120.703C119.588 119.062 117.776 116.057 117.765 116.057C113.998 117.079 112.246 116.852 111.557 114.54C110.808 112.052 108.995 106.91 107.567 103.668C107.567 103.668 115.629 102.656 120.439 96.4619C122.242 94.1389 124.166 90.2879 124.126 85.6523C124.034 75.2764 116.327 59.9861 114.393 54.7207C113.228 51.5511 109.866 43.1988 113.127 39.7814C114.403 38.4393 117.036 37.7166 118.92 41.8979C119.832 43.9215 120.226 43.0439 120.054 43.4156C117.715 47.2872 116.317 49.3624 117.3 52.8933C118.667 57.8283 124.632 62.5362 126.536 63.8267C126.536 63.8267 129.726 66.0465 130.364 65.5302C131.883 64.2913 128.156 57.7457 128.237 56.4242C128.308 55.2059 128.359 54.1116 128.724 52.8313C129.139 51.3963 129.777 49.2901 130.152 47.122C131.347 40.215 125.999 30.6341 119.791 29.7359C118.13 29.4984 112.854 31.6355 108.235 39.0071C107.354 40.4009 106.098 44.0041 106.23 46.7503C103.972 40.9687 101.186 34.3921 98.1583 29.5397C97.1861 27.2477 92.0311 20.8466 90.4917 20.413C86.2279 19.1947 82.4908 19.9484 78.46 19.2773C76.7991 19.4529 64.9598 22.2094 64.5649 22.8083C64.5649 22.8083 61.6785 27.6297 61.6785 27.6607C58.7414 28.435 54.9537 29.7772 54.5081 30.3966C53.2016 32.0898 51.9559 32.8125 52.3813 33.5042C52.9383 35.4762 54.184 35.8582 54.184 35.8582L60.6556 35.8685C62.3469 32.8332 67.4917 33.2874 70.5098 35.9408C71.5732 36.8803 70.5098 36.0956 70.9959 37.541C69.2438 38.3154 66.4486 39.2652 64.4433 38.718C61.6886 38.305 56.1285 37.8921 54.5992 38.4702L55.7031 40.4112C57.3945 41.1752 60.9594 41.5159 62.2963 41.5365C64.4433 41.5882 67.6335 41.8153 70.4389 41.5882C69.0413 43.7253 68.2007 46.5542 66.3169 46.5542H58.8022C58.9136 47.0807 57.2122 46.9671 57.3843 47.4627C57.3843 47.4627 58.4883 48.8771 59.0959 49.7753L63.5825 50.0231C65.6384 50.147 65.4966 52.2429 64.7573 53.4198C63.4913 55.4021 59.977 59.0982 56.9387 59.4079C49.3328 52.3151 43.6411 47.1426 36.177 40.8035C34.9212 39.7195 33.5134 39.2136 31.4373 38.8213C29.3611 38.4393 25.8873 38.0986 22.8287 38.0986C21.5223 38.0986 14.7266 37.3139 14.2607 37.7785L15.5368 39.8124C15.709 40.8964 15.4659 41.4436 15.2634 43.4672C15.1925 44.2725 14.8887 45.7076 14.8887 45.7076C14.8887 45.7076 15.871 47.1323 16.661 48.4022C19.9727 47.0291 22.7376 49.6721 22.7376 49.6721L20.307 51.5408L22.6464 55.0304C26.6064 56.6204 29.3712 56.7752 35.1237 55.5363L46.2034 70.011L25.9582 71.1157C23.1528 71.2189 21.0159 73.5522 20.3373 75.5345C19.6385 77.4858 15.9217 78.2601 15.7596 79.8294L18.1396 83.5462L19.5271 83.1022C20.3475 84.1553 21.7046 86.2718 23.7706 87.2939C24.4897 85.8794 26.4342 84.1553 28.7433 84.6612C29.351 85.4768 30.7992 87.7894 30.7992 87.7894C34.2528 88.3779 38.3848 85.5594 39.1039 81.9562L55.8247 81.7084L65.0712 93.3233C58.6199 102.636 51.9559 113.549 45.6565 124.255C48.4112 126.929 47.4592 132.39 42.9322 132.896C39.8432 133.247 36.4505 130.202 32.288 131.203C28.1458 132.174 23.2845 135.085 20.8133 138.915C21.2488 139.607 23.1731 142.457 23.1731 142.457C26.7178 143.396 30.9714 145.502 33.959 149.684C39.1039 146.06 50.7608 149.364 55.0955 150.912C56.2906 151.439 57.2527 150.479 57.1717 148.693C57.0704 146.679 55.1968 143.83 56.2298 140.547C58.0831 134.693 71.8568 122.551 79.412 114.911C79.4424 114.87 84.7189 119 87.4027 120.889ZM113.512 69.5361C115.892 75.9578 116.743 78.7041 117.512 83.0609C118.12 86.5402 117.796 89.7098 116.52 91.5268C115.041 93.664 111.101 97.0297 103.394 95.0887L103.404 95.0681C101.004 91.31 96.2442 84.1346 94.0769 80.5624C95.6163 74.5537 96.3151 73.0876 97.5304 67.3473L100.569 68.9992C101.997 64.7353 105.46 54.1116 106.139 50.2606C106.139 50.2606 107.223 52.3667 108.002 54.8446C109.724 60.3371 111.76 64.8179 113.512 69.5361ZM72.6569 26.5044C71.1782 27.1961 68.4944 28.2079 66.2967 29.0028C65.8004 27.7123 65.7599 26.6799 65.9726 25.1622C67.7855 24.8628 70.5098 24.4705 72.2619 24.4705C73.386 24.4601 73.6899 25.9881 72.6569 26.5044Z" fill="#A6A8AA"/>
<path fill-rule="evenodd" clip-rule="evenodd" d="M124.905 52.6878C124.996 51.4695 125.31 50.3648 125.684 49.0949C126.11 47.6392 126.89 45.564 127.123 43.3753C127.862 36.4683 124.115 30.1085 117.886 29.2C116.225 28.9625 109.622 27.8475 104.994 35.2397C104.113 36.6438 102.857 40.247 102.988 43.0036C100.72 37.2013 97.9347 30.6144 94.8964 25.7517C94.2381 24.8018 90.8251 20.4966 89.8933 20.2075C85.6397 18.9996 80.5658 17.7297 76.5147 17.0586C74.8537 17.2444 62.4372 21.9833 62.0422 22.5718C62.0422 22.5718 60.6143 24.172 60.6143 24.1927C57.6671 24.967 51.5905 25.9685 51.1449 26.5879C49.8384 28.2914 50.7499 29.8814 51.1651 30.5834C51.3069 30.8415 52.2893 34.5273 54.0414 34.5273L58.7406 34.5376C61.0295 30.4182 67.734 30.2118 69.5975 35.7559C67.8353 36.5302 66.4377 37.4078 62.9841 36.9432C58.7913 36.3031 54.5984 37.8311 54.6187 38.4609C54.6491 39.4417 59.561 39.7721 60.8269 39.7927C62.9841 39.8443 66.225 40.0715 69.0405 39.8443C67.6327 41.9815 64.8679 42.8074 62.974 42.8074H55.439C55.7732 44.449 56.4113 46.008 57.3329 47.3914H60.4218C62.4777 47.5153 61.8397 48.3309 61.4042 49.6834C60.6142 52.1199 59.1761 55.816 56.9075 57.9635C49.2814 50.8501 39.0626 41.9505 31.8517 36.2928C29.7451 34.6409 21.0758 33.4846 16.7311 35.25C15.4854 35.7559 14.6954 36.84 14.2599 37.7279L16.4171 38.3886C12.4572 40.9284 14.9081 45.6982 14.9081 45.6982C16.8324 45.2543 19.8504 44.2322 23.0001 49.2188L20.3264 51.4902C21.6835 52.5226 29.8261 53.524 32.1555 51.9857C32.1555 51.9857 41.7768 65.7171 42.7997 66.3055C43.3567 66.6256 38.8904 66.894 33.8975 67.276C29.6033 67.3483 25.5928 67.4206 22.4431 67.4928C19.6073 67.5548 17.5514 69.8571 16.8729 71.8394C16.1741 73.801 15.4246 77.9514 15.7487 79.7581L17.3185 79.2212C19.3035 82.7522 19.4048 83.5471 21.9772 84.5796C23.4153 80.6873 28.8235 81.1003 28.8235 81.1003L28.7627 84.6518C36.2673 84.6002 36.9965 78.7876 36.9965 78.7876L51.6411 78.5398L60.908 90.5573C53.3021 99.0233 48.0053 109.492 42.273 120.684C45.0379 123.368 44.0758 128.83 39.5386 129.346C36.4496 129.697 33.0366 126.641 28.8741 127.642C23.8002 128.83 24.8535 133.176 20.853 138.875C24.8535 139.928 29.0261 142.716 31.7707 146.112C37.2599 142.385 48.38 145.266 52.7248 146.814C53.6869 147.155 54.092 145.276 53.4641 143.697C52.9476 142.406 52.2184 140.403 53.5249 137.13C54.6997 134.198 67.7644 119.971 77.0211 110.938C77.0717 110.886 80.2619 113.477 83.4825 115.996C88.5058 119.951 95.18 123.946 95.18 123.946L96.5168 123.833C102.593 122.439 103.626 128.179 102.958 130.11C102.279 132.04 100.487 133.207 98.2892 133.042C95.8585 132.835 93.1747 131.596 89.9237 133.63C86.6525 135.592 88.0501 142.138 86.0651 144.894C91.5644 144.894 95.9801 147.909 98.1372 149.323C107.12 145.276 109.744 146.515 118.838 148.167C119.476 148.291 119.972 146.412 119.274 145.317C118.615 144.306 117.603 141.59 117.785 139.35V116.058C111.982 116.884 109.318 114.303 108.316 110.958C107.566 108.46 105.368 103.359 103.94 100.107C103.94 100.107 112.883 99.8595 117.714 93.6546C119.517 91.3317 121.066 86.6238 120.236 82.1946C119.091 76.062 118.342 74.0075 116.327 68.6492C114.655 64.1891 111.556 56.0329 110.27 51.3869C108.457 44.8207 108.194 41.8989 110.118 38.2647C111.283 36.0656 113.815 33.9905 116.701 35.4978C118.595 36.4889 118.18 37.0568 117.998 37.4285C115.648 41.3104 114.706 46.328 115.688 49.8796C117.056 54.8249 121.421 58.8204 123.335 60.1213C123.335 60.1213 126.525 62.3513 127.173 61.8248C128.713 60.5755 124.753 54.6287 124.905 52.6878ZM71.7648 24.9257C70.2963 25.6174 67.6125 26.6189 65.4148 27.4139C64.9286 26.1233 64.878 25.1012 65.0907 23.5836C66.9339 23.2738 69.6177 22.8918 71.3698 22.8918C72.4839 22.8918 72.7877 24.4095 71.7648 24.9257ZM109.885 66.6256C112.265 73.0576 113.126 75.8142 113.886 80.1814C114.504 83.671 114.169 86.8406 112.893 88.668C111.404 90.8051 107.455 94.1812 99.7273 92.2402L99.7374 92.2196C97.327 88.4615 93.043 81.6578 90.8858 78.0753C92.4354 72.0459 93.1342 70.5798 94.3495 64.8292C94.3495 64.8292 97.7321 66.8114 97.8841 66.1197C98.4512 63.5696 102.31 51.5728 102.988 47.7011C102.988 47.7011 103.576 49.415 104.366 51.9031C106.087 57.4163 108.133 61.8971 109.885 66.6256Z" fill="white"/>
<path fill-rule="evenodd" clip-rule="evenodd" d="M109.886 66.6652C112.266 73.0972 113.116 75.8435 113.886 80.2107C114.494 83.6487 114.18 86.8079 112.894 88.6456C111.405 90.7828 107.465 94.1795 99.7377 92.2282L99.7478 92.2385C97.3374 88.4805 93.0635 81.6871 90.8962 78.1148C92.4356 72.0855 93.1344 70.6194 94.3497 64.8791C94.3497 64.8791 97.7223 66.8614 97.8742 66.1696C98.4413 63.6299 102.29 51.633 102.968 47.7717C102.968 47.7717 103.556 49.4752 104.346 51.9634C106.098 57.4559 108.144 61.9367 109.886 66.6652ZM82.9257 41.6597C82.9257 58.6535 75.4414 71.1976 74.4792 86.333C73.8614 96.0275 74.4691 102.036 77.082 110.936C77.082 110.936 80.2723 113.455 83.4827 115.984C88.5061 119.928 95.0992 124.027 95.0992 124.027L96.8006 123.852C102.533 122.447 103.536 128.26 102.867 130.18C102.189 132.111 100.487 133.123 98.2995 132.958C95.8689 132.751 93.185 131.512 89.9442 133.546C86.673 135.497 88.0402 142.115 86.0552 144.872C91.5444 144.872 95.9904 147.917 98.1476 149.332C107.121 145.285 109.815 146.575 118.909 148.227C119.537 148.361 120.003 146.41 119.284 145.109C118.707 144.046 117.654 141.465 117.805 139.379L117.785 115.984C111.992 116.81 109.329 114.229 108.326 110.884C107.587 108.386 105.45 103.368 104.032 100.126C104.032 100.126 112.975 99.8785 117.795 93.6736C119.598 91.3506 121.127 87.51 120.459 82.2756C119.73 76.5662 117.785 71.7551 116.631 68.5236C115.03 64.0325 111.749 56.2583 110.473 51.6227C108.66 45.0668 108.093 42.2792 110.149 38.3043C111.283 36.0846 113.846 33.9991 116.722 35.5065C118.616 36.4976 118.2 37.0654 118.018 37.4371C115.668 41.3087 114.727 46.3366 115.709 49.8779C117.076 54.8232 121.441 58.8187 123.355 60.1093C123.355 60.1093 126.606 62.3703 127.255 61.8541C128.784 60.6152 124.814 54.6271 124.956 52.6861C125.047 51.4678 125.351 50.3735 125.725 49.0932C126.151 47.6375 126.981 45.4694 127.214 43.2807C127.953 36.384 124.135 30.0242 117.907 29.1157C116.246 28.8782 109.653 27.7735 105.024 35.1658C104.163 36.5492 102.877 39.9253 103.019 42.9296C100.75 37.1377 98.0058 30.5508 94.9675 25.688C94.3092 24.7382 90.8962 20.433 89.9644 20.1542C86.1564 19.0702 78.662 17.1498 76.5959 17.0156C76.5655 17.0259 82.9257 24.6659 82.9257 41.6597Z" fill="#E6E6E7"/>
</g>
<defs>
<clipPath id="clip0">
<rect width="144.886" height="170" fill="white"/>
</clipPath>
</defs>
</svg>
