<?xml version="1.0" encoding="utf-8"?>
<!-- Generator: Adobe Illustrator 24.0.2, SVG Export Plug-In . SVG Version: 6.00 Build 0)  -->
<svg version="1.1" id="Слой_1" xmlns="http://www.w3.org/2000/svg" xmlns:xlink="http://www.w3.org/1999/xlink" x="0px" y="0px"
	 viewBox="0 0 2253.9 1728" style="enable-background:new 0 0 2253.9 1728;" xml:space="preserve">
<style type="text/css">
	.st0{fill-rule:evenodd;clip-rule:evenodd;fill:#E0922F;}
	.st1{fill-rule:evenodd;clip-rule:evenodd;fill:#FFFFFF;}
	.st2{fill-rule:evenodd;clip-rule:evenodd;}
</style>
<g>
	<path class="st0" d="M921.5,1070.8l205.4,123.8l205.4-123.8v486.8c-67.5,8.4-137.9,11.2-205.4,11.2c-67.5,0-137.9-2.8-205.4-11.2
		V1070.8z M1127,170.3c-53.5,0-185.7,92.9-185.7,92.9c-32.3,20.6-63.3,43.2-92.9,67.5l278.6,166l278.6-166
		c-29.6-24.3-60.6-46.9-92.8-67.5C1312.7,263.2,1180.4,170.3,1127,170.3L1127,170.3z M1332.4,856.9V586.8L1127,713.4L921.5,586.8
		v270.1L1127,980.8L1332.4,856.9z M156.1,1304.4v11.3c2.8,2.8,5.6,8.4,8.4,11.2c25.3,25.4,98.5,59.1,98.5,59.1
		c53.5,22.5,106.9,45,160.4,64.7l11.2-695c-98.5,132.2-182.9,281.4-247.6,436.2C187.1,1191.8,156.1,1265,156.1,1304.4z
		 M1515.3,420.8v326.4l202.6-121C1653.2,553,1588.4,485.5,1515.3,420.8L1515.3,420.8z M1819.2,755.7l8.5,695
		c56.3-19.7,109.7-42.2,163.2-64.7c0,0,73.2-33.7,98.5-59.1c2.8-2.8,5.6-8.4,8.4-11.2v-11.3c0-39.4-31-112.6-31-112.6
		C2002.1,1037.1,1917.7,887.9,1819.2,755.7L1819.2,755.7z M1515.3,1532.3c45-8.5,87.2-16.9,129.4-28.1
		c-2.8-247.6-8.4-616.3-8.4-616.3l-121,73.2L1515.3,1532.3L1515.3,1532.3z M738.6,1532.3V961.1l-121-73.2c0,0-5.6,368.7-8.4,616.3
		C651.4,1515.4,693.6,1523.8,738.6,1532.3z M738.6,420.8C665.4,485.5,600.7,553,536,626.2l202.6,121V420.8L738.6,420.8z"/>
	<path class="st1" d="M1340.8,223.8c0,0-152-104.1-213.9-104.1c-61.9,0-213.9,104.1-213.9,104.1
		c-337.7,236.4-607.8,565.6-768.2,951.1c0,0-42.2,95.7-42.2,143.5c0,8.4,0,11.3,2.8,16.9c2.8,5.6,5.6,11.3,8.4,14.1
		c33.8,36.6,129.4,78.8,129.4,78.8c270.1,118.2,571.3,185.7,883.6,185.7c312.4,0,613.4-67.5,883.6-185.7c0,0,95.7-42.2,129.4-78.8
		c2.8-2.8,5.6-8.4,8.5-14.1c2.8-5.6,2.8-8.5,2.8-16.9c0-47.8-42.2-143.5-42.2-143.5C1948.6,789.4,1678.5,460.2,1340.8,223.8
		L1340.8,223.8z M1487.1,358.9c99.2,82.3,190.6,173.7,272.9,272.9l-272.9,166V358.9z M924.3,237.9c0,0,143.5-98.5,202.6-98.5
		c59.1,0,202.6,98.5,202.6,98.5c45,31,84.4,61.9,126.6,95.7l-329.2,197l-329.2-197C839.9,299.8,879.3,268.8,924.3,237.9z
		 M766.8,358.9v439l-272.9-166C576.2,532.6,667.5,441.2,766.8,358.9L766.8,358.9z M451.6,1490.1c-67.5-22.5-135.1-47.8-199.8-78.8
		c0,0-87.2-36.6-118.2-70.3c-2.8-2.8-5.6-8.5-8.4-11.3c-2.8-5.6-2.8-11.3-2.8-16.9c0-42.2,36.6-132.3,36.6-132.3
		c78.8-185.7,182.9-357.4,306.7-512.1L451.6,1490.1L451.6,1490.1z M766.8,1566.1c-64.7-11.3-126.6-22.5-188.5-39.4l11.3-689.4
		l177.3,106.9V1566.1L766.8,1566.1z M1360.5,1585.8c-76,5.6-154.8,11.3-233.5,11.3c-78.8,0-157.6-5.7-233.6-11.3v-565.6l233.6,140.7
		l233.5-140.7V1585.8z M1487.1,1566.1V944.2l177.3-106.9l11.2,689.4C1613.8,1543.6,1551.9,1554.8,1487.1,1566.1L1487.1,1566.1z
		 M1692.5,1521l-11.2-714.8l-211.1,126.6v635.9c-30.9,5.6-61.9,11.3-92.8,14.1V989.2l-250.4,152l-250.4-152V1583
		c-31-2.8-61.9-8.4-92.9-14.1V932.9l-211-126.6l-11.3,714.8c-30.9-8.4-61.9-16.9-90-25.3l11.2-849.8L783.6,826V344.8L1127,550.2
		l343.3-205.4V826l301.1-180.1l11.2,849.8C1754.5,1504.2,1723.5,1512.6,1692.5,1521z M2128.7,1329.7c-2.8,2.8-5.6,8.4-8.4,11.3
		c-30.9,33.8-118.2,70.3-118.2,70.3c-64.7,31-132.3,56.3-202.6,78.8l-11.3-821.7c123.8,154.8,227.9,326.4,306.7,512.1
		c0,0,36.6,90,36.6,132.3C2131.5,1318.4,2131.5,1324.1,2128.7,1329.7L2128.7,1329.7z"/>
	<path class="st2" d="M2168.1,1149.6c-166-396.8-444.6-734.4-793.5-976.4c0,0-174.5-123.8-247.6-123.8
		c-73.2,0-247.6,123.8-247.6,123.8c-348.9,242-627.5,579.6-793.5,976.4c0,0-53.4,129.4-53.4,194.2c0,5.6,0,14.1,2.8,19.7
		c2.8,8.5,5.6,14.1,11.3,19.7c45,45,171.6,101.3,171.6,101.3c278.6,123.8,585.3,194.2,908.9,194.2s630.3-70.3,908.9-194.2
		c0,0,126.7-56.3,171.7-101.3c5.6-5.6,8.5-11.3,11.2-19.7c2.8-5.6,2.8-14,2.8-19.7C2221.6,1279,2168.1,1149.6,2168.1,1149.6
		L2168.1,1149.6z M2148.4,1335.3c-2.8,5.6-5.7,11.3-8.5,14.1c-33.8,36.6-129.4,78.8-129.4,78.8
		c-270.1,118.2-571.2,185.7-883.6,185.7c-312.3,0-613.4-67.5-883.6-185.7c0,0-95.7-42.2-129.4-78.8c-2.8-2.8-5.6-8.4-8.4-14.1
		c-2.8-5.6-2.8-8.5-2.8-16.9c0-47.8,42.2-143.5,42.2-143.5c160.4-385.5,430.5-714.8,768.2-951.1c0,0,152-104.1,213.9-104.1
		c61.9,0,213.9,104.1,213.9,104.1c337.7,236.4,607.8,565.6,768.2,951.1c0,0,42.2,95.7,42.2,143.5
		C2151.2,1326.9,2151.2,1329.7,2148.4,1335.3L2148.4,1335.3z"/>
	<path class="st2" d="M1470.2,826V344.8L1127,550.2L783.6,344.8V826L482.6,645.9l-11.2,849.8c28.1,8.4,59.1,16.9,90,25.3l11.3-714.8
		l211,126.6v635.9c31,5.6,61.9,11.3,92.9,14.1V989.2l250.4,152l250.4-152V1583c31-2.8,61.9-8.4,92.8-14.1V932.9l211.1-126.6
		l11.2,714.8c31-8.4,61.9-16.9,90-25.3l-11.2-849.8L1470.2,826L1470.2,826z M1377.4,882.3l-250.4,152l-250.4-152V508L1127,657.2
		L1377.4,508V882.3z"/>
</g>
</svg>
