<?xml version="1.0" encoding="utf-8"?>
<!-- Generator: Adobe Illustrator 24.0.2, SVG Export Plug-In . SVG Version: 6.00 Build 0)  -->
<svg version="1.1" id="Слой_1" xmlns="http://www.w3.org/2000/svg" xmlns:xlink="http://www.w3.org/1999/xlink" x="0px" y="0px"
	 viewBox="0 0 1007.2 1387.6" style="enable-background:new 0 0 1007.2 1387.6;" xml:space="preserve">
<style type="text/css">
	.st0{fill:#1A377A;}
	.st1{fill-rule:evenodd;clip-rule:evenodd;fill:#CB9F18;}
	.st2{fill:#CB9F18;}
	.st3{fill:#E3B80F;}
	.st4{fill:#DA442D;}
	.st5{fill:#C83E29;}
</style>
<g>
	<path class="st0" d="M516.5,1364.6C762.4,1171.1,878,920.7,929.4,723.8C982,522.2,990,328.5,989.8,321.5l-0.3-10.9l-8.1-6.7
		C781,118.7,522.3,19.6,510.2,15.6l-6.5-2.2l-6.5,2.2C485,19.6,232.6,118.7,25.9,304l-8.2,6.7l-0.3,10.9
		c-0.2,6.9,5.5,201.2,60.2,402.3c50.6,185.9,158.2,454.6,413.1,640.8l12.8,9.4L516.5,1364.6z"/>
	<g>
		<path class="st1" d="M504,197.7c-43,14-291.8,97.4-443.3,210.4C61.2,488.5,88,1010,504,1334c406.4-323.9,442.2-845.5,442.7-925.9
			C795.1,295.1,547,211.7,504,197.7L504,197.7z"/>
		<path class="st2" d="M493.7,48.2l0.6,24.4c-9-6.3-21.3-9.7-35.4-9.7c-6.6,0-15.2,1.6-22.5,4.5l1.3,16.7c7.6-4.3,14.7-5.1,21.9-5.1
			c20.7,0,35.4,15.5,35.4,36c0,20.4-14.6,36-36,36c-7.9,0-17.1-1.4-21.9-3.9l-0.6,16.7c7.3,1.7,14.9,3.2,22.5,3.2
			c13.8,0,26.1-3.1,35.4-9l-0.7,21.9h20v-21c9,5.3,20.5,8.4,33.5,8.4c7.6,0,15.2-1.5,22.5-3.2l-0.6-16.7c-4.7,2.5-14,3.9-21.9,3.9
			c-21.4,0-34.1-15.6-34.1-36c0-20.6,12.8-36,33.5-36c7.2,0,14.2,0.8,21.9,5.1l1.3-16.7c-7.2-2.8-14.8-4.3-22.5-4.5
			c-13.3,0-24.6,3.4-33.5,9V48.4h-10.3h-9.8V48.2z M503.3,197.5v65.6l153.1-9C606.1,233.4,555,214.5,503.3,197.5L503.3,197.5z
			 M503.3,263.1v126.8l243.2-22.5l198.2,76.5c0.9-15.8,1.2-28.1,1.3-36c-22.6-16.8-47.4-32.8-73.4-48.2l-126.1,7.1L503.3,263.1z
			 M503.3,389.9v127.4l243.2-32.2l187.2,65.6c4.7-32.4,7.2-61,9-84.3l-196.3,18L503.3,389.9z M503.3,517.3v127.4l243.2-41.2
			l167.9,52.1c6.1-27.1,10.8-52.7,14.8-76.6l-182.7,23.2L503.3,517.3z M503.3,644.6v126.8l243.2-50.2l140.3,38.6
			c6.9-22.5,12.6-44.4,18-65.6l-158.3,26.4L503.3,644.6z M503.3,771.4v127.4L746.5,839l103.6,24.4c6.8-16.9,12.8-33.6,18.7-50.2
			l-122.3,25.1L503.3,771.4z M503.3,898.8v126.7l243.2-68.2l56,10.9c5-9.7,9.5-19.3,14.2-28.9L746.6,956L503.3,898.8z M503.3,1025.5
			v127.4l235.5-75.3c0.9-1.4,1.7-3.1,2.6-4.5L503.3,1025.5z M503.3,1152.9v127.4l101-36.7c20.6-20.8,40.4-42.5,59.2-65L503.3,1152.9
			z M503.3,1280.3v53.4c19.2-15,37.9-30.7,56-47L503.3,1280.3z"/>
	</g>
	<path class="st3" d="M503.3,197.5c-19.2,6.2-79.8,26.2-153.8,56.6l153.8,9V197.5z M503.3,263.1L260.1,366.7L134,359.6
		C108.1,375,83.3,391,60.7,407.8c0,7.9-0.3,20.2,0.6,36l198.8-76.5l243.2,22.6V263.1z M503.3,389.9l-243.2,94.6l-196.8-18
		c1.8,23.3,4.9,51.8,9.6,84.3l187.2-65.6l243.2,32.2V389.9z M503.3,517.3l-243.2,84.9L76.7,579c4,23.9,9.4,49.4,15.4,76.5L260,603.4
		l243.2,41.2L503.3,517.3z M503.3,644.6l-243.2,75.9l-158.9-27c5.4,21.3,11.7,43.7,18.7,66.3l140.3-38.6l243.2,50.2L503.3,644.6z
		 M503.3,771.4l-243.2,66.9l-122.9-25.1c5.9,16.7,12.5,33.1,19.3,50.2L260.1,839l243.2,59.8V771.4z M503.3,898.8l-243.2,57.3
		l-70.8-16.7c4.7,9.7,9.1,19.1,14.1,28.9l56.6-10.9l243.2,68.2L503.3,898.8z M503.3,1026.2l-238.7,46.9l2.6,3.9l236.1,75.9V1026.2z
		 M503.3,1152.9l-160.9,25.7c18.8,22.5,38.6,44.1,59.2,65l101.7,36.7V1152.9z M503.3,1280.3l-56.6,7.1c17.9,16,37.1,31.1,56.6,46.3
		V1280.3z"/>
	<path class="st4" d="M350.2,254.3C283,281.8,204.3,318,134,359.8l126.1,7.1l243.2-103.6L350.2,254.3z M260.1,367.5L61.9,444.1
		c0.4,6.8,0.7,14.4,1.3,22.5l196.9,18L503.3,390L260.1,367.5z M260.1,485.3L72.9,550.9c1.3,9.1,2.3,18.7,3.9,28.3l183.4,23.2
		l243.2-84.9L260.1,485.3z M260.1,603.7L92.2,655.8c2.8,12.4,5.7,25,9,38l158.9,27l243.2-75.9L260.1,603.7z M260.1,721.4L119.9,760
		c5.4,17.5,11,35.3,17.4,53.4l122.9,25.1l243.2-66.9L260.1,721.4z M260.1,839.1l-103.6,24.5c10.1,25.7,21.1,51,32.8,75.9l70.8,16.7
		l243.2-57.3L260.1,839.1z M260.1,957.5l-56.6,11c18.5,36,38.9,71,61.1,104.9l238.7-47.6L260.1,957.5z M267.2,1077.2
		c23.1,35.3,48.2,69.3,75.3,101.6l160.9-25.7L267.2,1077.2z M401.7,1243.8c14.6,14.7,29.2,29.5,45,43.8l56.6-7.1L401.7,1243.8z"/>
	<path class="st5" d="M656.5,254.3l-153.1,9l243.1,103.6l126.1-7.1C802.4,318,723.6,281.9,656.5,254.3L656.5,254.3z M746.5,367.5
		L503.3,390l243.2,94.6l196.9-18c0.6-8.2,0.9-15.6,1.3-22.5L746.5,367.5z M746.5,485.3l-243.2,32.2l243.2,84.9l182.7-23.2
		c1.6-9.7,3.2-19.2,4.5-28.3L746.5,485.3z M746.5,603.7l-243.2,41.2l243.2,75.9l158.3-26.4c3.3-13.1,6.8-26.1,9.6-38.6L746.5,603.7z
		 M746.5,721.4l-243.2,50.2l243.2,66.9l122.3-25.1c6.4-18.1,12.6-35.8,18-53.4L746.5,721.4z M746.5,839.1L503.3,899l243.2,57.2
		l70.1-16.7c12-24.9,23.1-50.2,33.4-75.9L746.5,839.1z M746.5,957.5l-243.2,68.2l238,47.6c22.2-33.9,42.6-68.9,61.1-104.9
		L746.5,957.5z M738.8,1077.8l-235.5,75.3l160.2,25.7C690.6,1146.7,715.7,1112.9,738.8,1077.8z M604.3,1243.8l-101,36.6l56,6.4
		C574.8,1273,589.8,1258.7,604.3,1243.8z"/>
	<path class="st2" d="M503.3,48.4v131.9h10.3v-21.2c9,5.3,20.5,8.3,33.5,8.3c7.6,0,15.2-1.5,22.5-3.2l-0.6-16.7
		c-4.7,2.4-14,3.9-21.9,3.9c-21.4,0-34.1-15.6-34.1-36c0-20.6,12.8-36,33.5-36c7.2,0,14.2,0.8,21.9,5.1l1.3-16.7
		c-7.2-2.8-14.8-4.4-22.5-4.5c-13.3,0-24.6,3.4-33.5,9V48.5L503.3,48.4z"/>
	<path class="st3" d="M493.7,48.4l0.6,24.5c-9-6.3-21.3-9.7-35.4-9.7c-6.6,0-15.2,1.6-22.5,4.5l1.3,16.7c7.6-4.3,14.7-5.1,21.9-5.1
		c20.7,0,35.4,15.5,35.4,36c0,20.4-14.6,36-36,36c-7.9,0-17.1-1.4-21.9-3.9l-0.6,16.7c7.3,1.7,14.9,3.2,22.5,3.2
		c13.8,0,26.1-3,35.4-9l-0.7,21.9h9.7V48.4H493.7z"/>
</g>
</svg>
