<?xml version="1.0" encoding="utf-8"?>
<!-- Generator: Adobe Illustrator 24.0.2, SVG Export Plug-In . SVG Version: 6.00 Build 0)  -->
<svg version="1.1" id="Слой_1" xmlns="http://www.w3.org/2000/svg" xmlns:xlink="http://www.w3.org/1999/xlink" x="0px" y="0px"
	 viewBox="0 0 1667 1735.6" style="enable-background:new 0 0 1667 1735.6;" xml:space="preserve">
<style type="text/css">
	.st0{fill:#0967D2;}
</style>
<path class="st0" d="M531.3,48.5c-8.4,8.4-16.5,14.5-18.5,14c-3.4-1.4-15.4,19.3-15.4,26.6c0,3.6-7.6,16.2-13.1,22.1
	c-2,2-3.6,5.9-3.6,8.4c0,5-12.6,21.5-28,36.9c-26.6,26-81.7,62.4-91.4,59.8c-7.6-2-10.1,5.3-6.4,17.9c2.8,10.3,0.6,36.9-3.1,36.9
	c-1.4,0-2.5,2.2-2.5,5c0,3.1-2.8,7.6-5.9,10.6c-3.4,2.8-8.9,9.8-12.3,15.1c-7.6,12-33.8,39.2-44.2,46.1c-4.2,2.5-7.6,6.2-7.6,8.1
	c0,1.7,5.3,7.6,11.7,13.1c10.9,9.5,11.7,11.2,12.9,26.8c1.4,19-2.2,28.5-16.5,42.5c-5,5.3-9.8,13.7-11.5,20.4
	c-1.4,6.4-4.8,59.6-7.8,118c-5.3,107.7-6.2,114.1-18.5,143.7c-2.2,5-3.9,11.7-3.9,14.8c0,3.4-1.7,9.8-3.6,14.5
	c-19.6,45.9-24.6,85.3-24.9,192.1c0,97.6,8.4,150.2,29.1,180.7c3.6,5.3,7.6,9.5,8.7,9.5c1.1,0,13.7,11.7,28,26s34.1,32.4,44.2,40.5
	s21.3,19.6,24.3,25.4c7.3,12.9,19.3,50.3,21.5,68c1.4,11.2,3.6,15.1,15.1,25.2c7.3,6.7,19,15.7,25.7,20.4c6.7,4.5,12.9,8.9,13.7,9.8
	c3.1,3.4,28.2,19.6,30.5,19.6c7.3,0,34.7,33.6,48.9,60.1c4.2,7.6,9.8,17.3,12.3,21.3c2.5,4.2,7.8,12.9,11.7,19.3
	c6.7,11.2,10.9,13.7,74.7,45.3c62.9,30.8,81.9,42.8,81.9,51.7c0,6.2,29.4,33.6,42.5,39.7c17.3,7.8,41.7,7.8,57.6,0.3
	c12.6-6.2,38.6-35.2,41.4-46.4c3.4-13.1-8.9-48.7-17.1-48.7c-2.2,0-5-1.7-6.2-3.9c-4.2-7.3-23.8-18.2-36.1-20.1
	c-6.7-0.8-13.1-2.8-14-4.2c-0.8-1.4-3.9-2.5-7.3-2.5c-4.8,0-5.3,1.1-3.6,6.2c1.1,3.6,2.2,10.9,2.5,16.2c0.3,7.3-0.8,9.8-4.8,10.6
	c-12.3,2.5-18.7-2.2-31.3-23.8c-7-12-12.6-23.5-12.6-25.7c0-5-10.9-27.7-14.3-29.9c-1.4-0.8-2.5-3.6-2.5-6.4s-2-6.7-4.2-8.7
	s-4.2-5.3-4.2-7.3c0-7.6-21.3-24.3-46.1-36.1c-22.7-10.9-26.3-13.4-35.5-28c-9.2-14-10.1-17.1-8.1-26c2-9.8,2.5-10.3,13.1-9.8
	c5.9,0.3,14.8,2.5,19.3,4.8c4.8,2.5,10.1,4.5,12,4.5c2,0,10.3,3.1,18.2,6.7c15.9,7.3,22.7,8.9,49.5,13.1c10.1,1.7,21.5,4.8,25.7,7
	c3.9,2,8.7,3.9,10.6,3.9c5.6,0,24.9,17.3,36.9,33.3c6.4,8.7,13.4,17.3,15.4,19.3s3.6,4.8,3.6,5.9c0,1.4,8.7,7.8,19.6,14.5
	c14,8.7,23.5,17.6,33.6,31c7.6,10.3,14,19.3,14,20.1c0,5,25.7,37.5,35,44.2c20.1,14,23.5,18.2,33.6,39.4c5.3,11.7,9.8,22.1,9.8,22.9
	c0,1.7,9.8,24,17.9,40.5c3.4,6.7,4.2,7,31,7c24.9-0.3,29.6-1.1,42.5-7.8c8.1-4.2,15.9-7.6,17.3-7.6c1.4,0,5,4.2,8.1,9.5
	c10.3,17.6,41.4,25.7,68.8,18.2c9.2-2.5,11.5-2.2,15.7,2.2c5,5.3,15.4,40.8,13.1,44.7c-0.8,1.1-0.3,5,1.1,8.4
	c2.2,6.4,3.1,6.4,49.5,6.4h47l14.8-15.1c8.4-8.4,18.7-16.8,23.2-18.7c5.3-2.2,7.8-5.3,7.8-9.2c0-7-15.4-32.4-19.6-32.4
	c-1.4,0-2.8-1.7-2.8-3.6c-0.3-1.7-3.9-8.4-8.4-14.5c-14.3-19.6-33.6-51.7-33.6-55.9c0-2.2-1.7-5-3.6-6.2
	c-4.5-2.5-10.3-18.5-10.3-27.7c0-3.6-1.7-7.6-3.9-8.7c-4.8-2.8-22.4-25.7-28-36.9c-2.5-4.5-10.3-16.8-17.3-26.8
	c-12.3-17.6-13.1-20.1-15.4-44.2c-1.4-14.3-4.2-30.2-6.4-35.5c-7-18.2-12.9-38.6-12.9-43.9c0-3.1-2-7.8-4.2-10.9
	c-2.2-2.8-4.2-8.1-4.2-11.7c0-3.9-2.5-7.3-6.7-8.7c-7.8-3.1-21-20.7-31.3-41.9c-11.5-23.5-12-25.2-15.4-47.8
	c-7.6-53.1-15.4-92.3-19-95.9c-1.7-1.7-3.1-6.4-3.1-10.3s-2-9.8-4.2-12.9c-2.2-2.8-4.2-7.8-4.2-11.2c0-3.1-2-8.1-4.2-11.2
	c-2.2-2.8-4.2-8.1-4.2-11.7c0-5.6-9.8-27.4-14.3-31.3c-2.8-2.8-13.7-25.4-13.7-28.8c0-2-1.4-5-3.1-6.7c-2-2-3.6-17.6-4.2-40.5
	c-0.8-39.4-7.3-114.7-12-137.9c-1.7-7.8-5-26-7.3-40.5c-3.4-19-7.3-31.6-14.3-44.2c-5.6-10.6-9.5-21.5-9.5-27.4
	c0-8.9,1.1-10.3,12.9-15.7c9.5-4.2,16.5-5.3,26-4.2c47.3,5.6,65.7,8.1,84.2,12.3c16.5,3.9,33.6,5,81.1,4.8c54.3,0,61.5-0.6,75.5-5.9
	c17.6-7,19.6-9.8,9.8-14.3c-18.5-8.4,1.4-27.4,36.4-35c12.3-2.8,27.4-6.2,33.6-7.8c6.2-1.7,15.7-3.9,21-5.3
	c26.8-6.7,46.7-18.5,43.9-26.3c-1.1-2.8-5-4.5-10.3-4.5c-6.2,0-8.4-1.4-8.4-5c0-6.7,8.4-14.5,15.7-14.5c2.8-0.3,8.4-2,12.3-4.2
	s10.3-3.9,14.5-4.2c4.2,0,8.1-1.1,8.9-2.5s5.6-3.4,10.6-4.2c10.3-2.2,21.5-10.6,28.8-22.1c7-10.9,2.8-14.5-11.5-10.3
	c-8.4,2.5-39.4,2.2-131.2-0.8c-131.4-4.2-203.6-3.9-253.1,0.6c-38.3,3.6-92.6,14.3-109.6,21.5c-24.9,10.9-74.1,35.5-86.7,43.6
	c-15.1,9.5-20.4,9.5-66.6,0.8c-21.8-3.9-33.3-4.5-64.3-2.8c-55.9,3.1-56.2,3.1-61.8-3.9c-3.1-3.6-4.5-7.8-3.1-9.8
	c1.1-1.7,2-43.9,2-94c0-113.3-1.7-107.4,34.4-109.9c26-2,55.7-8.4,60.4-13.1c1.4-1.4,5-2.8,7.6-2.8s9.8-5.3,16.2-12
	c11.2-11.7,12.9-12.3,36.1-15.4c40.5-5.3,71.3-5.9,77.5-1.7c6.7,5,24.9,5,34.4,0c10.3-5.3,18.7-15.4,22.7-26.6
	c6.2-19,6.2-19-24.6-17.6c-39.7,2-54-3.9-48.1-19.9c5.6-14.5,8.9-15.4,65.7-21.3c24.3-2.5,28.8-3.9,35.8-10.6
	c10.9-10.3,11.2-24.9,0.3-28.8c-4.5-1.7-11.5-4.8-15.9-7.3c-5.9-3.4-10.9-3.9-19.6-2.5c-35.2,6.7-54,0.6-50.3-16.5
	c3.1-15.1,7-17.1,23.2-11.7c20.7,6.7,25.4,6.2,25.4-3.6c0-8.4-5.6-14.8-13.4-15.9c-2.8-0.3-12.9-2-22.9-3.6c-11.5-2-44.7-2.2-90-1.1
	c-66,1.7-74.7,1.1-102.1-4.2c-16.8-3.1-41.4-7.3-55.4-8.9c-35-4.5-43.3-10.9-33.8-26c2.2-3.4,4.8-8.9,5.9-12.3
	c1.4-5.3,0.8-6.2-3.4-4.5c-2.8,0.8-7,3.4-9.2,5c-4.2,3.6-43.1,12.6-54.3,12.6c-3.4,0-8.4-1.7-11.2-3.6c-4.2-3.1-4.5-5.9-1.7-27.7
	c2.8-22.4,2-33-2.5-33C546.9,33.4,539.4,40.1,531.3,48.5L531.3,48.5z M711.6,154.2c4.5,3.4,8.7,6.4,8.9,6.7c0.6,0.3,2,5,3.4,10.6
	c1.7,8.1,1.1,10.6-3.9,15.4c-8.9,8.4-24.9,10.1-39.4,4.5c-20.7-7.8-24.3-17.3-11.5-31.9C680.6,146.6,698.8,144.4,711.6,154.2
	L711.6,154.2z M618.8,374.6c4.8,4.8,5,7.3,2,45c-2,22.1-4.5,56.5-6.2,76.6c-1.7,19.9-2.5,69.9-1.7,111c0.8,71.6,0.8,74.9-4.2,76.6
	c-9.2,2.8-15.4-5.9-17.1-24.9c-1.7-17.9-5-34.1-12.6-60.4c-3.4-12.3-4.2-31.9-3.9-102.1c0.3-128.9,1.7-135.6,26.3-129.8
	C607.9,368.4,615.7,372,618.8,374.6L618.8,374.6z M709.7,619.2c14.5,2.2,27.7,5.3,29.1,6.7c1.7,1.7,5.3,3.1,7.8,3.1
	c2.8,0,14.5,4.2,26,9.5c19,8.7,21.5,9.2,25.4,5.6c2.2-2.5,4.2-8.7,4.2-14c0-14.3,3.4-13.7,50.3,8.1c10.1,4.8,25.4,14.5,34.4,21.8
	c19.3,15.9,44.5,46.1,49.5,59c1.7,5,5,13.7,7.3,19c5.3,13.7,9.5,42.5,9.5,65.7c-0.3,17.3-2,30.5-10.9,76.9c-1.4,7-5.3,19.6-8.7,28
	s-6.4,19.6-7,24.6c-0.6,12-10.3,21.8-27.7,27.7c-15.4,5.3-16.5,5.6-26,6.2c-10.9,0.6-11.5,19.9-0.6,19.9c8.9,0,24.3,7.6,32.2,15.9
	c22.9,24.3,32.2,50.6,21.5,61.2c-7,7-21.5,12.3-33.3,12.3c-9.2,0-12.3-2-26-17.1c-23.5-25.7-31.3-28.5-55.9-20.4
	c-10.1,3.1-15.1,3.6-21,1.1c-7.3-2.8-7.8-3.9-6.4-13.4c2-12,18.5-28.5,28.8-28.5c3.4,0,8.1-3.1,10.9-7.3c4.5-7,4.5-8.1,0.3-17.1
	c-2.5-5-4.5-10.6-4.5-12s-6.2-11.7-14-22.9c-7.6-11.2-14-21.5-14-23.2s-3.4-6.7-7.6-11.5c-4.5-4.5-10.3-12-13.1-16.5
	c-6.2-9.2-12.6-17.3-58.4-69.9c-17.3-20.1-32.7-38.3-34.1-40.5c-1.7-2.2-3.6-11.7-4.8-21s-3.4-25.7-4.8-36.4
	c-5-35.8-8.9-88.9-7-94.8C664.9,613.7,669.7,613.1,709.7,619.2L709.7,619.2z M713.3,902.5c2,2,5.3,3.4,7.8,3.4
	c11.2,0,41.9,45.3,41.9,61.5c0,9.5-5.3,25.2-8.7,25.2c-1.4,0-2.5,2.5-2.5,5.9c0,8.1-12.9,23.8-25.2,30.8c-9.5,5.3-10.9,7.6-14,23.2
	c-3.6,19-7.8,25.2-22.9,32.7c-18.7,9.5-44.2,5-44.2-7.8c0-12.6,7.8-27.4,20.4-37.8c7.3-6.2,13.1-12.9,13.1-15.1s1.4-6.4,3.4-9.2
	c2.5-4.2,2-7-3.1-15.4c-3.6-5.6-7.8-9.8-9.5-9.5c-2,0.3-13.1-6.4-24.9-15.4c-17.3-12.9-22.1-17.9-24.3-26.6
	c-5.3-18.7-3.9-32.7,4.5-42.5l7.6-8.9l38.6,1.1C695.7,898.9,711.4,900.6,713.3,902.5L713.3,902.5z M433.9,989.5
	c23.2,15.7,66,54.8,71.6,65.7c5.9,10.6,18.7,17.6,36.6,19.3c16.8,1.4,43.9,9.5,46.4,13.4c0.8,1.4,6.7,2.5,13.4,2.5
	c15.7,0,22.1,6.7,20.7,21.3c-0.8,9.8-2.2,11.5-17.3,20.1c-20.7,12-34.1,13.7-65.4,8.1c-13.4-2.5-37.8-5.6-54.3-7
	c-26.6-2.2-32.2-3.6-54.5-14.3c-50.6-24.3-59.8-37.5-64-91.7c-1.7-19.6-1.4-20.4,6.2-27.7c8.1-7.3,34.1-23.5,38.3-23.5
	C412.7,975.8,422.8,982,433.9,989.5L433.9,989.5z M980.9,1145.8c21.8,14.3,30.5,28.5,45.3,76.1c3.1,10.1,7.6,21.8,10.1,26.6
	c2.2,4.5,10.1,19.6,17.1,33.6c7.3,13.7,18.2,34.4,24.9,45.6s12,21.3,12,22.4s5.6,10.3,12.3,20.4c9.8,15.4,12.3,21.5,13.7,35.8
	c1.4,15.9,0.8,17.6-5.3,21.5c-13.7,9.2-38.6,4.2-47.5-9.5c-4.2-6.2-4.8-13.4-4.8-40.5c0.6-32.2,0.3-33-7-40.3
	c-4.2-4.2-8.7-9.8-10.3-12.3c-16.2-28-23.2-37.5-38.3-52c-9.8-9.2-23.2-19.6-29.6-22.9c-22.4-11.5-48.4-63.5-44.5-88.6
	c0.8-5.6,3.6-13.1,6.4-17.1c4.2-6.7,5.3-7,21.3-5.3C966.1,1140.2,976.7,1143.3,980.9,1145.8L980.9,1145.8z M861,1191.7
	c15.9,30.2,32.7,50.9,50.3,61.8c19.3,11.5,34.1,24.1,43.9,37.2c10.9,14.3,31.9,62.1,38.9,89.2c6.7,26,23.8,59,40.5,78.6
	c4.2,5,9.8,15.1,12.6,22.4c2.8,7.6,6.7,16.8,8.7,20.7c4.5,8.7,4.8,20.1,0.3,24.6c-6.7,6.7-17.3,3.1-49.5-16.2
	c-42.5-25.7-42.2-25.7-45.3-39.4c-2.8-12.3-17.1-28.2-50.9-57c-16.5-13.7-27.1-29.6-27.1-40.3c0-2.8-1.7-5.9-3.9-6.7
	c-2-0.8-4.8-5-5.9-9.5c-0.8-4.2-2.8-8.4-3.9-9.2c-1.1-0.8-5.6-8.4-9.5-17.3c-8.1-16.8-24.3-32.7-52.3-50.6
	c-8.4-5.3-19-13.4-23.5-18.2c-7-7.6-7.6-9.8-5.9-20.7c1.1-6.4,4.5-16.8,7.6-22.7c7.3-14.3,26.8-35.5,32.7-35.5c2.8,0,7.3-2,10.3-4.2
	c2.8-2.2,9.2-4.2,14-4.2C851.2,1174.4,852.9,1176,861,1191.7L861,1191.7z M495.7,1218.8c13.4,11.2,32.4,46.1,41.1,75.2
	c1.7,5.3,5.9,15.1,9.8,22.1c3.6,7,6.7,13.7,6.7,14.8c0,7.3,22.4,34.4,36.4,44.7c24.6,17.6,25.7,35.8,2.5,41.9
	c-18.2,5-28.2,2.8-33.3-7c-2.5-4.8-7.8-13.7-12-20.1c-4.2-6.7-7.6-12.6-7.6-13.4s-2.8-5.6-6.2-10.6c-24.1-34.4-35.2-47.8-45.3-54.8
	c-6.2-4.5-18.2-14.5-26-22.1c-14.8-14-14.8-14.3-14.8-31.3c0-32.2,13.4-48.9,36.4-45.3C487.4,1213.8,492.9,1216.3,495.7,1218.8
	L495.7,1218.8z M1135.6,1502.1c10.6,8.7,48.4,79.1,51.2,95.4c1.4,9.5,0.6,11.7-7.8,20.1c-7.6,7.6-12,9.8-19.9,9.8
	c-12,0-15.4-5.3-15.4-22.7c0-6.7-1.4-25.2-3.4-40.5l-3.4-28.2h-11.2c-14.8,0-23.8-9.5-17.9-18.7c2.2-3.4,5.3-8.7,7.3-12.3
	C1118.8,1498.2,1128.6,1496.8,1135.6,1502.1L1135.6,1502.1z"/>
</svg>
