<?xml version="1.0" encoding="utf-8"?>
<!-- Generator: Adobe Illustrator 24.0.2, SVG Export Plug-In . SVG Version: 6.00 Build 0)  -->
<svg version="1.1" id="Слой_1" xmlns="http://www.w3.org/2000/svg" xmlns:xlink="http://www.w3.org/1999/xlink" x="0px" y="0px"
	 viewBox="0 0 260 569" style="enable-background:new 0 0 260 569;" xml:space="preserve">
<style type="text/css">
	.st0{fill-rule:evenodd;clip-rule:evenodd;}
</style>
<path class="st0" d="M204.1,275.5c-0.3-68.4-4.2-145.7-15-216.8c0,0-22.5-2.7-51.8-3.1c-2-27.9-3.6-43.1-3.6-43.1h-7.3
	c0,0-1.6,15.2-3.7,43.1c-17.3,0.2-34.6,1.3-51.8,3.1c-10.8,71.1-14.7,148.3-15,216.8c-24.1,2.8-43.3,5.5-43.3,5.5v7
	c0,0,19.2,2.7,43.3,5.5c0.3,68.4,4.2,145.7,15,216.8c0,0,22.5,2.7,51.8,3.1c2,27.9,3.7,43.1,3.7,43.1h7.3c0,0,1.6-15.2,3.6-43.1
	c29.3-0.4,51.8-3.1,51.8-3.1c10.8-71.1,14.7-148.3,15-216.8c24.1-2.8,43.3-5.5,43.3-5.5v-7C247.4,281,228.2,278.2,204.1,275.5z
	 M172.9,79.7c9.5,66.6,11.9,150.2,12.2,193.7c-13.3-1.4-26.7-2.5-40.1-3.2c-0.2-63.5-2.2-127.1-6.1-190.5L172.9,79.7L172.9,79.7
	L172.9,79.7z M87.1,79.7h34c-2.8,44.7-5.7,110-6,190.5c-12.3,0.6-26.4,1.8-40.1,3.2C75.2,229.9,77.6,146.3,87.1,79.7L87.1,79.7z
	 M87.1,489.4c-9.5-66.6-11.9-150.2-12.2-193.7c13.8,1.4,27.9,2.6,40.1,3.2c0.3,80.5,3.2,145.7,6,190.5H87.1h85.8h-34
	c2.8-44.7,5.7-110,6.1-190.5c13.4-0.7,26.8-1.8,40.1-3.2c-0.3,43.5-2.7,127.1-12.2,193.7H87.1L87.1,489.4z"/>
</svg>
