<?xml version="1.0" encoding="utf-8"?>
<!-- Generator: Adobe Illustrator 24.0.2, SVG Export Plug-In . SVG Version: 6.00 Build 0)  -->
<svg version="1.1" id="Слой_1" xmlns="http://www.w3.org/2000/svg" xmlns:xlink="http://www.w3.org/1999/xlink" x="0px" y="0px"
	 viewBox="0 0 2357.2 2376" style="enable-background:new 0 0 2357.2 2376;" xml:space="preserve">
<style type="text/css">
	.st0{fill-rule:evenodd;clip-rule:evenodd;fill:#E6BF3E;}
	.st1{fill-rule:evenodd;clip-rule:evenodd;fill:#32593C;}
	.st2{fill-rule:evenodd;clip-rule:evenodd;fill:#D0D1D3;}
</style>
<g>
	<path class="st0" d="M1178.6,99.6c600.5,0,1089.1,488.7,1089.1,1089.2c0,599-488.6,1089.2-1089.1,1089.2
		c-599,0-1089.1-490.2-1089.1-1089.2C89.5,588.3,579.6,99.6,1178.6,99.6L1178.6,99.6z"/>
	<path class="st1" d="M886,516.3c0,0,111.8-150.1,281.9-153.2c170-4.6,266.5,104.2,266.5,104.2l583.6,654.1
		c0,0,119.5,113.4,75.1,242c-44.4,128.7-288,405.9-900.7,418.2c-614.3,12.3-871.6-309.4-871.6-309.4s-125.6-167,0-312.5
		C444.8,1014,886,516.3,886,516.3z"/>
	<path class="st2" d="M1192.4,571.4c0,0-108.8-16.8-190,68.9c-79.7,84.3-73.5,196.1-73.5,196.1l72-102.6c0,0,9.2-6.1,4.6-19.9
		c-4.6-12.3-6.1-15.3-6.1-15.3v-19.9l311-3.1c0,0,84.3-3.1,84.3,82.7s-58.2,90.4-58.2,90.4s90.4,18.4,90.4,118
		c0,101.1-107.2,127.1-107.2,127.1l-232.8,1.5c0,0-19.9-15.3,1.5-24.5c23-7.7,32.2-12.3,32.2-23v-12.3c0,0-50.6-6.1-85.8-50.5
		c-35.2-42.9-27.6-113.4-27.6-113.4l-46-1.5l-29.1,44.4c0,0,13.8,110.3,67.4,159.3s90.4,95,217.5,88.8
		c127.2-4.6,220.6-70.5,220.6-70.5l24.5-21.5c0,0,9.2-18.4,27.6-7.7c18.4,9.2-18.4,47.5-18.4,47.5s-76.6,104.2-274.2,116.4
		c-196.1,12.3-333.9-193-324.7-203.7c7.7-9.2-30.6,36.8-9.2,47.5c21.4,12.3,10.7,29.1,10.7,29.1l-144,1.5c0,0-9.2,4.6-9.2-13.8
		c0-16.8,15.3-15.3,15.3-15.3s52.1-1.5,68.9-29.1c16.8-26,42.9-65.9,42.9-65.9s-15.3-87.3-12.3-124.1
		c3.1-36.8,30.6-231.3,180.8-295.6c151.7-62.8,301.8-12.3,301.8-12.3s27.6,15.3,47.5,0s27.6-30.6,42.9-1.5
		c13.8,29.1,44.4,76.6,44.4,76.6s13.8,42.9-47.5,7.7c-62.8-35.2-163.9-56.7-163.9-56.7L1192.4,571.4L1192.4,571.4z M1068.3,871.7
		h52.1v105.7c0,0-29.1-6.1-41.4-32.2C1066.8,920.7,1068.3,871.7,1068.3,871.7L1068.3,871.7z M993.2,828.8l21.5,1.5
		c0,0,12.3-35.2,41.4-56.7c30.6-21.5,64.3-30.6,64.3-30.6s7.7-27.6-13.8-26c-23,1.5-41.3,3.1-41.3,3.1s-12.3,0-19.9,16.8
		C1036.1,753.7,993.2,828.8,993.2,828.8L993.2,828.8z M1069.8,827.2h49v-53.6c0,0-19.9,3.1-33.7,23
		C1069.8,816.5,1069.8,827.2,1069.8,827.2L1069.8,827.2z M1186.3,762.9v64.3h98c0,0,38.3-9.2,38.3-59.7c0-49-38.3-53.6-38.3-53.6
		h-98v26l55.1,1.5c0,0,15.3-16.8,32.2,3.1c16.8,19.9,18.4,30.6,18.4,30.6s3.1,35.2-30.6,4.6C1227.6,749,1186.3,762.9,1186.3,762.9
		L1186.3,762.9z M1189.3,873.2l3.1,119.5c0,0,44.4,9.2,78.1-19.9s26-24.5,26-24.5s4.6-4.6,15.3,3.1c10.7,9.2-6.1,30.6-6.1,30.6
		s-10.7,18.4-42.9,35.2c-32.2,15.3-67.4,18.4-67.4,18.4l-1.5,16.9c0,0,21.5,12.3,55.1,10.7c32.2-1.5,41.4-4.6,41.4-4.6
		s64.3-18.4,64.3-95c0-75.1-75.1-90.4-75.1-90.4L1189.3,873.2L1189.3,873.2z"/>
	<path class="st2" d="M858.4,464.2c0,0,125.6-151.7,307.9-156.2c182.3-4.6,291,108.8,291,108.8l634.2,693.9
		c0,0,108.8,130.2,61.3,269.6s-300.2,451.9-960.5,464.1c-660.2,13.8-937.5-343.1-937.5-343.1s-130.2-211.4,4.6-369.2
		C394.3,975.8,858.4,464.2,858.4,464.2z M889.1,520.9c0,0,110.3-148.6,278.8-151.7c168.5-4.6,263.5,104.2,263.5,104.2l579,648
		c0,0,117.9,111.8,73.5,239c-42.9,128.7-284.9,402.9-891.5,415.1c-608.2,12.2-864-307.9-864-307.9s-124.1-165.4,0-309.4
		S889.1,520.9,889.1,520.9L889.1,520.9z"/>
	<path class="st2" d="M1178.6,49c628.1,0,1139.7,511.6,1139.7,1139.7c0,626.5-511.6,1138.2-1139.7,1138.2S38.9,1815.3,38.9,1188.8
		C38.9,560.7,550.5,49,1178.6,49L1178.6,49z M1178.6,107.3c595.9,0,1081.5,485.6,1081.5,1081.5c0,594.4-485.6,1080-1081.5,1080
		c-594.4,0-1080-485.6-1080-1080C98.6,592.9,584.2,107.3,1178.6,107.3L1178.6,107.3z"/>
</g>
</svg>
