<?xml version="1.0" encoding="utf-8"?>
<!-- Generator: Adobe Illustrator 24.0.2, SVG Export Plug-In . SVG Version: 6.00 Build 0)  -->
<svg version="1.1" id="Слой_1" xmlns="http://www.w3.org/2000/svg" xmlns:xlink="http://www.w3.org/1999/xlink" x="0px" y="0px"
	 viewBox="0 0 1878.3 1917.1" style="enable-background:new 0 0 1878.3 1917.1;" xml:space="preserve">
<style type="text/css">
	.st0{fill:#FFFFFF;}
</style>
<g>
	<path class="st0" d="M939.1,34.9C433.7,34.9,24,448.4,24,958.6c0,510.1,409.7,923.7,915.1,923.7s915.1-413.5,915.1-923.7
		C1854.1,448.4,1444.4,34.9,939.1,34.9L939.1,34.9z"/>
	<path d="M939.1,82C459.5,82,70.7,474.5,70.7,958.6s388.8,876.5,868.4,876.5s868.3-392.4,868.3-876.5S1418.6,82,939.1,82z"/>
	<path class="st0" d="M939.1,1752.3c-434.3,0-786.4-355.4-786.4-793.7s352.1-793.7,786.4-793.7s786.3,355.4,786.3,793.7
		S1373.3,1752.3,939.1,1752.3L939.1,1752.3z"/>
	<path d="M1490.1,1366.5c-8.4-8.4-18.5-12.6-30.3-12.6c-11.3,0-21.1,3.9-29.5,11.6c-8.9,8.3-13.4,18.7-13.4,31.2
		c0,12,4.1,22.2,12.4,30.5s18.4,12.4,30.5,12.4c11.7,0,21.7-4,30-12.1c8.6-8.3,12.8-18.6,12.8-30.7
		C1502.7,1385,1498.5,1374.9,1490.1,1366.5z"/>
	<path class="st0" d="M1484.8,1372c6.9,7,10.3,15.3,10.3,24.8c0,9.8-3.4,18.2-10.4,25.2c-6.9,7-15.2,10.5-24.9,10.5
		c-9.8,0-18.1-3.5-25-10.4s-10.4-15.4-10.4-25.3c0-9.6,3.4-17.9,10.2-24.8c6.9-7.1,15.3-10.7,25.2-10.7
		C1469.6,1361.3,1477.9,1364.8,1484.8,1372z"/>
	<path d="M1092.5,438.3V556H749.7v117.7H406.9v429.8c0,218.3,88.7,337.7,203,521.9c88.2-142.1,161.1-245.7,189.8-385.9
		c36.9,87.7,91.2,168.4,153,268.2c88.2-142.1,161-245.7,189.8-385.9c36.9,87.7,91.2,168.4,153,268.2
		c114.3-184.2,203-303.6,203-521.9V438.3H1092.5L1092.5,438.3z"/>
	<path class="st0" d="M749.7,1132.5c0,121.1-69.9,266.1-139.9,375.2c-69.9-109.2-139.9-254.1-139.9-375.2V736.8h279.8V1132.5
		L749.7,1132.5z M1092.5,1014.8c0,121.1-69.9,266.1-139.8,375.2c-69.9-109.2-139.9-254.1-139.9-375.2V619.1h279.7V1014.8
		L1092.5,1014.8z M1435.4,897.2c0,121.1-69.9,266.1-139.9,375.2c-69.9-109.2-139.9-254.1-139.9-375.2V501.4h279.7L1435.4,897.2
		L1435.4,897.2z"/>
	<path d="M485.4,945.8v179.9c0,110.9,64,259.3,124.5,351.4c30.5-46.4,61.8-106.9,85.4-169.8L485.4,945.8z M1171,710.4v179.9
		c0,110.9,64,259.3,124.5,351.4c30.5-46.3,61.8-106.9,85.4-169.8L1171,710.4z M828.2,828.1V1008c0,110.9,64,259.3,124.5,351.4
		c30.4-46.4,61.8-106.9,85.4-169.8L828.2,828.1z M729.4,1182.9l-244-420.5v-10.2h249v373.5C734.4,1143.9,732.6,1163.1,729.4,1182.9
		L729.4,1182.9z M1415.1,947.5L1171,527v-10.2h249v373.5C1420,908.5,1418.2,927.7,1415.1,947.5L1415.1,947.5z M1072.2,1065.2
		l-244-420.5v-10.2h249V1008C1077.2,1026.2,1075.4,1045.4,1072.2,1065.2z M1453.5,1403.8h2.6l2.7,0.2c1.9,0.1,3.3,0.4,4.2,0.8
		c1.7,0.7,2.9,1.8,3.5,3.5c0.4,1,0.6,2.9,0.8,5.8c0.1,2.9,0.4,5.1,0.8,6.6h11.9l-0.4-1.3c-0.2-0.5-0.3-0.9-0.3-1.4
		c-0.1-0.5-0.1-0.9-0.1-1.4v-4.3c0-4.8-1.4-8.4-4.2-10.6c-1.5-1.2-3.8-2.1-6.7-2.7c3.3-0.3,6-1.4,8.2-3.2c2.2-1.8,3.3-4.7,3.3-8.7
		c0-5.2-2.1-9-6.3-11.3c-2.5-1.4-5.6-2.2-9.4-2.4c-3.3-0.1-6.5-0.1-9.8-0.1c-5.9,0-10.3,0-13.2,0v47.5h12.4V1403.8L1453.5,1403.8
		L1453.5,1403.8z"/>
	<path class="st0" d="M1465.1,1393.5c-1.6,1.2-3.9,1.8-6.8,1.8h-4.8v-13.8h3c3.1,0,5.5,0.3,7.2,1c2.6,1,3.8,2.8,3.8,5.4
		C1467.6,1390.5,1466.8,1392.4,1465.1,1393.5z"/>
</g>
</svg>
