<svg width="240" height="90" viewBox="0 0 240 90" fill="none" xmlns="http://www.w3.org/2000/svg">
<path d="M119.991 0C53.425 0 0.0585938 19.969 0.0585938 45C0.0585938 69.8773 53.8666 90 120.001 90C186.135 90 239.953 69.81 239.953 45C239.943 20.19 186.135 0 119.991 0ZM239.214 41.5229C239.252 41.7439 239.291 41.9648 239.329 42.1761C239.291 41.9648 239.252 41.7439 239.214 41.5229Z" fill="#C9C9CA"/>
<path d="M120 1.79688C54.7492 1.79688 1.8916 21.0936 1.8916 44.9719C1.8916 68.8406 54.7492 88.1469 120 88.1469C185.261 88.1469 238.1 68.8406 238.1 44.9719C238.1 21.0936 185.261 1.79688 120 1.79688Z" fill="url(#paint0_radial)"/>
<path d="M120.537 10.8538C176.016 10.8538 221.817 24.4162 228.816 41.9648C224.14 23.5037 177.206 9 119.99 9C59.6732 9 10.79 25.1174 10.79 45C10.79 46.6233 11.1164 48.2081 11.7404 49.7738C11.4716 48.7556 11.3276 47.699 11.3276 46.6521C11.3276 26.8751 60.2204 10.8538 120.537 10.8538Z" fill="url(#paint1_linear)"/>
<path d="M232.445 40.4844C232.925 41.9347 233.165 43.462 233.165 44.9892C233.165 66.7544 182.496 84.399 119.99 84.399C64.368 84.399 18.1152 70.4235 8.60156 52.0105C15.8208 71.1439 63.1104 85.9166 120.442 85.9838H121.133C183.475 85.9262 233.962 68.4545 233.962 46.9006C233.962 44.7202 233.443 42.5687 232.445 40.4844Z" fill="url(#paint2_linear)"/>
<path d="M119.991 0C53.425 0 0.0585938 19.969 0.0585938 45C0.0585938 69.8773 53.8666 90 120.001 90C186.135 90 239.953 69.81 239.953 45C239.943 20.19 186.135 0 119.991 0ZM0.874594 45.4899C0.855394 40.2263 3.16899 34.9915 8.05539 30.0736C25.2202 12.7364 70.2154 1.02775 119.799 0.826041C185.483 0.557097 239.012 20.1515 239.127 44.5101C239.147 49.7737 236.689 54.9413 231.812 59.8591C214.638 77.1964 169.787 88.9819 120.203 89.174C54.5194 89.4525 0.989794 69.8581 0.874594 45.4899ZM239.214 41.5229C239.252 41.7439 239.291 41.9648 239.329 42.1761C239.291 41.9648 239.252 41.7439 239.214 41.5229Z" fill="#4B4B4B"/>
<path d="M0.413086 45.0004C0.413086 46.1722 0.547486 47.3441 0.787486 48.4967C0.605086 47.5073 0.509086 46.5084 0.499486 45.4999C0.480286 40.1594 2.87069 34.7709 7.78589 29.8051C25.0563 12.3814 70.0899 0.653549 119.799 0.451841C126.682 0.423026 133.431 0.615128 140.016 1.00894C133.344 0.586313 126.672 0.375 120 0.375C53.6835 0.375 0.413086 20.2672 0.413086 45.0004Z" fill="url(#paint3_linear)"/>
<path d="M232.07 60.1362C214.857 77.4927 169.833 89.3454 120.201 89.5471C113.328 89.5855 106.464 89.3934 99.6094 88.99C106.233 89.4126 113.049 89.6239 120 89.6239C185.933 89.6239 239.577 69.482 239.577 45.0081C239.577 44.0764 239.491 43.1447 239.337 42.2227C239.443 42.9815 239.491 43.7403 239.501 44.5087C239.529 49.8491 236.995 55.1704 232.07 60.1362Z" fill="url(#paint4_linear)"/>
<path d="M119.991 5.57031C57.4754 5.57031 6.80664 23.2149 6.80664 44.9801C6.80664 66.7453 57.485 84.39 119.991 84.39C182.496 84.39 233.165 66.7453 233.165 44.9801C233.165 23.2149 182.496 5.57031 119.991 5.57031ZM119.991 80.9897C59.6738 80.9897 10.7906 64.8723 10.7906 44.9897C10.7906 25.1071 59.6834 8.98974 119.991 8.98974C180.307 8.98974 229.191 25.1071 229.191 44.9897C229.191 64.8723 180.307 80.9897 119.991 80.9897Z" fill="white"/>
<defs>
<radialGradient id="paint0_radial" cx="0" cy="0" r="1" gradientUnits="userSpaceOnUse" gradientTransform="translate(119.202 148.478) scale(516.825 262.633)">
<stop stop-color="#00082E"/>
<stop offset="0.155" stop-color="#000A30"/>
<stop offset="0.242" stop-color="#010F39"/>
<stop offset="0.312" stop-color="#011946"/>
<stop offset="0.373" stop-color="#02275A"/>
<stop offset="0.414" stop-color="#03346C"/>
<stop offset="0.439" stop-color="#0B4F87"/>
<stop offset="0.48" stop-color="#1676AF"/>
<stop offset="0.513" stop-color="#1C8EC7"/>
<stop offset="0.533" stop-color="#1F97D0"/>
<stop offset="1" stop-color="#1F97D0"/>
</radialGradient>
<linearGradient id="paint1_linear" x1="119.798" y1="90.9993" x2="119.798" y2="-0.417717" gradientUnits="userSpaceOnUse">
<stop stop-color="#00082E"/>
<stop offset="0.321" stop-color="#010A30"/>
<stop offset="0.501" stop-color="#030F39"/>
<stop offset="0.647" stop-color="#071846"/>
<stop offset="0.773" stop-color="#0D245A"/>
<stop offset="0.809" stop-color="#0F2961"/>
<stop offset="0.839" stop-color="#0B386E"/>
<stop offset="0.896" stop-color="#054E83"/>
<stop offset="0.951" stop-color="#015B90"/>
<stop offset="1" stop-color="#006094"/>
</linearGradient>
<linearGradient id="paint2_linear" x1="121.283" y1="91.0032" x2="121.283" y2="-0.494946" gradientUnits="userSpaceOnUse">
<stop stop-color="#00082E"/>
<stop offset="0.321" stop-color="#010A30"/>
<stop offset="0.501" stop-color="#030F39"/>
<stop offset="0.647" stop-color="#071846"/>
<stop offset="0.773" stop-color="#0D245A"/>
<stop offset="0.809" stop-color="#0F2961"/>
<stop offset="0.839" stop-color="#0B386E"/>
<stop offset="0.896" stop-color="#054E83"/>
<stop offset="0.951" stop-color="#015B90"/>
<stop offset="1" stop-color="#006094"/>
</linearGradient>
<linearGradient id="paint3_linear" x1="93.6335" y1="111.547" x2="65.8842" y2="8.0402" gradientUnits="userSpaceOnUse">
<stop stop-color="#A5A5A6"/>
<stop offset="0.35" stop-color="#D7D7D7"/>
<stop offset="0.65" stop-color="#D7D7D7"/>
<stop offset="1" stop-color="#A5A5A6"/>
</linearGradient>
<linearGradient id="paint4_linear" x1="166.441" y1="54.3053" x2="138.753" y2="-48.9706" gradientUnits="userSpaceOnUse">
<stop stop-color="#A5A5A6"/>
<stop offset="0.35" stop-color="#D7D7D7"/>
<stop offset="0.65" stop-color="#D7D7D7"/>
<stop offset="1" stop-color="#A5A5A6"/>
</linearGradient>
</defs>
</svg>
