<svg width="218" height="170" viewBox="0 0 218 170" fill="none" xmlns="http://www.w3.org/2000/svg">
<g clip-path="url(#clip0)">
<path d="M143.445 68.7411L155.448 64.5742L127.794 84.9625L117.152 88.1258L143.445 68.7411Z" fill="#1A1A1A"/>
<path d="M216.508 90.058L209.76 93.4459L117.152 88.1243L127.794 84.9609L216.508 90.058Z" fill="#8C8C8C"/>
<path d="M209.64 100.473L60.7549 105.348L72.7688 101.184L207.567 96.7695L209.64 100.473Z" fill="#1A1A1A"/>
<path d="M60.7549 105.35L72.7688 101.186L99.0947 81.8047L88.4491 84.9619L60.7549 105.35Z" fill="#8C8C8C"/>
<path d="M99.095 81.8043L88.4493 84.9615L0.713867 79.8645L7.45876 76.4805L99.095 81.8043Z" fill="#1A1A1A"/>
<path d="M7.58168 69.4492L9.65386 73.1525L7.45876 76.4816L0.713867 79.8656L7.58168 69.4492Z" fill="#8C8C8C"/>
<path d="M7.58203 69.449L9.65421 73.1523L143.445 68.7411L155.448 64.5742" fill="url(#paint0_linear)"/>
<path d="M127.794 84.9597L117.152 88.123L143.445 68.7383" fill="#1A1A1A"/>
<path d="M127.794 84.9597L117.152 88.123L143.445 68.7383" stroke="#F2F2F2" stroke-width="3.82246"/>
<path d="M216.508 90.0587L209.76 93.4466L117.152 88.125" fill="#8C8C8C"/>
<path d="M216.508 90.0587L209.76 93.4466L117.152 88.125" stroke="#F2F2F2" stroke-width="5.09661"/>
<path d="M60.7549 105.348L72.7688 101.184L207.567 96.7695L209.64 100.473" fill="#1A1A1A"/>
<path d="M60.7549 105.348L72.7688 101.184L207.567 96.7695L209.64 100.473" stroke="#F2F2F2" stroke-width="5.09661"/>
<path d="M209.64 100.474L207.567 96.7709L209.759 93.4464L216.507 90.0586" fill="#1A1A1A"/>
<path d="M60.7549 105.35L72.7688 101.186L99.0947 81.8047L88.4491 84.9619" fill="#C2C2C2"/>
<path d="M60.7549 105.35L72.7688 101.186L99.0947 81.8047L88.4491 84.9619" stroke="#F2F2F2" stroke-width="3.82246"/>
<path d="M9.65409 73.1503L7.45898 76.4793L99.0952 81.8032L72.77 101.184L207.569 96.7698L209.761 93.4446L117.152 88.1238L143.446 68.7383L9.65409 73.1503Z" fill="url(#paint1_linear)"/>
<path d="M0.713867 79.8645L7.45876 76.4805L99.095 81.8044L87.3232 85.2938" fill="#1A1A1A"/>
<path d="M0.713867 79.8645L7.45876 76.4805L99.095 81.8044L87.3232 85.2938" stroke="#F2F2F2" stroke-width="3.82246"/>
<path d="M7.58168 69.4492L9.65386 73.1525L7.45876 76.4816L0.713867 79.8656" stroke="#F2F2F2" stroke-width="3.82246"/>
<path d="M7.58203 69.449L9.65421 73.1523L143.445 68.7411L155.448 64.5742" stroke="#F2F2F2" stroke-width="3.82246"/>
<path d="M155.443 64.3933L7.48419 69.272L0.396484 80.0213L87.9487 85.1077L60.1896 105.544L209.738 100.647L216.825 89.8969L128.295 84.8106L156.013 64.375L155.443 64.3933Z" stroke="#1A1A1A" stroke-width="5.09661"/>
<path d="M188.291 99.6198C186.156 111.366 181.385 122.812 173.839 133.053C147.35 169.008 96.5553 176.703 60.6098 150.208C37.4073 133.104 25.9768 105.872 27.9115 79.043L23.9786 81.2157C22.786 108.485 34.7564 135.832 58.3742 153.241C96.0537 181.015 149.107 172.977 176.872 135.289C184.615 124.779 189.574 113.074 191.882 101.056L188.291 99.6198Z" fill="url(#paint2_linear)"/>
<path d="M193.324 88.728C194.497 61.4786 182.525 34.1573 158.923 16.7605C121.246 -11.0136 68.1927 -2.97624 40.4267 34.7125C32.7023 45.1976 27.7486 56.8718 25.4336 68.8607L28.9114 70.925C30.9973 58.9888 35.7991 47.3475 43.4609 36.9487C69.9488 0.99357 120.744 -6.70242 156.689 19.794C180.035 37.0037 191.464 64.4693 189.35 91.4591L193.324 88.728Z" fill="url(#paint3_linear)"/>
<path d="M183.068 100.057C178.504 122.497 163.912 142.642 141.766 153.374C104.076 171.64 58.5562 155.828 40.2953 118.127C34.3658 105.886 32.0287 92.8192 32.8663 80.1285L27.9011 79.125C26.878 92.8689 29.3465 107.048 35.7745 120.318C55.2434 160.513 103.774 177.371 143.957 157.896C168.044 146.225 183.747 124.108 188.272 99.6049L183.068 100.057Z" fill="url(#paint4_linear)"/>
<path d="M189.354 91.4569C190.49 77.5336 188.043 63.1405 181.525 49.6846C162.057 9.49008 113.526 -7.36747 73.3419 12.1066C49.0843 23.8617 33.3291 46.2112 28.9336 70.9228L33.9636 71.3291C38.2011 48.3374 52.9331 27.5818 75.5324 16.6293C113.224 -1.63653 158.743 14.1755 177.003 51.8757C183.085 64.4297 185.387 77.8528 184.363 90.8482L189.354 91.4569Z" fill="url(#paint5_linear)"/>
<path d="M184.38 90.8567C184.527 88.9245 184.603 86.9717 184.603 85.0013C184.603 43.109 150.53 9.02734 108.649 9.02734C71.4234 9.02734 40.3667 35.953 33.9219 71.3567L38.38 68.4347C45.8854 36.5793 74.5424 12.7963 108.649 12.7963C148.452 12.7963 180.835 45.1879 180.835 85.0013C180.835 86.4232 180.793 87.8448 180.711 89.2644L184.38 90.8567Z" fill="url(#paint6_linear)"/>
<path d="M178.902 101.637C171.371 133.458 142.73 157.205 108.649 157.205C68.8462 157.205 36.4633 124.814 36.4633 85.0005C36.4633 83.848 36.4907 82.7025 36.5442 81.563L32.8503 80.1211C32.7472 81.7455 32.6955 83.3728 32.6953 85.0005C32.6953 126.894 66.7679 160.974 108.649 160.974C145.386 160.974 176.115 134.751 183.11 100.037L178.902 101.637Z" fill="url(#paint7_linear)"/>
<path d="M33.9219 71.362C40.3644 35.9561 71.4227 9.02734 108.65 9.02734C150.532 9.02734 184.605 43.109 184.605 85.0013C184.605 86.9717 184.529 88.9237 184.382 90.8567" stroke="#F2F2F2" stroke-width="5.09661" stroke-linecap="square" stroke-linejoin="bevel"/>
<path d="M32.8488 80.1367C32.7465 81.7561 32.6953 83.3783 32.6953 85.0008C32.6953 126.894 66.7679 160.975 108.649 160.975C145.38 160.975 176.105 134.761 183.107 100.053" stroke="#F2F2F2" stroke-width="5.09661"/>
<path d="M23.9785 81.2157L27.9114 79.043L32.8658 80.1274L36.5429 81.5877C36.49 82.7243 36.4635 83.8621 36.4635 85C36.4635 124.813 68.8464 157.205 108.649 157.205C142.696 157.205 171.313 133.506 178.878 101.734L183.107 100.052L188.306 99.6236L191.882 101.056" stroke="#1A1A1A" stroke-width="5.09661"/>
<path d="M191.857 101.165C184.313 140.25 149.928 169.77 108.649 169.77C61.8452 169.77 23.9023 131.818 23.9023 85.0008C23.9023 83.7926 23.9275 82.5898 23.9779 81.3945" stroke="#1A1A1A" stroke-width="5.09661" stroke-linecap="square"/>
<path d="M180.586 89.061L184.255 90.8787L189.35 91.4568L193.391 88.5547" stroke="#F2F2F2" stroke-width="3.82246"/>
<path d="M180.782 87.8086C180.763 88.302 180.739 88.7938 180.709 89.2849" stroke="#1A1A1A" stroke-width="5.09661"/>
<path d="M38.3506 68.375L34.0627 71.4948L28.8968 70.9151L25.4717 68.6805" stroke="#F2F2F2" stroke-width="3.82246" stroke-linecap="square" stroke-linejoin="bevel"/>
<path d="M38.3809 68.4353C45.8862 36.5791 74.5432 12.7969 108.649 12.7969C148.453 12.7969 180.836 45.1885 180.836 85.0018C180.836 85.9427 180.818 86.8791 180.782 87.8116" stroke="#1A1A1A" stroke-width="5.09661"/>
<path d="M25.4717 68.6802C33.077 29.6718 67.426 0.230469 108.649 0.230469C155.453 0.230469 193.397 38.1827 193.397 84.9994C193.397 86.1885 193.372 87.3715 193.324 88.5476" stroke="#1A1A1A" stroke-width="5.09661" stroke-linecap="square"/>
</g>
<defs>
<linearGradient id="paint0_linear" x1="7.58203" y1="68.8633" x2="155.448" y2="68.8633" gradientUnits="userSpaceOnUse">
<stop stop-color="#8C8C8C"/>
<stop offset="1" stop-color="#4D4D4D"/>
</linearGradient>
<linearGradient id="paint1_linear" x1="44.7254" y1="31.3428" x2="172.522" y2="138.547" gradientUnits="userSpaceOnUse">
<stop stop-color="#E0E0E0"/>
<stop offset="0.15" stop-color="#939393"/>
<stop offset="0.17" stop-color="#9F9F9F"/>
<stop offset="0.235" stop-color="#C1C1C1"/>
<stop offset="0.302" stop-color="#DCDCDC"/>
<stop offset="0.37" stop-color="#F0F0F0"/>
<stop offset="0.439" stop-color="#FBFBFB"/>
<stop offset="0.511" stop-color="white"/>
<stop offset="0.576" stop-color="#FBFBFB"/>
<stop offset="0.639" stop-color="#F0F0F0"/>
<stop offset="0.701" stop-color="#DCDCDC"/>
<stop offset="0.763" stop-color="#C1C1C1"/>
<stop offset="0.824" stop-color="#9E9E9E"/>
<stop offset="0.85" stop-color="#8C8C8C"/>
<stop offset="1" stop-color="#FAFAFA"/>
</linearGradient>
<linearGradient id="paint2_linear" x1="23.8977" y1="124.409" x2="191.882" y2="124.409" gradientUnits="userSpaceOnUse">
<stop offset="0.006" stop-color="#1A1A1A"/>
<stop offset="0.01" stop-color="#282828"/>
<stop offset="0.029" stop-color="#5D5D5D"/>
<stop offset="0.046" stop-color="#888888"/>
<stop offset="0.062" stop-color="#A6A6A6"/>
<stop offset="0.075" stop-color="#B9B9B9"/>
<stop offset="0.084" stop-color="#BFBFBF"/>
<stop offset="0.143" stop-color="#999999"/>
<stop offset="0.208" stop-color="#777777"/>
<stop offset="0.28" stop-color="#5A5A5A"/>
<stop offset="0.359" stop-color="#424242"/>
<stop offset="0.449" stop-color="#303030"/>
<stop offset="0.556" stop-color="#232323"/>
<stop offset="0.696" stop-color="#1C1C1C"/>
<stop offset="1" stop-color="#1A1A1A"/>
</linearGradient>
<linearGradient id="paint3_linear" x1="25.4328" y1="45.8429" x2="193.402" y2="45.8429" gradientUnits="userSpaceOnUse">
<stop stop-color="#E0E0E0"/>
<stop offset="0.116" stop-color="#DBDBDB"/>
<stop offset="0.26" stop-color="#CCCCCC"/>
<stop offset="0.42" stop-color="#B2B2B2"/>
<stop offset="0.59" stop-color="#8F8F8F"/>
<stop offset="0.767" stop-color="#626262"/>
<stop offset="0.843" stop-color="#4D4D4D"/>
<stop offset="1" stop-color="#1A1A1A"/>
</linearGradient>
<linearGradient id="paint4_linear" x1="27.6774" y1="122.56" x2="188.271" y2="122.56" gradientUnits="userSpaceOnUse">
<stop stop-color="#ECECEC"/>
<stop offset="0.001" stop-color="#DBDBDB"/>
<stop offset="0.002" stop-color="#D0D0D0"/>
<stop offset="0.003" stop-color="#C9C9C9"/>
<stop offset="0.006" stop-color="#C7C7C7"/>
<stop offset="0.179" stop-color="#C9C9C9"/>
<stop offset="0.28" stop-color="#D2D2D2"/>
<stop offset="0.362" stop-color="#E0E0E0"/>
<stop offset="0.434" stop-color="#F4F4F4"/>
<stop offset="0.466" stop-color="white"/>
<stop offset="0.642" stop-color="#FDFDFD"/>
<stop offset="0.734" stop-color="#F5F5F5"/>
<stop offset="0.807" stop-color="#E7E7E7"/>
<stop offset="0.869" stop-color="#D4D4D4"/>
<stop offset="0.925" stop-color="#BCBCBC"/>
<stop offset="0.976" stop-color="#9D9D9D"/>
<stop offset="1" stop-color="#8C8C8C"/>
</linearGradient>
<linearGradient id="paint5_linear" x1="48.6346" y1="23.2088" x2="189.389" y2="91.3847" gradientUnits="userSpaceOnUse">
<stop offset="0.006" stop-color="#C7C7C7"/>
<stop offset="0.025" stop-color="#D2D2D2"/>
<stop offset="0.055" stop-color="#DDDDDD"/>
<stop offset="0.09" stop-color="#E0E0E0"/>
<stop offset="0.098" stop-color="#E9E9E9"/>
<stop offset="0.117" stop-color="#F6F6F6"/>
<stop offset="0.142" stop-color="#FDFDFD"/>
<stop offset="0.197" stop-color="white"/>
<stop offset="0.714" stop-color="#8C8C8C"/>
<stop offset="1" stop-color="#8C8C8C"/>
</linearGradient>
<linearGradient id="paint6_linear" x1="184.603" y1="49.942" x2="33.9219" y2="49.942" gradientUnits="userSpaceOnUse">
<stop stop-color="#E0E0E0"/>
<stop offset="0.001" stop-color="#E0E0E0"/>
<stop offset="0.006" stop-color="#E0E0E0"/>
<stop offset="0.183" stop-color="#C2C2C2"/>
<stop offset="0.57" stop-color="#757575"/>
<stop offset="1" stop-color="#1A1A1A"/>
</linearGradient>
<linearGradient id="paint7_linear" x1="183.11" y1="120.547" x2="32.6953" y2="120.547" gradientUnits="userSpaceOnUse">
<stop stop-color="#1A1A1A"/>
<stop offset="0.017" stop-color="#303030"/>
<stop offset="0.061" stop-color="#656565"/>
<stop offset="0.104" stop-color="#929292"/>
<stop offset="0.146" stop-color="#B4B4B4"/>
<stop offset="0.185" stop-color="#CCCCCC"/>
<stop offset="0.221" stop-color="#DBDBDB"/>
<stop offset="0.25" stop-color="#E0E0E0"/>
<stop offset="0.36" stop-color="#DDDDDD"/>
<stop offset="0.467" stop-color="#D1D1D1"/>
<stop offset="0.572" stop-color="#BDBDBD"/>
<stop offset="0.677" stop-color="#A2A2A2"/>
<stop offset="0.781" stop-color="#7E7E7E"/>
<stop offset="0.885" stop-color="#535353"/>
<stop offset="0.987" stop-color="#212121"/>
<stop offset="1" stop-color="#1A1A1A"/>
</linearGradient>
<clipPath id="clip0">
<rect width="217.222" height="170" fill="white"/>
</clipPath>
</defs>
</svg>
