<svg width="140" height="170" viewBox="0 0 140 170" fill="none" xmlns="http://www.w3.org/2000/svg">
<g clip-path="url(#clip0)">
<path d="M0 0H139.643V170H0V0Z" fill="#EAB331"/>
<path d="M76.8457 98.4269L66.251 120.773L70.8801 129.538L86.2809 98.418L76.8457 98.4269Z" fill="url(#paint0_linear)"/>
<path d="M69.3487 36L61.25 50.3009L76.8455 98.4185H86.2807L93.3262 84.171L69.3487 36Z" fill="url(#paint1_linear)"/>
<path d="M126.056 83.5838C115.576 60.98 102.362 36.9435 88.855 15.5233C88.1735 14.4376 87.7841 13.957 86.359 13.957H53.6545C52.0878 13.957 51.2647 14.6334 50.7159 15.5233C37.2712 37.6198 24.9151 60.6151 13.6389 83.9042C13.2229 84.7674 13.1786 85.4971 13.7628 86.7163C23.3485 106.481 37.4305 133.25 51.1231 155.088C51.8046 156.183 52.5481 156.343 53.4332 156.343H86.7839C87.8549 156.343 88.6869 156.058 89.2799 155.088C101.344 135.368 116.063 107.87 126.242 86.4048C126.64 85.5772 126.631 84.8297 126.056 83.5838ZM125.135 86.387C115.151 107.647 100.485 134.869 88.6603 154.403C88.0761 155.364 87.2618 155.631 86.2174 155.631H53.9642C53.0968 155.631 52.3711 155.471 51.6984 154.403C38.289 132.769 24.2601 106.268 14.8692 86.6985C14.2939 85.4971 14.3293 84.7674 14.7453 83.9131C25.8002 60.8465 37.9085 38.0915 51.0877 16.2174C51.6187 15.3364 52.4242 14.669 53.9642 14.669H86.0316C87.4212 14.669 87.8106 15.1406 88.4833 16.2174C101.716 37.4329 114.682 61.2203 124.95 83.6105C125.516 84.8297 125.516 85.5683 125.135 86.387Z" fill="url(#paint2_linear)"/>
<path d="M85.6787 87.6344L67.9678 48.0155L68.3218 42.7383C75.1548 55.2238 85.006 74.7039 90.6353 87.2695L85.6787 87.6344Z" fill="url(#paint3_linear)"/>
<path d="M125.42 83.4741C115.064 61.0572 101.991 37.2164 88.6439 15.9742C87.9712 14.8974 87.5818 14.4258 86.1833 14.4258H53.8416C52.2927 14.4258 51.4784 15.0932 50.9473 15.9742C37.6619 37.8839 25.4386 60.6834 14.2951 83.7856C13.8791 84.6399 13.8349 85.3607 14.4191 86.571C23.8985 106.176 38.0425 132.722 51.5669 154.382C52.2484 155.459 52.9742 155.619 53.8504 155.619H86.3692C87.4313 155.619 88.2544 155.343 88.8386 154.382C100.77 134.822 115.551 107.546 125.624 86.2595C125.995 85.4497 125.978 84.7022 125.42 83.4741ZM70.0656 124.668C69.9416 124.428 69.8266 124.179 69.6938 123.93V126.688C62.9051 114.541 54.5762 98.1576 48.8939 85.0314C54.9303 71.5137 62.5953 56.2784 70.1275 42.2355V45.7596C70.1895 45.635 70.2514 45.5104 70.3134 45.3947C75.5532 56.4563 83.3333 73.5249 87.7145 84.4708C83.2625 94.9896 75.0664 114.541 70.0656 124.668Z" fill="url(#paint4_linear)"/>
<path d="M85.457 14.7906C86.8732 14.7906 87.2449 15.2623 87.9265 16.3391C101.283 37.5813 114.701 61.778 125.065 84.1949C125.296 84.7022 125.791 85.1204 125.844 85.5031C125.933 84.9424 125.809 84.3195 125.419 83.4741C115.064 61.0572 101.991 37.2164 88.6434 15.9742C87.9707 14.8974 87.5813 14.4258 86.174 14.4258L85.457 14.7906Z" fill="url(#paint5_linear)"/>
<path d="M86.6076 84.6176C81.5713 72.4169 75.9067 59.9136 70.127 47.6506V42.7383C76.9599 55.2238 86.8111 74.7039 91.2101 84.6176H86.6076Z" fill="black"/>
<path d="M86.6077 84.6172H91.2102C84.7224 98.6867 77.5354 112.178 69.6934 126.674V121.629C75.836 109.437 81.1997 97.868 86.6077 84.6172Z" fill="#3C362E"/>
<path d="M48.7344 84.6758H53.0891C57.9395 96.7519 63.3475 109.006 69.6937 121.634V126.68C62.8518 114.479 54.461 97.8643 48.7344 84.6758Z" fill="url(#paint6_linear)"/>
<path d="M48.7344 84.6763C54.815 71.0963 62.5509 55.7898 70.1274 41.6758V47.6471C63.6573 60.4084 57.8775 72.7871 53.0891 84.6763H48.7344Z" fill="url(#paint7_linear)"/>
<path d="M84.3679 16.286C73.3484 34.9386 58.8061 62.1788 48.7336 84.6669C54.4514 97.8643 62.851 114.47 69.6929 126.671L69.2592 127.481C62.4173 115.289 53.584 97.8643 47.8662 84.6758C58.0626 61.9029 72.8615 34.28 83.9342 15.6097C84.421 15.6008 84.66 15.8054 84.3679 16.286Z" fill="url(#paint8_linear)"/>
<path d="M47.8665 84.6758C53.5843 97.8732 62.4177 115.289 69.2595 127.481C64.657 136.193 58.8684 145.911 54.018 153.742C53.5578 153.582 53.1772 153.27 52.7789 152.621C39.1837 130.916 26.0133 105.927 16.4542 86.2331C16.1533 85.6102 16.0294 85.1296 16.0205 84.6758H47.8665Z" fill="#695B35"/>
<path d="M54.8942 16.0554H82.9431C83.4388 16.0554 83.5007 16.1533 83.5007 16.3491L83.9344 15.6016H55.08C53.832 15.6016 52.6991 16.269 52.1592 17.1589C52.6548 16.6428 53.3364 16.0554 54.8942 16.0554Z" fill="url(#paint9_linear)"/>
<path d="M123.986 84.6772C124.863 84.6772 125.243 84.3479 124.668 83.1199C114.232 60.5873 101.744 37.6987 88.29 16.3497C87.6085 15.2729 86.6702 15.353 85.9268 16.4743C86.4224 16.2251 86.803 16.1183 87.2987 16.9104C100.797 38.1882 113.241 61.1479 123.676 83.6805C123.977 84.3657 123.986 84.6772 123.986 84.6772Z" fill="white"/>
<path d="M123.862 85.7911C113.692 107.167 100.071 132.956 88.0598 152.615C87.7323 153.149 87.5464 153.282 87.4579 153.202C87.4048 153.157 87.4845 153.051 87.75 152.615C99.752 132.956 113.374 107.167 123.552 85.7911C123.73 85.4084 123.862 85.0258 123.986 85.0436C124.119 85.0614 124.03 85.444 123.862 85.7911Z" fill="url(#paint10_linear)"/>
<path d="M83.1553 160.587H87.8375C89.3953 160.587 90.2008 159.919 90.7407 159.03C104.867 136.132 117.427 112.674 129.119 88.4328C129.535 87.5785 130.597 85.6473 130.597 84.4727L127.331 84.6595C127.331 85.4694 126.941 86.3504 126.525 87.2047C115.116 110.841 103.141 133.258 89.4396 155.639C88.8997 156.52 88.0942 157.187 86.5364 157.187H83.1465V160.587H83.1553Z" fill="url(#paint11_linear)"/>
<path d="M129.615 80.5234L126.588 81.9384C127.172 83.1487 127.332 83.9229 127.332 84.6615C127.332 85.4714 126.942 86.3524 126.526 87.2067C121.127 98.3929 115.604 109.303 109.824 120.071L112.418 121.299C118.206 110.496 123.756 99.5498 129.111 88.4437C129.527 87.5893 130.589 85.6582 130.589 84.4835C130.66 83.1665 130.199 81.7248 129.615 80.5234Z" fill="url(#paint12_linear)"/>
<path d="M90.0417 155.254C103.495 133.273 115.772 111.568 126.995 88.4039C127.207 87.9767 127.411 87.5496 127.614 87.1313C128.03 86.2681 128.438 85.3337 128.42 84.4883L127.331 84.6574C127.331 85.4672 126.942 86.3482 126.526 87.2025C126.322 87.6208 126.119 88.039 125.906 88.4751C114.692 111.64 102.893 133.656 89.4398 155.637C88.8999 156.536 88.2715 156.82 88.2715 156.82C88.2715 156.82 89.192 156.473 90.0417 155.254Z" fill="url(#paint13_linear)"/>
<path d="M128.42 84.4913C128.42 83.1742 128.031 81.8215 127.464 80.6468C118.268 61.6294 104.151 34.9409 90.8918 13.9657C89.8828 12.3638 88.086 11.6875 85.0855 11.6875H53.7705C52.2658 11.6875 51.4869 12.3371 50.9559 13.1915C37.2545 35.4037 24.7125 58.1587 13.3655 81.6702C12.9672 82.4979 11.9316 84.3756 11.9316 85.5147L12.3122 85.3456C12.3122 84.5447 12.7017 83.6725 13.1177 82.8093C24.5178 59.1821 36.8473 36.7563 50.5664 14.375C51.1063 13.494 51.9029 12.8266 53.4696 12.8266H86.183C87.2363 12.8266 88.7764 13.0402 89.4491 14.1259C102.991 35.813 117.109 62.3324 126.597 81.9372C127.181 83.1475 127.34 83.9217 127.34 84.6603L128.42 84.4913Z" fill="url(#paint14_linear)"/>
</g>
<defs>
<linearGradient id="paint0_linear" x1="71.1562" y1="110.414" x2="78.8541" y2="114.066" gradientUnits="userSpaceOnUse">
<stop stop-color="#EAB331"/>
<stop offset="0.066" stop-color="#D4A334"/>
<stop offset="0.198" stop-color="#AA8339"/>
<stop offset="0.225" stop-color="#A27D3A"/>
</linearGradient>
<linearGradient id="paint1_linear" x1="67.7336" y1="70.4795" x2="86.9455" y2="64.3074" gradientUnits="userSpaceOnUse">
<stop stop-color="#EAB331"/>
<stop offset="0.023" stop-color="#DBA833"/>
<stop offset="0.063" stop-color="#BF9237"/>
<stop offset="0.101" stop-color="#A27D3A"/>
</linearGradient>
<linearGradient id="paint2_linear" x1="69.9211" y1="12.2518" x2="69.9211" y2="157.763" gradientUnits="userSpaceOnUse">
<stop offset="0.118" stop-color="#EFC139"/>
<stop offset="0.343" stop-color="#F9DD3E"/>
<stop offset="0.477" stop-color="#F8DA3E"/>
<stop offset="0.612" stop-color="#F5D13C"/>
<stop offset="0.745" stop-color="#F0C23A"/>
<stop offset="0.758" stop-color="#EFC139"/>
<stop offset="1" stop-color="#F9DD3E"/>
</linearGradient>
<linearGradient id="paint3_linear" x1="76.1512" y1="66.4898" x2="80.5671" y2="64.5339" gradientUnits="userSpaceOnUse">
<stop stop-color="#A27D3A"/>
<stop offset="0.085" stop-color="#9F7A38"/>
<stop offset="0.181" stop-color="#977434"/>
<stop offset="0.23" stop-color="#916F31"/>
</linearGradient>
<linearGradient id="paint4_linear" x1="23.7769" y1="63.3351" x2="116.343" y2="106.266" gradientUnits="userSpaceOnUse">
<stop offset="0.86" stop-color="#131313"/>
<stop offset="1" stop-color="#595031"/>
</linearGradient>
<linearGradient id="paint5_linear" x1="83.2846" y1="16.3161" x2="129.953" y2="82.6066" gradientUnits="userSpaceOnUse">
<stop/>
<stop offset="0.012" stop-color="#413500"/>
<stop offset="0.028" stop-color="#5F512A"/>
<stop offset="0.045" stop-color="#736540"/>
<stop offset="0.061" stop-color="#82744F"/>
<stop offset="0.078" stop-color="#8B7D59"/>
<stop offset="0.096" stop-color="#8E805C"/>
<stop offset="0.5" stop-color="#B8AD91"/>
<stop offset="0.607" stop-color="#B4A98C"/>
<stop offset="0.721" stop-color="#A99D7E"/>
<stop offset="0.837" stop-color="#988B69"/>
<stop offset="0.893" stop-color="#8E805C"/>
<stop offset="0.961" stop-color="#8E805C"/>
</linearGradient>
<linearGradient id="paint6_linear" x1="59.2137" y1="84.672" x2="59.2137" y2="126.676" gradientUnits="userSpaceOnUse">
<stop offset="0.253" stop-color="#DCDAC4"/>
<stop offset="0.54" stop-color="#C5C0AC"/>
<stop offset="0.77" stop-color="#BEB8A4"/>
<stop offset="0.82" stop-color="#AFAA97"/>
</linearGradient>
<linearGradient id="paint7_linear" x1="61.2391" y1="83.9557" x2="57.6163" y2="42.7726" gradientUnits="userSpaceOnUse">
<stop offset="0.59" stop-color="#867A5C"/>
<stop offset="0.691" stop-color="#6A6044"/>
</linearGradient>
<linearGradient id="paint8_linear" x1="66.1803" y1="127.477" x2="66.1803" y2="15.6057" gradientUnits="userSpaceOnUse">
<stop offset="0.376" stop-color="white"/>
<stop offset="0.393" stop-color="#F2EFE8"/>
</linearGradient>
<linearGradient id="paint9_linear" x1="52.1588" y1="16.3766" x2="83.9341" y2="16.3766" gradientUnits="userSpaceOnUse">
<stop stop-color="#C6C7C9"/>
<stop offset="0.439" stop-color="#D3D2CF"/>
<stop offset="1" stop-color="#E9E4DA"/>
</linearGradient>
<linearGradient id="paint10_linear" x1="78.7014" y1="129.028" x2="132.849" y2="109.426" gradientUnits="userSpaceOnUse">
<stop stop-color="white"/>
<stop offset="0.472" stop-color="#FBFAF7"/>
<stop offset="0.76" stop-color="#F1EEE7"/>
<stop offset="0.998" stop-color="#E4DED2"/>
<stop offset="1" stop-color="#E4DED1"/>
</linearGradient>
<linearGradient id="paint11_linear" x1="76.3026" y1="134.207" x2="137.718" y2="111.974" gradientUnits="userSpaceOnUse">
<stop offset="0.022" stop-color="#F9DD3E"/>
<stop offset="0.067" stop-color="#DBAD37"/>
<stop offset="0.309" stop-color="#D0A236"/>
<stop offset="0.978" stop-color="#C79936"/>
<stop offset="1" stop-color="#B48735"/>
</linearGradient>
<linearGradient id="paint12_linear" x1="120.21" y1="119.826" x2="120.21" y2="82.0588" gradientUnits="userSpaceOnUse">
<stop stop-color="#CD9F37"/>
<stop offset="0.698" stop-color="#CA9C36"/>
<stop offset="0.904" stop-color="#C79936"/>
<stop offset="0.955" stop-color="#B48735"/>
</linearGradient>
<linearGradient id="paint13_linear" x1="88.2711" y1="120.651" x2="128.42" y2="120.651" gradientUnits="userSpaceOnUse">
<stop stop-color="#DBAD37"/>
<stop offset="0.041" stop-color="#DBAD37"/>
<stop offset="0.045" stop-color="#DBAD37"/>
<stop offset="0.397" stop-color="#C59935"/>
<stop offset="0.736" stop-color="#BB9035"/>
<stop offset="1" stop-color="#A67D32"/>
</linearGradient>
<linearGradient id="paint14_linear" x1="7.90923" y1="70.4188" x2="117.172" y2="41.3004" gradientUnits="userSpaceOnUse">
<stop offset="0.197" stop-color="#F9DD3E"/>
<stop offset="0.27" stop-color="#F3D73E"/>
<stop offset="0.343" stop-color="#E6C83D"/>
<stop offset="0.416" stop-color="#D4B33A"/>
<stop offset="0.488" stop-color="#BE9936"/>
<stop offset="0.556" stop-color="#A67D32"/>
</linearGradient>
<clipPath id="clip0">
<rect width="139.643" height="170" fill="white"/>
</clipPath>
</defs>
</svg>
