<svg width="196" height="210" viewBox="0 0 196 210" fill="none" xmlns="http://www.w3.org/2000/svg">
<path d="M97.9881 5.27783C97.4817 5.27783 45.8979 5.16257 19.9794 8.482C5.43187 9.35796 5.73111 18.6478 6.16845 32.2943C6.16845 52.8563 6.12242 100.988 9.20686 137.663C10.2657 150.411 13.6954 156.012 25.0894 163.711C49.6959 180.147 95.9164 203.637 97.9881 204.697C100.06 203.66 146.257 180.124 170.887 163.711C182.304 156.035 185.71 150.434 186.792 137.663C189.854 100.988 189.831 52.8563 189.808 32.2943C190.268 18.8322 190.567 9.28881 175.997 8.482C150.078 5.16257 98.4945 5.27783 97.9881 5.27783Z" fill="#CF4037"/>
<path d="M175.445 12.9297C182.649 13.7135 185.573 14.9813 185.366 23.1416C185.273 54.6992 185.642 95.1778 182.327 137.293C181.383 148.773 178.759 152.991 168.378 159.999C147.132 174.314 104.963 196.098 97.9884 199.671C91.0139 196.098 48.8446 174.314 27.5988 159.999C17.2406 153.014 14.6165 148.773 13.6497 137.293C10.3351 94.8551 10.7264 54.584 10.6113 22.6575C10.6113 14.5203 13.5346 13.8288 20.5322 12.9297C98.1035 8.11196 97.8733 8.11196 175.445 12.9297Z" fill="white"/>
<path d="M16.6878 86.9258L25.803 90.7293C25.803 90.7293 26.7237 117.308 55.5425 136.602L45.99 139.783C45.9669 139.806 11.6928 123.232 16.6878 86.9258Z" fill="#CF4037"/>
<path d="M51.2836 122.934C51.2836 122.934 26.5391 100.759 26.5391 69.4546C26.5391 60.1879 31.3959 54.1023 38.6697 54.1023C45.9434 54.1023 53.8387 59.1275 61.7339 71.5754C69.6291 84.0232 65.5319 85.4063 76.9029 95.4338C76.9029 95.4338 74.486 98.6149 75.5448 103.94C76.6037 109.242 76.9029 108.343 79.9413 109.403C82.9797 110.463 84.637 111.823 84.637 115.327C84.637 118.831 85.2355 121.851 82.5193 119.131C79.7802 116.388 74.3248 112.607 77.064 119.43C77.064 119.43 81.7597 121.252 87.2381 128.697C87.2381 128.697 89.5169 135.843 90.1153 139.485C90.7138 143.128 90.4146 143.75 89.3557 145.871C88.2969 147.991 88.5961 152.556 96.4914 153.478C96.4914 153.478 96.4914 156.52 95.8929 158.18C95.2944 159.863 94.6729 160.462 92.256 160.462H85.1204C83.0027 160.462 81.7827 158.78 81.7827 153.616C81.7827 148.452 79.3658 143.128 75.5678 138.886C71.7698 134.621 67.9718 128.398 66.913 115.95C66.913 115.95 64.3349 110.486 63.8746 104.401C63.8746 104.401 50.524 100.136 57.3604 84.0463C57.3604 84.0463 55.542 81.3031 52.2044 81.3031C48.8667 81.3031 43.6876 87.5501 51.2836 122.934ZM32.9611 46.841C32.9611 46.841 42.4216 37.3438 58.3272 37.3438C74.2328 37.3438 89.4018 52.9036 91.8417 56.1308C94.3046 59.358 94.6729 60.672 94.6729 65.6281V77.3844C94.6729 79.8509 93.1537 83.6313 88.2278 83.6313C83.3019 83.6313 82.5423 78.5139 79.3198 72.2439C76.1433 65.9969 58.5344 36.583 32.9611 46.841ZM179.288 86.9277L170.196 90.7312C170.196 90.7312 169.275 117.31 140.456 136.604L150.009 139.785C149.986 139.808 184.283 123.234 179.288 86.9277Z" fill="#CF4037"/>
<path d="M144.692 122.934C144.692 122.934 169.437 100.758 169.437 69.4539C169.437 60.1872 164.58 54.1016 157.306 54.1016C150.032 54.1016 142.137 59.1268 134.242 71.5747C126.347 84.0225 130.444 85.4056 119.073 95.4331C119.073 95.4331 121.49 98.6142 120.431 103.939C119.372 109.241 119.073 108.342 116.034 109.402C112.996 110.463 111.339 111.823 111.339 115.327C111.339 118.83 110.74 121.85 113.456 119.13C116.196 116.387 121.651 112.606 118.912 119.43C118.912 119.43 114.216 121.251 108.738 128.697C108.738 128.697 106.459 135.842 105.86 139.485C105.262 143.127 105.561 143.749 106.62 145.87C107.679 147.991 107.38 152.555 99.4844 153.477C99.4844 153.477 99.4844 156.52 100.083 158.179C100.681 159.862 101.303 160.462 103.72 160.462H110.855C112.973 160.462 114.193 158.779 114.193 153.615C114.193 148.452 116.61 143.127 120.408 138.885C124.206 134.621 128.004 128.397 129.063 115.949C129.063 115.949 131.641 110.486 132.101 104.4C132.101 104.4 145.452 100.136 138.615 84.0456C138.615 84.0456 140.434 81.3024 143.771 81.3024C147.109 81.3024 152.288 87.5494 144.692 122.934Z" fill="#CF4037"/>
<path d="M163.014 46.841C163.014 46.841 153.554 37.3438 137.648 37.3438C121.743 37.3438 106.574 52.9036 104.134 56.1308C101.671 59.358 101.303 60.672 101.303 65.6281V77.3844C101.303 79.8509 102.822 83.6313 107.748 83.6313C112.674 83.6313 113.433 78.5139 116.656 72.2439C119.809 65.9969 137.441 36.583 163.014 46.841Z" fill="#CF4037"/>
<path d="M97.9882 168.392C103.49 168.392 106.344 165.994 106.965 164.404C107.587 162.813 107.057 162.629 105.814 162.629H97.9882H90.162C88.919 162.629 88.3896 162.813 89.0111 164.404C89.6325 165.994 92.4868 168.392 97.9882 168.392Z" fill="#CF4037"/>
</svg>
