<svg width="229" height="200" viewBox="0 0 229 200" fill="none" xmlns="http://www.w3.org/2000/svg">
<path fill-rule="evenodd" clip-rule="evenodd" d="M114.549 178.762H115.754C140.003 176.487 162.258 167.519 180.385 150.32C196.375 135.146 207.151 114.505 207.366 91.0298C207.7 54.2742 185.552 19.865 137.783 5.91786L141.279 3.01172L141.804 3.16655L143.177 3.57151L144.609 4.01219L146.088 4.48861L147.616 5.00076L149.179 5.54864L150.766 6.13225L152.425 6.75159L154.096 7.41858L155.814 8.1332L157.556 8.88356L159.311 9.68156L161.112 10.5272L162.914 11.4205L164.764 12.3733L166.602 13.3738L168.451 14.4338L170.325 15.5415L172.199 16.7087L174.096 17.9355L175.981 19.2337L177.843 20.5915L178.523 21.0918L179.203 21.6039L179.895 22.128L180.564 22.652L181.244 23.188L181.924 23.7359L182.58 24.2837L183.249 24.8435L183.929 25.4152L184.609 25.9869L185.277 26.5705L185.934 27.1661L186.59 27.7735L187.27 28.3928L187.915 29.0122L188.571 29.6434L189.227 30.2866L189.872 30.9417L190.528 31.6087L191.16 32.2756L191.805 32.9545L192.437 33.6453L193.07 34.3481L193.702 35.0627L194.335 35.7892L194.943 36.5277L195.552 37.278L196.161 38.0284L196.769 38.7906L197.378 39.5648L197.962 40.3509L198.547 41.1489L199.442 42.3995L200.337 43.6739L201.196 44.9603L202.044 46.2704L202.867 47.6044L203.667 48.9622L204.454 50.3438L205.218 51.7492L205.958 53.1904L206.674 54.6553L207.366 56.1441L208.046 57.6568L208.679 59.1932L209.287 60.7535L209.872 62.3495L210.433 63.9693L210.97 65.6129L211.471 67.2923L211.948 68.9955L212.378 70.7344L212.772 72.4972L213.142 74.2956L213.476 76.1179L213.774 77.976L214.037 79.8578L214.251 81.7754L214.454 83.7287L214.586 85.7058L214.693 87.7187L214.765 89.7673L214.776 91.8516L214.765 93.9717L214.741 95.0555L214.693 96.1275L214.645 97.1756L214.609 98.2118L214.538 99.2242L214.454 100.225L214.371 101.213L214.287 102.19L214.18 103.155L214.072 104.107L213.941 105.048L213.822 105.977L213.667 106.894L213.512 107.8L213.344 108.705L213.165 109.598L212.998 110.48L212.796 111.361L212.605 112.23L212.378 113.1L212.163 113.969L211.924 114.827L211.686 115.684L211.447 116.542L211.185 117.399L210.934 118.257L210.648 119.115L210.361 119.972L210.075 120.83L209.776 121.687L209.466 122.545L209.144 123.414L208.273 125.642L207.354 127.833L206.352 130.001L205.301 132.133L204.215 134.241L203.058 136.313L201.841 138.362L200.588 140.375L199.287 142.352L197.915 144.293L196.495 146.211L195.039 148.093L193.535 149.939L191.972 151.749L190.385 153.524L188.75 155.263L187.079 156.954L185.361 158.61L183.595 160.229L181.805 161.813L179.979 163.35L178.129 164.851L176.244 166.304L174.335 167.721L172.378 169.103L170.397 170.437L168.404 171.723L166.363 172.962L164.311 174.165L162.222 175.32L160.134 176.428L158.01 177.488L156.399 178.262L154.776 179.012L153.141 179.739L151.506 180.429L149.883 181.096L148.236 181.728L146.602 182.335L144.967 182.919L143.332 183.467L141.709 183.991L140.074 184.491L138.439 184.955L136.828 185.396L135.217 185.813L133.606 186.206L132.019 186.563L130.432 186.897L128.845 187.207L127.282 187.492L125.718 187.742L124.179 187.969L122.652 188.171L121.124 188.35L119.62 188.505L118.117 188.636L116.661 188.731L115.193 188.803L114.597 188.826L114.549 178.762Z" fill="#59595B"/>
<path fill-rule="evenodd" clip-rule="evenodd" d="M87.75 3.02344L91.2345 5.92958C43.4655 19.8767 21.3053 54.2859 21.6514 91.0415C21.8662 114.517 32.642 135.158 48.6326 150.332C66.7474 167.53 89.003 176.499 113.263 178.774H114.469V188.767L113.872 188.743L112.404 188.671L110.948 188.576L109.445 188.445L107.941 188.29L106.414 188.111L104.886 187.909L103.347 187.683L101.784 187.433L100.22 187.147L98.6332 186.837L97.046 186.504L95.4589 186.146L93.8479 185.753L92.2369 185.336L90.6259 184.896L88.9911 184.431L87.3562 183.931L85.7333 183.407L84.1103 182.859L82.4755 182.275L80.8406 181.668L79.1938 181.037L77.5709 180.37L75.936 179.679L74.3011 178.952L72.6782 178.202L71.0672 177.428L68.9431 176.368L66.8548 175.26L64.7664 174.105L62.7139 172.902L60.6733 171.663L58.6804 170.377L56.6995 169.043L54.7424 167.661L52.8212 166.244L50.9357 164.791L49.0861 163.29L47.2603 161.754L45.4703 160.17L43.7041 158.55L41.9857 156.894L40.3151 155.203L38.6802 153.464L37.0931 151.689L35.5298 149.879L34.0262 148.033L32.5703 146.151L31.1503 144.233L29.778 142.292L28.4772 140.315L27.2242 138.302L26.007 136.253L24.8495 134.181L23.7636 132.073L22.7134 129.941L21.723 127.773L20.8041 125.582L19.933 123.354L19.6108 122.485L19.3005 121.627L19.0022 120.77L18.7158 119.912L18.4294 119.055L18.143 118.197L17.8924 117.34L17.6298 116.482L17.3912 115.625L17.1525 114.767L16.9138 113.91L16.699 113.04L16.4723 112.171L16.2814 111.301L16.0785 110.42L15.9114 109.538L15.7324 108.645L15.5654 107.74L15.4102 106.835L15.2551 105.918L15.1238 104.989L14.9926 104.048L14.8852 103.095L14.7778 102.13L14.6823 101.153L14.5988 100.165L14.5152 99.1644L14.4436 98.152L14.4078 97.1158L14.3601 96.0677L14.3124 94.9958L14.2885 93.9119L14.2646 91.7918L14.2885 89.7075L14.3601 87.6589L14.4675 85.6461L14.5988 83.6689L14.8016 81.7156L15.0164 79.798L15.279 77.9162L15.5773 76.0582L15.9114 74.2359L16.2814 72.4374L16.6752 70.6747L17.1048 68.9357L17.5821 67.2325L18.0833 65.5532L18.6203 63.9095L19.1812 62.2897L19.7659 60.6937L20.3745 59.1335L21.007 57.597L21.6872 56.0844L22.3793 54.5956L23.0953 53.1306L23.8352 51.6894L24.5989 50.284L25.3865 48.9024L26.186 47.5446L27.0094 46.2106L27.8567 44.9005L28.7159 43.6142L29.599 42.3398L30.494 41.0892L31.0787 40.2912L31.6634 39.5051L32.272 38.7309L32.8806 37.9686L33.4892 37.2183L34.0978 36.4679L34.7064 35.7295L35.3389 35.0029L35.9713 34.2883L36.6038 33.5856L37.2363 32.8948L37.8807 32.2159L38.5131 31.5489L39.1695 30.8819L39.8139 30.2268L40.4702 29.5837L41.1265 28.9524L41.7709 28.3331L42.4511 27.7137L43.1075 27.1063L43.7638 26.5108L44.4321 25.9272L45.1123 25.3555L45.7925 24.7838L46.4607 24.224L47.1171 23.6761L47.7973 23.1282L48.4775 22.5923L49.1457 22.0682L49.8379 21.5441L50.5181 21.032L51.1982 20.5318L53.0598 19.174L54.9572 17.8757L56.8546 16.649L58.7282 15.4817L60.6017 14.3622L62.4514 13.3021L64.2891 12.3017L66.1388 11.3488L67.9407 10.4555L69.7426 9.6099L71.4968 8.8119L73.2391 8.06155L74.9575 7.34692L76.6281 6.67994L78.2869 6.0606L79.874 5.47699L81.4373 4.92911L82.9647 4.41696L84.4445 3.94054L85.8765 3.49985L87.2488 3.0949L87.75 3.02344Z" fill="#808183"/>
<path fill-rule="evenodd" clip-rule="evenodd" d="M114.549 188.92H114.62C127.771 188.431 143.213 184.811 157.998 177.581C180.743 166.468 200.289 147.352 209.18 123.436C212.64 114.158 214.621 105.654 214.836 93.9696C215.289 71.185 208.261 54.296 198.631 41.0873C192.342 32.488 185.122 25.83 177.914 20.4941C164.537 10.6204 150.814 5.61801 141.387 2.92625L141.434 2.87861L146.649 1.19924C146.697 1.18733 173.702 6.86861 195.337 27.9143C211.125 43.2669 224.156 67.6595 222.247 101.044C220.612 129.522 204.836 157.607 179.227 176.366C162.079 188.932 140.575 197.376 115.766 198.77H114.561L114.549 188.92Z" fill="#929496"/>
<path fill-rule="evenodd" clip-rule="evenodd" d="M82.3431 1.19924L87.5579 2.87861L87.6057 2.92625C78.1784 5.62992 64.4551 10.6204 51.0779 20.4941C43.8582 25.8181 36.6386 32.476 30.3617 41.0873C20.7315 54.3079 13.7028 71.185 14.1562 93.9696C14.383 105.654 16.352 114.158 19.8126 123.436C28.7149 147.352 48.2497 166.468 70.9945 177.581C85.7918 184.822 101.233 188.431 114.372 188.92H114.444V198.77H113.25C88.441 197.376 66.9372 188.932 49.7891 176.366C24.1683 157.607 8.38053 129.522 6.7576 101.044C4.84827 67.6595 17.8794 43.2669 33.6672 27.9143C55.2903 6.86861 82.3073 1.18733 82.3431 1.19924Z" fill="#BBBCBF"/>
<path fill-rule="evenodd" clip-rule="evenodd" d="M118.784 153.719L119.691 153.457L120.657 153.183L121.684 152.898L122.769 152.588L123.903 152.266L125.085 151.933L126.314 151.587L127.579 151.218L128.891 150.849L130.228 150.456L131.6 150.051L132.996 149.646L134.416 149.229L135.86 148.8L137.316 148.36L138.784 147.919L140.252 147.466L141.72 147.014L143.187 146.549L144.655 146.073L146.111 145.596L147.555 145.12L148.987 144.632L150.395 144.143L151.779 143.655L153.128 143.167L154.452 142.678L155.741 142.178L156.982 141.69L158.187 141.201L159.345 140.701L160.455 140.213L161.051 139.939L161.624 139.665L162.185 139.391L162.722 139.117L163.247 138.831L163.76 138.545L164.25 138.26L164.715 137.974L165.157 137.688L165.586 137.402L165.992 137.116L166.386 136.83L166.756 136.545L167.114 136.247L167.448 135.949L167.758 135.651L168.128 135.258L168.474 134.865L168.808 134.472L169.13 134.067L169.441 133.662L169.739 133.245L170.025 132.817L170.3 132.376L170.562 131.923L170.813 131.471L171.052 131.006L171.266 130.53L171.469 130.041L171.66 129.541L171.839 129.041L172.018 128.529L172.173 127.993L172.316 127.457L172.46 126.909L172.591 126.349L172.71 125.777L172.818 125.194L172.925 124.586L173.021 123.967L173.104 123.336L173.188 122.693L173.259 122.026L173.331 121.347L173.39 120.644L173.45 119.918L173.498 119.179L173.546 118.417L175.777 81.3992L188.116 60.4725L114.488 52.2305L40.8594 60.4725L53.2103 81.3634L55.4299 118.381L55.4777 119.143L55.5373 119.882L55.597 120.608L55.6567 121.311L55.7283 121.99L55.7999 122.657L55.8834 123.3L55.9669 123.931L56.0624 124.551L56.1698 125.158L56.2772 125.742L56.3965 126.313L56.5278 126.873L56.671 127.421L56.8261 127.957L56.9812 128.493L57.1483 129.017L57.3273 129.517L57.5182 130.018L57.7211 130.506L57.9478 130.982L58.1746 131.447L58.4252 131.899L58.6877 132.352L58.9622 132.793L59.2486 133.222L59.5469 133.638L59.8572 134.055L60.1794 134.46L60.5135 134.853L60.8596 135.246L61.2295 135.639L61.5398 135.937L61.8739 136.235L62.2319 136.533L62.6018 136.818L62.9956 137.104L63.4014 137.39L63.831 137.676L64.2844 137.962L64.7498 138.248L65.2391 138.534L65.7522 138.819L66.2773 139.105L66.8143 139.379L67.3751 139.653L67.9479 139.927L68.5446 140.201L69.6544 140.689L70.8119 141.19L72.0172 141.678L73.2583 142.166L74.5471 142.666L75.8716 143.155L77.2201 143.643L78.6044 144.131L80.0125 144.62L81.4445 145.108L82.8884 145.585L84.3443 146.061L85.8121 146.537L87.2799 147.002L88.7477 147.454L90.2155 147.907L91.6833 148.348L93.1391 148.788L94.583 149.217L96.0031 149.634L97.3993 150.039L98.7716 150.444L100.12 150.837L101.433 151.206L102.698 151.575L103.927 151.921L105.108 152.254L106.242 152.576L107.328 152.886L108.354 153.172L109.321 153.445L110.228 153.707L114.512 154.899L118.784 153.719Z" fill="#A6A8AA"/>
<path fill-rule="evenodd" clip-rule="evenodd" d="M90.9909 6.008L91.683 6.59162C44.8448 20.3244 23.1261 54.1976 23.4603 90.3934C23.6751 113.512 34.2361 133.831 49.9045 148.766C67.6732 165.703 89.4873 174.529 113.258 176.768H115.705C139.488 174.529 161.302 165.703 179.059 148.766C194.739 133.819 205.3 113.512 205.503 90.3815C205.837 54.1857 184.106 20.3124 137.28 6.57971L137.972 5.99609C185.574 19.9909 207.663 54.3406 207.317 91.0366C207.102 114.512 196.326 135.153 180.336 150.327C162.221 167.525 139.965 176.494 115.705 178.769H113.211C88.9622 176.494 66.7066 167.525 48.5799 150.327C32.5893 135.153 21.8135 114.512 21.5987 91.0366C21.3004 54.3525 43.3889 20.0028 90.9909 6.008Z" fill="#BBBCBF"/>
<path fill-rule="evenodd" clip-rule="evenodd" d="M26.9685 153.446C39.033 156.221 43.8541 158.877 51.6823 165.988C51.7062 166.024 35.465 166.953 26.9685 153.446ZM26.9207 139.582C25.2262 138.796 12.6127 134.199 9.48617 116.834C12.6604 120.133 15.8347 121.872 19.4743 126.552C21.7297 129.459 24.1761 133.627 26.9207 139.582ZM13.3526 98.5511C12.386 97.0146 4.59352 86.5453 9.9993 69.835C13.7822 78.1604 14.0686 87.4863 13.3526 98.5511ZM20.6677 55.876C20.5603 54.2681 18.0065 44.037 30.274 31.9956C29.3909 41.774 25.6797 47.3958 20.6677 55.876ZM41.7419 27.2314C42.2908 25.8498 43.1142 17.5959 58.8304 10.4258C54.2838 18.6678 48.9138 21.2762 41.7419 27.2314Z" fill="#E6E6E7"/>
<path fill-rule="evenodd" clip-rule="evenodd" d="M60.0381 14.8633C60.0143 14.8633 73.9046 5.60888 85.2293 7.33589C81.6135 9.25347 68.6182 14.5179 60.0381 14.8633Z" fill="#434244"/>
<path fill-rule="evenodd" clip-rule="evenodd" d="M16.4229 72.7081C18.7737 70.1592 24.8239 66.3956 30.7428 50.5904C17.8429 60.1187 18.4873 64.7995 16.4229 72.7081ZM29.9552 42.2531C32.4135 41.0025 41.4589 37.2745 48.416 27.9844C36.6617 31.1645 33.8693 36.81 29.9552 42.2531Z" fill="black"/>
<path fill-rule="evenodd" clip-rule="evenodd" d="M18.9345 120.337C20.0801 116.99 23.4095 111.262 20.9274 91.6094C13.8987 105.628 16.7149 112.584 18.9345 120.337ZM35.3308 149.411C35.3786 146.088 36.7151 139.954 28.5169 123.398C26.2615 138.048 30.9513 143.289 35.3308 149.411ZM62.5029 172.565C61.3335 169.349 59.9612 160.333 46.6317 149.423C49.3763 164.12 56.1544 167.872 62.5029 172.565ZM97.1453 186.333C95.9878 184.666 90.0569 173.982 73.1116 168.122C80.7728 179.77 88.6488 184.07 97.1453 186.333ZM82.4912 182.962C80.737 182.057 68.219 175.328 52.8966 178.27C62.0256 184.785 71.9422 184.296 82.4912 182.962ZM113.291 189.62C111.274 189.203 95.9997 185.19 81.8826 192.586C95.773 196.671 102.909 193.634 113.291 189.62Z" fill="#E6E6E7"/>
<path fill-rule="evenodd" clip-rule="evenodd" d="M113.284 189.623C111.267 189.206 96.0044 185.192 81.8754 192.576C89.9781 192.541 108.236 190.587 113.26 189.623C113.272 189.635 113.284 189.623 113.284 189.623ZM82.484 182.965C80.7298 182.06 68.2118 175.33 52.9014 178.272C56.553 179.213 62.2093 180.344 67.627 181.345C69.238 181.655 78.4983 182.679 82.484 182.965ZM26.9703 153.451C39.023 156.226 43.8559 158.882 51.6722 165.992C38.3308 161.597 29.3212 156.011 26.9703 153.451ZM9.5 116.862C12.6743 120.149 15.8366 121.9 19.4762 126.569C21.6004 129.296 23.8915 133.143 26.4333 138.551C18.4261 130.976 14.512 127.022 9.5 116.862ZM35.3236 149.413C35.3714 146.09 36.7079 139.956 28.5097 123.413C28.6291 126.164 29.2496 130.976 30.8964 136.991C31.9346 140.73 33.4501 144.72 35.3236 149.413ZM18.9273 120.34C20.0729 116.993 23.3903 111.264 20.9202 91.6238C20.1564 93.8391 18.9989 99.2584 18.629 106.869C18.438 110.835 18.617 115.194 18.9273 120.34ZM62.4957 172.567C61.3263 169.351 59.9539 160.335 46.6245 149.425C47.4359 151.724 49.7032 156.5 53.8083 162.229C56.0995 165.445 59.0112 168.72 62.4957 172.567ZM10.0131 69.8516C13.6647 77.9149 14.0466 86.9073 13.4261 97.4956C11.3497 88.6224 9.63127 78.4985 10.0131 69.8516Z" fill="black"/>
<path fill-rule="evenodd" clip-rule="evenodd" d="M16.4229 72.7155C18.7737 70.1666 24.8239 66.4029 30.7428 50.6097C22.2105 59.0185 20.1818 64.3663 16.8286 71.0599C16.7093 71.5959 16.5661 72.1438 16.4229 72.7155ZM29.9552 42.2605C32.4135 41.0099 41.447 37.2819 48.3922 28.0156C38.3443 32.5297 35.6832 36.2219 31.0173 40.7479C30.6593 41.2481 30.3132 41.7603 29.9552 42.2605Z" fill="#E6E6E7"/>
<path fill-rule="evenodd" clip-rule="evenodd" d="M97.1424 186.342C95.9848 184.675 90.054 173.991 73.1087 168.131L73.1206 168.155C75.3402 170.49 80.2925 174.849 86.1041 179.232C89.1948 181.554 92.8941 183.782 97.1185 186.33L97.1424 186.342ZM20.6738 55.8873V55.8754C22.6906 48.2289 24.2657 42.4405 30.2801 32.0188H30.2921C29.3971 41.7854 25.6858 47.4071 20.6738 55.8873ZM41.748 27.2427C46.1514 21.5972 50.1013 17.5357 58.8246 10.4609C54.278 18.6791 48.9199 21.2875 41.748 27.2427Z" fill="black"/>
<path fill-rule="evenodd" clip-rule="evenodd" d="M60.0391 14.8594C67.5451 11.5007 72.7599 9.03522 85.2183 7.33203C81.6025 9.24961 68.6191 14.514 60.0391 14.8594ZM201.532 153.461C189.467 156.236 184.646 158.892 176.818 166.003C176.782 166.039 193.024 166.968 201.532 153.461ZM201.568 139.598C203.262 138.811 215.876 134.214 219.002 116.849C215.828 120.148 212.654 121.887 209.014 126.567C206.759 129.474 204.312 133.642 201.568 139.598ZM215.136 98.566C216.103 97.0296 223.895 86.5603 218.489 69.8499C214.718 78.1753 214.42 87.5012 215.136 98.566ZM207.821 55.8909C207.928 54.283 210.482 44.0519 198.215 32.0105C199.098 41.7889 202.809 47.4107 207.821 55.8909ZM186.759 27.2463C186.21 25.8647 185.386 17.6107 169.67 10.4407C174.217 18.6827 179.575 21.2911 186.759 27.2463Z" fill="#E6E6E7"/>
<path fill-rule="evenodd" clip-rule="evenodd" d="M168.457 14.8633C168.481 14.8633 154.59 5.60888 143.266 7.33589C146.905 9.25347 159.889 14.5179 168.457 14.8633Z" fill="#434244"/>
<path fill-rule="evenodd" clip-rule="evenodd" d="M212.091 72.7081C209.74 70.1592 203.69 66.3956 197.771 50.5904C210.659 60.1187 210.003 64.7995 212.091 72.7081ZM198.547 42.2531C196.089 41.0025 187.043 37.2745 180.086 27.9844C191.828 31.1645 194.621 36.81 198.547 42.2531Z" fill="black"/>
<path fill-rule="evenodd" clip-rule="evenodd" d="M209.586 120.337C208.441 116.99 205.111 111.262 207.593 91.6094C214.598 105.628 211.794 112.584 209.586 120.337ZM193.178 149.411C193.13 146.088 191.782 139.954 199.992 123.398C202.247 138.048 197.546 143.289 193.178 149.411ZM166.03 172.565C167.199 169.349 168.56 160.333 181.901 149.423C179.133 164.12 172.354 167.872 166.03 172.565ZM131.364 186.333C132.521 184.666 138.452 173.982 155.397 168.122C147.736 179.77 139.86 184.07 131.364 186.333ZM146.041 182.962C147.796 182.057 160.314 175.328 175.636 178.27C166.483 184.785 156.567 184.296 146.041 182.962ZM115.218 189.62C117.235 189.203 132.509 185.19 146.626 192.586C132.736 196.671 125.612 193.634 115.218 189.62Z" fill="#E6E6E7"/>
<path fill-rule="evenodd" clip-rule="evenodd" d="M115.218 189.623C117.223 189.206 132.497 185.192 146.626 192.576C138.523 192.541 120.266 190.587 115.242 189.623H115.218ZM146.041 182.965C147.796 182.06 160.314 175.33 175.624 178.272C171.972 179.213 166.316 180.344 160.898 181.345C159.287 181.655 150.015 182.679 146.041 182.965ZM201.531 153.451C189.479 156.226 184.646 158.882 176.829 165.992C190.171 161.597 199.168 156.011 201.531 153.451ZM218.99 116.862C215.815 120.149 212.653 121.9 209.013 126.569C206.889 129.296 204.598 133.143 202.056 138.551C210.064 130.976 213.978 127.022 218.99 116.862ZM193.178 149.413C193.13 146.09 191.794 139.956 199.992 123.413C199.872 126.164 199.252 130.976 197.605 136.991C196.555 140.73 195.04 144.72 193.178 149.413ZM209.586 120.34C208.441 116.993 205.123 111.264 207.593 91.6238C208.357 93.8391 209.515 99.2584 209.885 106.869C210.064 110.835 209.885 115.194 209.586 120.34ZM166.03 172.567C167.199 169.351 168.56 160.335 181.901 149.425C181.09 151.724 178.822 156.5 174.717 162.229C172.414 165.445 169.49 168.72 166.03 172.567ZM218.488 69.8516C214.837 77.9149 214.455 86.9073 215.076 97.4956C217.164 88.6224 218.858 78.4985 218.488 69.8516Z" fill="black"/>
<path fill-rule="evenodd" clip-rule="evenodd" d="M212.098 72.7155C209.747 70.1666 203.697 66.4029 197.778 50.6097C206.31 59.0185 208.339 64.3663 211.692 71.0599C211.799 71.5959 211.931 72.1438 212.098 72.7155ZM198.553 42.2605C196.095 41.0099 187.061 37.2819 180.116 28.0156C190.164 32.5297 192.825 36.2219 197.491 40.7479C197.837 41.2481 198.195 41.7603 198.553 42.2605Z" fill="#E6E6E7"/>
<path fill-rule="evenodd" clip-rule="evenodd" d="M131.366 186.342C132.524 184.675 138.455 173.991 155.4 168.131L155.376 168.155C153.156 170.49 148.204 174.849 142.393 179.232C139.302 181.566 135.603 183.794 131.366 186.342ZM207.823 55.8873V55.8754C205.806 48.2289 204.231 42.4405 198.216 32.0188C199.099 41.7854 202.811 47.4071 207.823 55.8873ZM186.76 27.2427C182.357 21.5972 178.407 17.5357 169.684 10.4609C174.23 18.6791 179.588 21.2875 186.76 27.2427Z" fill="black"/>
<path fill-rule="evenodd" clip-rule="evenodd" d="M168.451 14.8594C160.945 11.5007 155.73 9.03522 143.271 7.33203C146.911 9.24961 159.882 14.514 168.451 14.8594ZM114.405 52.4487L41.2656 60.6312L53.4376 81.2839L55.6691 118.361L55.7168 119.123L55.7646 119.862L55.8242 120.588L55.8839 121.291L55.9555 121.97L56.0271 122.637L56.1106 123.28L56.1942 123.911L56.2896 124.519L56.3851 125.114L56.4925 125.698L56.6118 126.27L56.7431 126.829L56.8744 127.377L57.0176 127.913L57.1727 128.437L57.3398 128.949L57.5188 129.45L57.7097 129.938L57.9126 130.414L58.1274 130.879L58.3541 131.343L58.5928 131.796L58.8433 132.237L59.1178 132.677L59.4042 133.094L59.7025 133.511L60.0128 133.916L60.335 134.309L60.6691 134.702L61.0152 135.083L61.3732 135.464L61.6715 135.762L61.9937 136.06L62.3398 136.358L62.7097 136.644L63.0916 136.929L63.4973 137.215L63.9269 137.501L64.3685 137.787L64.8339 138.073L65.3112 138.347L65.8124 138.633L66.3375 138.907L66.8744 139.18L67.4353 139.454L68.0081 139.728L68.6048 140.002L69.7146 140.491L70.8721 140.979L72.0774 141.467L73.3184 141.956L74.6072 142.444L75.9199 142.932L77.2683 143.421L78.6526 143.909L80.0607 144.397L81.4808 144.874L82.9247 145.35L84.3806 145.827L85.8484 146.303L87.3162 146.767L88.784 147.22L90.2517 147.673L91.7195 148.113L93.1754 148.554L94.6193 148.983L96.0394 149.4L97.4356 149.805L98.8079 150.198L100.144 150.591L101.457 150.96L102.734 151.329L103.963 151.675L105.144 152.008L106.278 152.33L107.364 152.639L108.39 152.925L109.357 153.199L110.264 153.461L114.381 154.616L114.405 52.4487Z" fill="#E6E6E7"/>
<path fill-rule="evenodd" clip-rule="evenodd" d="M118.721 153.489L119.628 153.227L120.595 152.953L121.621 152.667L122.707 152.358L123.84 152.036L125.022 151.703L126.251 151.357L127.516 150.988L128.829 150.619L130.165 150.226L131.537 149.833L132.934 149.428L134.354 149.011L135.798 148.582L137.253 148.141L138.721 147.701L140.189 147.248L141.657 146.795L143.125 146.331L144.592 145.854L146.048 145.378L147.492 144.902L148.912 144.425L150.32 143.937L151.705 143.449L153.053 142.96L154.378 142.472L155.667 141.984L156.908 141.495L158.113 141.007L159.27 140.519L160.38 140.03L160.965 139.756L161.538 139.482L162.099 139.208L162.636 138.935L163.161 138.661L163.662 138.375L164.139 138.101L164.605 137.815L165.046 137.529L165.476 137.243L165.881 136.957L166.263 136.672L166.633 136.386L166.979 136.088L167.301 135.79L167.6 135.492L167.97 135.111L168.316 134.73L168.65 134.337L168.972 133.944L169.282 133.539L169.581 133.122L169.867 132.693L170.142 132.265L170.392 131.824L170.631 131.371L170.858 130.907L171.072 130.442L171.275 129.966L171.466 129.478L171.645 128.977L171.812 128.465L171.967 127.941L172.111 127.405L172.242 126.857L172.373 126.298L172.492 125.726L172.6 125.142L172.695 124.547L172.791 123.939L172.874 123.308L172.958 122.665L173.029 121.998L173.101 121.319L173.161 120.616L173.22 119.89L173.268 119.151L173.316 118.389L175.547 81.3118L187.719 60.659L114.568 52.4766V154.656L118.721 153.489ZM114.413 54.8825L45.2598 62.6124L55.8327 80.5495L58.1 118.198C58.5892 126.25 59.7348 130.216 63.1597 133.753C64.3172 134.945 66.6323 136.398 69.6633 137.767C80.809 142.817 101.704 148.475 110.952 151.143L114.413 152.107V54.8825Z" fill="#D0D1D3"/>
<path fill-rule="evenodd" clip-rule="evenodd" d="M118.059 151.155C127.319 148.487 148.215 142.829 159.36 137.779C162.391 136.409 164.694 134.956 165.852 133.765C169.277 130.228 170.434 126.262 170.912 118.21L173.179 80.5615L183.752 62.6244L114.599 54.8945V152.143L118.059 151.155Z" fill="#A6A8AA"/>
<path fill-rule="evenodd" clip-rule="evenodd" d="M114.502 144.48L111.053 143.754C90.0984 139.394 92.4969 140.419 71.2795 134.189C63.3916 131.867 62.5324 127.603 62.2579 118.932L61.4226 79.5443L53.9404 66.1094H175.064L167.581 79.5443L166.746 118.932C166.483 127.603 165.624 131.867 157.724 134.189C136.507 140.431 138.918 139.394 117.951 143.754L114.502 144.48Z" fill="#808183"/>
<path fill-rule="evenodd" clip-rule="evenodd" d="M166.391 115.328L166.319 118.937L166.26 120.509L166.176 121.974L166.069 123.332L165.926 124.535H114.684V120.128H116.629V119.747H114.684V115.34L166.391 115.328ZM62.0581 89.0896L61.8672 79.8828H114.302V89.0896H62.0581Z" fill="black"/>
<path fill-rule="evenodd" clip-rule="evenodd" d="M165.831 124.912L165.688 125.769L165.425 126.853L165.103 127.854L164.698 128.759L164.208 129.593L163.635 130.355L162.955 131.058L162.156 131.701L161.237 132.296L160.175 132.844L158.958 133.344L157.585 133.797L155.664 134.357L153.874 134.881L152.203 135.369L150.652 135.822L149.196 136.239L147.836 136.62L146.571 136.977L145.378 137.311L144.256 137.62L143.194 137.906L142.179 138.168L141.213 138.418L140.282 138.657L139.387 138.871L138.504 139.085L137.633 139.288L136.762 139.49L135.879 139.681L134.972 139.871L134.053 140.062L133.098 140.264L132.096 140.467L131.046 140.681L129.936 140.908L128.754 141.146L127.502 141.396L126.165 141.67L124.733 141.956L123.194 142.265L121.547 142.599L119.781 142.968L117.883 143.361L114.709 144.028V124.936H165.831V124.912ZM166.643 102.782L166.38 114.931H114.685V102.782H166.643ZM61.8684 79.4974V79.4379L54.6846 66.5508H114.315V79.4974H61.8684ZM62.3457 102.401L62.0713 89.4784H114.303V102.401H62.3457Z" fill="#D4A950"/>
<path fill-rule="evenodd" clip-rule="evenodd" d="M114.68 96.2981V90.7716H140.993V96.2981H114.68ZM170.898 72.6797L167.819 78.2061H141.375V72.6797H170.898ZM114.311 108.494V114.021H87.9976V108.494H114.311ZM66.9473 131.779L66.828 131.708L66.0284 131.065L65.3482 130.362L64.7754 129.6L64.2862 128.766L63.8804 127.861L63.5582 126.86L63.415 126.265H87.5919V131.791L66.9473 131.779Z" fill="#3A529A"/>
<path fill-rule="evenodd" clip-rule="evenodd" d="M114.682 90.3955V84.6784H140.995V90.3955H114.682ZM140.995 102.401H114.682V96.6961H140.995V102.401ZM167.606 78.5922L167.129 79.4379L167.021 84.2854H141.365V78.5803H167.606V78.5922ZM141.389 66.5508H174.325L171.126 72.2916H141.389V66.5508ZM114.312 114.407V119.731H87.9989V114.407H114.312ZM87.9989 102.782H114.312V108.106H87.9989V102.782ZM63.3328 125.877L63.3089 125.769L63.106 124.602L62.9509 123.34L62.8435 121.982L62.76 120.517L62.748 120.136H87.6171V125.889L63.3328 125.877ZM87.6171 138.359L86.8175 138.156L85.8032 137.894L84.7411 137.608L83.6194 137.299L82.4261 136.965L81.1611 136.608L79.8008 136.227L78.3449 135.81L76.7936 135.357L75.1229 134.869L73.3329 134.345L71.4116 133.785L70.0393 133.333L68.8221 132.832L67.76 132.284L67.5572 132.153H87.6051V138.359H87.6171Z" fill="#BBBCBF"/>
<path fill-rule="evenodd" clip-rule="evenodd" d="M167.026 84.6785L166.644 102.401H141.381V84.6785H167.026ZM114.686 66.5508H140.999V84.2854H114.686V66.5508ZM62.7166 119.731L62.6927 118.933L62.3467 102.794H87.5976V119.743L62.7166 119.731ZM114.316 144.004L111.142 143.337L109.245 142.944L107.479 142.575L105.832 142.242L104.292 141.932L102.86 141.646L101.524 141.372L100.271 141.122L99.0894 140.884L97.9796 140.658L96.9295 140.443L95.9271 140.241L94.9724 140.038L94.0535 139.848L93.1585 139.657L92.2755 139.466L91.4043 139.264L90.5332 139.062L89.6501 138.847L88.7432 138.633L88.0391 138.454V120.112H114.352L114.316 144.004Z" fill="#C03B35"/>
<path fill-rule="evenodd" clip-rule="evenodd" d="M118.616 153.204L119.522 152.942L120.489 152.668L121.515 152.382L122.601 152.073L123.735 151.751L124.916 151.418L126.145 151.072L127.41 150.703L128.723 150.322L130.06 149.941L131.432 149.536L132.828 149.131L134.248 148.714L135.692 148.285L137.148 147.845L138.604 147.404L140.072 146.951L141.539 146.499L143.007 146.034L144.475 145.57L145.931 145.093L147.375 144.617L148.795 144.14L150.203 143.652L151.575 143.164L152.924 142.675L154.236 142.187L155.513 141.699L156.754 141.21L157.96 140.722L159.117 140.234L160.215 139.745L160.8 139.472L161.372 139.198L161.921 138.924L162.458 138.65L162.972 138.376L163.473 138.102L163.95 137.828L164.404 137.554L164.845 137.28L165.263 137.006L165.668 136.72L166.05 136.434L166.408 136.149L166.742 135.863L167.065 135.577L167.351 135.291L167.709 134.91L168.043 134.529L168.365 134.148L168.676 133.755L168.974 133.362L169.26 132.957L169.535 132.54L169.797 132.111L170.048 131.682L170.287 131.241L170.513 130.789L170.728 130.324L170.931 129.848L171.122 129.36L171.301 128.871L171.468 128.371L171.623 127.847L171.766 127.323L171.898 126.787L172.029 126.239L172.148 125.679L172.256 125.096L172.351 124.5L172.447 123.893L172.53 123.261L172.614 122.618L172.685 121.963L172.757 121.284L172.816 120.594L172.876 119.879L172.924 119.14L172.972 118.378L175.203 81.2295L187.184 60.9103L183.998 62.4944L173.294 80.6459L171.026 118.247L170.979 118.998L170.931 119.724L170.871 120.427L170.812 121.106L170.74 121.761L170.668 122.392L170.585 123.011L170.501 123.607L170.406 124.19L170.31 124.75L170.203 125.298L170.096 125.822L169.976 126.334L169.857 126.835L169.726 127.323L169.583 127.799L169.427 128.252L169.26 128.693L169.093 129.121L168.914 129.538L168.723 129.943L168.521 130.348L168.306 130.741L168.079 131.122L167.84 131.492L167.602 131.861L167.351 132.218L167.089 132.575L166.814 132.921L166.528 133.266L166.217 133.612L165.895 133.945L165.657 134.171L165.394 134.41L165.108 134.648L164.797 134.886L164.463 135.136L164.105 135.386L163.723 135.636L163.318 135.898L162.888 136.16L162.446 136.422L161.969 136.685L161.48 136.947L160.967 137.209L160.442 137.471L159.893 137.733L159.332 137.995L158.258 138.471L157.136 138.947L155.955 139.424L154.738 139.912L153.473 140.401L152.172 140.889L150.835 141.377L149.475 141.854L148.079 142.33L146.671 142.806L145.239 143.283L143.795 143.759L142.339 144.224L140.883 144.688L139.415 145.141L137.959 145.594L136.504 146.034L135.06 146.463L133.628 146.892L132.208 147.309L130.811 147.714L129.451 148.107L128.114 148.488L126.814 148.857L125.549 149.214L124.32 149.56L123.138 149.893L122.005 150.215L120.919 150.524L119.892 150.81L118.926 151.084L118.019 151.346L114.415 152.359L110.811 151.346L109.904 151.084L108.938 150.81L107.911 150.524L106.825 150.215L105.692 149.893L104.51 149.56L103.281 149.214L102.016 148.857L100.716 148.488L99.3791 148.107L98.0187 147.714L96.6225 147.309L95.2024 146.892L93.7704 146.463L92.3265 146.034L90.8706 145.594L89.4148 145.141L87.947 144.688L86.4911 144.224L85.0353 143.759L83.5913 143.283L82.1593 142.806L80.7512 142.33L79.355 141.854L77.9946 141.377L76.6581 140.889L75.3574 140.401L74.0924 139.912L72.8752 139.424L71.6938 138.947L70.5721 138.471L69.4981 137.995L68.9373 137.733L68.3883 137.471L67.8633 137.209L67.3501 136.947L66.8609 136.685L66.3835 136.422L65.942 136.16L65.5124 135.898L65.1067 135.636L64.7248 135.386L64.3668 135.136L64.0327 134.886L63.7224 134.648L63.436 134.41L63.1735 134.171L62.9348 133.945L62.6126 133.612L62.3024 133.266L62.016 132.921L61.7415 132.575L61.479 132.218L61.2284 131.861L60.9897 131.492L60.751 131.11L60.5243 130.729L60.3095 130.336L60.1066 129.931L59.9157 129.526L59.7367 129.109L59.5696 128.681L59.4145 128.24L59.2594 127.787L59.1162 127.311L58.9849 126.823L58.8656 126.322L58.7462 125.81L58.6388 125.286L58.5314 124.738L58.436 124.179L58.3405 123.595L58.257 122.999L58.1734 122.38L58.1018 121.749L58.0302 121.094L57.9706 120.415L57.9109 119.712L57.8632 118.986L57.8154 118.235L55.5601 80.634L44.8678 62.4825L41.6816 60.8984L53.6627 81.2176L55.9658 118.342L56.0135 119.105L56.0612 119.843L56.1209 120.558L56.1806 121.261L56.2522 121.939L56.3238 122.594L56.4073 123.238L56.4908 123.869L56.5863 124.476L56.6818 125.072L56.7892 125.655L56.9085 126.227L57.0398 126.775L57.171 127.311L57.3142 127.835L57.4694 128.359L57.6364 128.859L57.8154 129.348L58.0064 129.836L58.2092 130.312L58.424 130.777L58.6508 131.23L58.8894 131.67L59.14 132.099L59.4026 132.528L59.677 132.945L59.9634 133.35L60.2618 133.743L60.572 134.136L60.8942 134.517L61.2284 134.898L61.5864 135.279L61.8728 135.565L62.195 135.851L62.5291 136.137L62.8871 136.422L63.269 136.708L63.6628 136.994L64.0804 137.268L64.5219 137.542L64.9754 137.816L65.4527 138.09L65.9539 138.364L66.4671 138.638L67.0041 138.912L67.553 139.186L68.1258 139.46L68.7105 139.734L69.8084 140.222L70.9659 140.71L72.1712 141.199L73.4122 141.687L74.6891 142.175L76.0018 142.664L77.3502 143.152L78.7226 143.64L80.1307 144.129L81.5507 144.605L82.9947 145.081L84.4505 145.558L85.9183 146.022L87.3861 146.487L88.8539 146.939L90.3217 147.392L91.7776 147.833L93.2334 148.273L94.6654 148.702L96.0855 149.119L97.4817 149.524L98.854 149.929L100.191 150.31L101.503 150.691L102.768 151.06L103.997 151.406L105.179 151.739L106.312 152.061L107.398 152.371L108.424 152.656L109.391 152.93L110.298 153.192L114.427 154.348L118.616 153.204Z" fill="#6D6E70"/>
</svg>
