<svg width="200" height="200" viewBox="0 0 200 200" fill="none" xmlns="http://www.w3.org/2000/svg">
<path d="M99.679 2.8405C153.34 2.646 196.985 45.9991 197.16 99.6605C197.355 153.322 154.002 196.967 100.34 197.161C46.679 197.356 3.05355 153.983 2.85905 100.322C2.66455 46.6604 46.0177 3.01554 99.679 2.8405Z" fill="url(#paint0_linear)" stroke="#141414" stroke-width="0.97" stroke-linecap="square"/>
<path d="M100.01 187.224C76.709 187.224 54.7893 178.161 38.3155 161.668C21.8417 145.194 12.7588 123.274 12.7588 99.9735C12.7588 76.6729 21.8417 54.7532 38.3155 38.2794C54.7893 21.8056 76.709 12.7227 100.01 12.7227C123.31 12.7227 145.23 21.8056 161.704 38.2794C178.177 54.7532 187.26 76.6534 187.26 99.9735C187.26 123.274 178.177 145.174 161.704 161.668C145.23 178.161 123.33 187.224 100.01 187.224Z" fill="#141414"/>
<path d="M100.01 180.143C78.5961 180.143 58.4658 171.799 43.334 156.668C28.1828 141.536 19.8584 121.406 19.8584 99.9916C19.8584 78.5776 28.2023 58.4473 43.334 43.3155C58.4658 28.1837 78.5961 19.8398 100.01 19.8398C121.424 19.8398 141.554 28.1643 156.706 43.3155C171.857 58.4473 180.181 78.5776 180.181 99.9916C180.181 121.406 171.837 141.536 156.706 156.668C141.554 171.819 121.424 180.143 100.01 180.143Z" fill="white"/>
<path d="M160.868 138.501C154.936 132.938 147.467 129.223 139.337 127.92C138.287 127.765 137.315 128.465 137.14 129.515C137.12 129.612 137.12 129.71 137.12 129.807V132.763C137.12 133.638 136.439 134.63 135.564 134.63C134.922 134.63 134.28 134.65 133.639 134.63C131.363 134.591 130.955 131.81 131.402 130.157C136.245 112.808 137.431 102.286 137.373 94.6226C137.315 86.4732 137.101 78.3627 133.444 67.6265C129.904 57.2988 126.676 47.1656 109.599 31.7032C108.432 30.6529 107.265 30.1472 105.709 30.0305C104.036 29.9138 102.655 29.8555 100.944 29.8555C93.8448 29.8555 87.018 30.9057 80.5413 32.8313C78.1295 33.5703 78.4796 35.243 79.8216 36.3905C86.2789 41.9142 95.0117 50.1997 101.041 60.5469C97.229 60.9164 94.3116 58.7964 91.8415 56.443C83.7893 48.7799 75.3871 43.2951 68.7159 39.5608C67.5489 38.919 66.4014 38.6467 65.2539 39.308C57.902 43.5869 52.9618 47.5935 47.1269 54.3619C46.135 55.5095 46.7768 56.4041 47.7493 56.9293C54.1287 60.3135 64.1064 66.7319 73.2671 75.0563C71.4 76.6317 68.4436 76.1066 64.1453 73.8699C55.8987 69.5326 47.9827 67.0431 41.9339 65.4871C40.6307 65.1565 39.2498 65.526 38.5885 66.6735C34.7181 73.4031 32.0535 81.4552 30.7893 89.6046C30.5559 91.18 31.6061 92.5609 33.1816 92.8332C47.2825 95.3033 72.3919 101.916 76.5736 130.857C76.9431 133.386 74.6286 135.622 71.5945 134.202C67.3545 132.219 63.1339 130.235 58.8939 128.251C58.4465 128.037 57.9409 127.862 57.4546 127.862H37.4994C34.6597 127.862 33.4927 130.585 35.3405 132.685C40.1445 138.209 44.5401 144.18 48.3133 150.501C48.644 151.065 49.033 151.279 49.6748 151.279H58.3882C58.9717 151.279 59.4968 151.143 60.0025 150.832C62.7449 149.218 65.4873 147.623 68.2297 146.008C68.7354 145.697 69.2411 145.717 69.844 145.717H135.525C136.4 145.717 137.12 146.281 137.12 147.175V150.404C137.12 151.571 138.17 152.466 139.337 152.291C147.467 150.987 154.955 147.273 160.868 141.71C161.763 140.874 161.821 139.473 160.985 138.579C160.946 138.579 160.907 138.54 160.868 138.501Z" fill="url(#paint1_linear)" stroke="#141414" stroke-width="1.139"/>
<path d="M111.933 129.048C105.456 129.048 100.224 123.816 100.224 117.359C100.224 110.902 105.456 105.65 111.933 105.65C118.39 105.65 123.642 110.882 123.642 117.359C123.642 123.797 118.39 129.048 111.933 129.048ZM154.956 140.115C150.521 136.497 145.834 134.144 140.135 132.977C139.629 132.88 139.376 133.074 139.376 133.599V133.891C139.376 135.291 137.976 136.925 136.576 136.925H132.88C129.768 136.925 126.968 134.358 128.135 130.234C141.496 82.583 126.559 53.1169 107.732 36.6237C102.617 32.1503 102.15 31.8974 97.0541 32.0919C93.0281 32.2475 88.3213 32.7338 84.3341 33.7062C83.5561 33.9007 82.8948 34.5231 83.9257 35.3789C93.5921 43.5283 106.526 57.5709 112.711 79.4322C112.925 80.1907 112.478 80.1324 111.894 80.1713C106.351 80.5019 104.484 77.1177 102.753 74.9588C90.1884 59.3213 76.1264 49.8299 65.5847 43.5866C64.5344 42.9642 64.3594 42.9642 63.5619 43.431C59.3219 45.8817 54.5762 49.7716 51.2309 53.3309C50.5307 54.0894 50.7058 54.4395 51.4838 54.8479C61.0141 59.9632 75.504 70.0186 88.9825 87.0759C89.8189 88.1262 89.8772 88.6124 89.4104 88.9041C86.8236 90.4407 82.4864 90.4212 77.7601 87.4843C64.9234 79.4711 51.8728 73.8113 41.6812 70.8549C40.592 70.5437 40.3975 70.6021 39.9502 71.5357C37.4606 76.7676 34.7571 83.5555 33.7652 89.4487C33.6485 90.2267 33.5707 90.2851 34.2903 90.4212C62.3755 96.1199 77.7796 111.524 79.53 132.121C79.8412 135.7 75.7957 139.142 71.7697 137.859C67.413 136.478 63.173 134.922 58.7968 133.541C58.33 133.385 57.8438 133.308 57.3575 133.327C51.3282 133.327 45.2793 133.327 39.2305 133.327C38.4331 133.327 37.9469 133.833 38.7443 134.844C43.2955 140.621 45.9601 143.888 49.1693 149.276C49.4999 149.84 49.8694 150.054 50.5307 150.054C52.748 150.054 54.9652 150.054 57.2019 150.054C58.0577 150.073 58.8746 149.84 59.6137 149.392C62.0254 147.972 64.4372 146.65 66.8489 145.23C67.6269 144.783 68.2687 144.51 69.1634 144.51C91.0831 144.51 114.598 144.51 136.517 144.51C137.918 144.51 139.357 146.144 139.357 147.545V148.031C139.357 148.556 139.61 148.75 140.115 148.653C145.814 147.467 150.482 144.744 154.936 141.126C155.344 140.776 155.345 140.446 154.956 140.115Z" fill="#42BD3B"/>
<path d="M124.127 115.999C125.178 123.215 120.179 129.925 112.963 130.975C105.747 132.026 99.0373 127.047 97.9871 119.831C96.9368 112.615 101.935 105.905 109.132 104.855C116.367 103.804 123.077 108.783 124.127 115.999Z" fill="url(#paint2_linear)"/>
<path d="M113.177 104.875L109.209 130.996C114.888 131.813 120.665 128.798 123.115 123.294C126.091 116.623 123.096 108.843 116.444 105.867C115.413 105.4 114.305 105.069 113.177 104.875Z" fill="url(#paint3_linear)"/>
<path d="M122.222 117.572C122.222 122.454 118.254 126.422 113.372 126.422C108.49 126.422 104.522 122.454 104.522 117.572C104.522 112.671 108.471 108.723 113.372 108.723C118.254 108.723 122.222 112.69 122.222 117.572Z" fill="white" stroke="#141414" stroke-width="1.139"/>
<defs>
<linearGradient id="paint0_linear" x1="100.341" y1="197.485" x2="99.669" y2="2.48281" gradientUnits="userSpaceOnUse">
<stop stop-color="#99A2A7"/>
<stop offset="0.476" stop-color="#98A3A8"/>
<stop offset="0.535" stop-color="#E6E6E6"/>
<stop offset="1" stop-color="#E6E6E6"/>
</linearGradient>
<linearGradient id="paint1_linear" x1="38.5492" y1="157.525" x2="167.695" y2="39.3558" gradientUnits="userSpaceOnUse">
<stop stop-color="#151313"/>
<stop offset="0.085" stop-color="#151313"/>
<stop offset="0.128" stop-color="#F8F1F1"/>
<stop offset="0.229" stop-color="#151313"/>
<stop offset="0.304" stop-color="#141414"/>
<stop offset="0.382" stop-color="#F8F1F1"/>
<stop offset="0.45" stop-color="#151313"/>
<stop offset="0.565" stop-color="#F8F1F4"/>
<stop offset="0.627" stop-color="#141414"/>
<stop offset="0.787" stop-color="#F8F1F1"/>
<stop offset="1" stop-color="#F8F1F2"/>
</linearGradient>
<linearGradient id="paint2_linear" x1="109.91" y1="116.427" x2="122.322" y2="132.654" gradientUnits="userSpaceOnUse">
<stop stop-color="#151313"/>
<stop offset="0.163" stop-color="#CCC4C4"/>
<stop offset="0.496" stop-color="#B7ACAD"/>
<stop offset="1" stop-color="#151313"/>
</linearGradient>
<linearGradient id="paint3_linear" x1="115.526" y1="117.141" x2="97.0088" y2="124.664" gradientUnits="userSpaceOnUse">
<stop stop-color="#151313"/>
<stop offset="0.25" stop-color="#CCC4C4"/>
<stop offset="0.5" stop-color="#B7ACAD"/>
<stop offset="1" stop-color="#151313"/>
</linearGradient>
</defs>
</svg>
